<?xml version="1.0" encoding="utf-8"?>
<!-- Generator: Adobe Illustrator 26.3.1, SVG Export Plug-In . SVG Version: 6.00 Build 0)  -->
<svg version="1.1" id="Calque_1" xmlns="http://www.w3.org/2000/svg" xmlns:xlink="http://www.w3.org/1999/xlink" x="0px" y="0px"
	 viewBox="0 0 1100.2 660.9" style="enable-background:new 0 0 1100.2 660.9;" xml:space="preserve">
<g>
	<path d="M331.4,131.4c25.1,8.4,50.2,16.8,75.4,24.9c1.9,0.6,5.2-0.4,6.8-1.8c16.9-14.2,33.4-28.9,50.4-42.9
		c35.4-29.3,70.5-59,106.8-87.1c17.8-13.9,39-22.1,62.1-24.1c19-1.7,37.2,2.7,55.2,8.2c3.7,1.1,7.4,2.2,11.2,3.1
		c13.4,3.1,21.6,13.4,30.8,22.3c3,2.9,6.2,5.7,9.1,8.7c16.2,16.6,24.5,37.5,28.5,59.4c5.6,30.5,9.1,61.5,12.7,92.3
		c3.6,31.6,6.3,63.2,9.4,94.8c0.6,5.7,0.8,11.4,2,17c0.5,2.4,2.7,5.3,4.9,6.4c20.4,10.2,41.2,19.7,61.4,30.2
		c43.7,22.6,87.3,45.1,130.5,68.6c18.1,9.9,35.3,21.6,52.2,33.6c10.9,7.7,20.8,16.9,30.5,26c22.2,20.9,29.4,47.5,28.8,77.2
		c-0.3,18.6-4.3,36.3-15.9,50.7c-18.1,22.4-39.7,40.5-68.6,48.2c-29.4,7.8-59.1,12.6-89.7,13.2c-27.8,0.6-55.6,1.6-83.2-2.2
		c-22.2-3-44.3-7.6-66.1-12.6c-36.3-8.4-72.6-17.3-108.6-26.7c-18.5-4.8-36.6-11.1-54.8-17c-21.2-6.9-42.5-13.6-63.3-21.5
		c-35.4-13.5-70.8-27.2-105.7-42c-39-16.6-77.5-34.2-115.9-51.9c-16.8-7.7-33.2-16.6-49.5-25.3c-14.8-7.9-29.5-16-43.9-24.6
		c-26.7-15.8-53.1-32.2-79.8-47.9c-29.4-17.3-53.7-40.8-77.7-64.6c-23.1-23-43.7-47.9-60.7-76c-12-19.8-16.8-41-16.5-63.7
		c0.1-8.5-1-17.4,0.9-25.5c8.3-35.6,32.8-57.4,64.5-72.2c16-7.5,33.5-6.7,50.5-6c22,0.8,43.7,4.1,65.2,10
		c41,11.3,82.2,21.6,123.3,32.5c9.1,2.4,17.9,5.6,26.9,8.5C331.3,131.5,331.3,131.4,331.4,131.4z M884.2,465.4
		c-8.4,0-16.8,0-25.2-0.1c0,0.8,0.1,1.6,0.1,2.4c8.3-0.8,16.7-1.7,25-2.5c5.6,0.3,11.2,0.7,16.8,1c0-0.9,0-1.7,0-2.6
		C895.3,464.3,889.8,464.8,884.2,465.4z M704,560.4c-0.1,1.7-1,4.1-0.2,4.9c2.2,2.3,14.3,1.6,18.6-1.5c-5.3-0.5-9.4-0.7-13.4-1.3
		C707.3,562.2,705.6,561.1,704,560.4c-1.2-1.4-2.1-3.7-3.6-4.2c-2.7-0.9-5.7-1-8.6-1.1c-4.4-0.2-8.7-0.1-13.1-0.1
		C683.5,559.6,685.2,559.9,704,560.4z M733.6,366.1c-2.8,5.4-6,10.7-2.5,17.2c7.5-5.5,8.6-8.5,6.6-15.9c-0.9-3.2-2.3-2.6-4.2-1.2
		c3.4-4.4,3.1-9.1,2.3-14.5c-0.9-5.5-3.1-6.2-8.3-4.5c0.6,6.8,1.1,13.5,1.8,21.5C731.4,367.4,732.5,366.8,733.6,366.1z M348.9,265.2
		c3.7-3.2,7.4-6.3,10.9-9.7c0.8-0.8,0.8-2.4,1.1-3.6c-1-0.1-2.2-0.7-2.9-0.3c-4.8,2.8-9.6,5.7-15.5,9.4c2.9,1.8,4.7,3,6.6,4.1
		c-0.4,0.9-0.7,1.9-1.2,3c-3.6-1.9-6.9-3.7-10.3-5.5c-0.9-0.5-2.3-0.7-2.8-1.4c-2.8-4.7-4.4-4.9-8.2-0.1c7,3.3,13.8,6.8,20.8,9.8
		c1.7,0.7,4.5,0.6,6.1-0.3c4.7-2.5,9.1-5.5,13.5-8.5c1.1-0.7,1.4-2.5,2-3.9c-1.6-0.2-3.5-1-4.8-0.4C359,260.1,354,262.7,348.9,265.2
		z M507.1,526L507.1,526c2.3,0.3,4.9,0,7,0.7c43.8,15.9,87.5,32,131.3,47.8c4.2,1.5,9.1,0.8,13.4,2.2c21.8,7,43.5,14.5,65.3,21.5
		c17.5,5.6,35.1,11.3,52.8,16.1c14.9,4,30.1,6.9,45.2,10.1c5.3,1.1,10.2,0.7,13.5-4.9c-6.1-3.8-10.9,1.6-16.7,1.8
		c0.6-1.6,1.1-2.8,1.8-4.5c-3.2-0.7-6-1.5-8.9-2c-37.7-7.2-74.8-16.9-111.4-28.1c-13-4-26-8.2-38.7-13.2
		c-27.2-10.7-54.3-22-81.3-33.2c-2.4-1-4.5-2.9-6.7-4.4c0.3-0.4,0.5-0.8,0.8-1.2c1.2,0.3,2.4,0.6,3.6,1.1
		c48.6,16.5,97,33.4,145.7,49.6c38,12.6,76.8,21.6,116.3,28.2c7.3,1.2,10.5-4,16.9-7.2c-3.7-1-5.6-1.7-7.5-2.1
		c-39.9-8.7-79.8-17-119.5-26.2c-15.7-3.6-31.1-8.4-46.3-13.9c-17.7-6.4-34.7-14.5-52.3-21c-47.6-17.6-95.5-34.3-143-52.3
		c-27.7-10.5-54.8-22.6-82.2-34.1c-4.4-1.8-8.6-4-12.9-6c0.9-0.5,1.7-0.5,2.3-0.2c39.4,14.8,78.7,29.7,118.1,44.5
		c27.9,10.5,55.9,20.7,83.9,31.2c20.9,7.8,41.6,15.9,62.5,23.4c4.9,1.8,10.4,1.8,15.6,2.7c0.2-0.8,0.3-1.6,0.5-2.3
		c-5.1-1.8-10.2-3.5-15.3-5.3c-35.7-13-72-24-107.1-38.7c-27.6-11.6-55.4-22.6-83.3-33.5c-23.8-9.3-48.1-17.4-71.7-27.4
		c-19.5-8.2-38.2-18.2-57.1-27.7c-12-6-23.5-13-35.4-19c-14.1-7.1-28.5-13.6-42.8-20.3c-0.5-0.3-1.3,0.1-2,0.1
		c-0.4,0.4-0.7,0.9-1.1,1.3c2.9,3,5.3,7.1,8.8,8.9c22.7,11.7,45.6,22.9,68.4,34.3c3.3,1.7,6.4,3.9,9.6,5.8c-0.2,0.5-0.5,0.9-0.7,1.4
		c-26.6-9.5-50.8-24.1-76.2-36.1c-0.5,0.4-1,0.7-1.5,1.1c2.7,5.5,5.3,11.1,8,16.5c11-2.5,28,8.3,29.4,18.3
		c-53.6-24.5-104.6-53.7-153.1-88.3c-1.3,8.8,3.6,12,9,15.3c18.1,11,36.1,22.1,54,33.4c4.8,3,9.1,6.6,13.7,9.9
		c-0.3,0.4-0.5,0.7-0.8,1.1c-29.1-12.9-55.1-31.1-82.3-47.7c0.8,2.1,1.9,3.9,3.4,5.1c6.4,4.9,12.7,10.3,19.6,14.3
		c32,18.4,64.2,36.4,96.4,54.5c10.2,5.8,20.5,11.5,30.6,17.4c2.2,1.3,3.3,2.9,3.7,6.3c0.5,4.6,3,10.7,6.6,13
		c11.6,7.3,24.3,13.1,36.4,19.8c6.3,3.5,11.3-0.1,17-1.5c-2.5-2-5-3.3-7.6-4.6c-9.3-4.4-18.7-8.7-27.9-13.3
		c-2.1-1.1-3.9-2.9-5.8-4.4c0.4-0.6,0.8-1.2,1.1-1.8c4.8,1.6,9.9,2.8,14.5,4.8c42.5,18.5,84.9,37.3,127.4,55.8
		c17.4,7.6,35,14.5,52.4,21.9c22.5,9.6,44.9,19.5,67.4,29c4.8,2,10,3.3,15,4.9c13.6,4.5,27.1,9.2,40.7,13.6
		c3.4,1.1,6.9,1.9,10.4,2.6c2.3,0.5,4.6,0.5,6.9,0.8c0,0.6-0.1,1.2-0.1,1.9c-9.2,0.4-18.4,0.8-27.5,1.2c0,0.9,0,1.7,0,2.6
		c4.5,0.5,8.9,1.5,13.4,1.3c8.8-0.5,17.6-1.9,26.4-2.4c5.1-0.3,10.3,0,15.2,1.1c5.1,1.1,9.9,3.8,15,5.2c12.7,3.5,25.5,6.7,38.3,10
		c25.3,6.5,50.6,13.1,75.9,19.5c2.5,0.6,5.2,0,7.9-0.1c0-0.6,0-1.2,0-1.8c-1.7-0.4-3.4-1-5.2-1.3c-34.1-6.2-67.1-16-99.9-26.9
		c-7.6-2.5-15-6-22.7-8.4c-20-6.3-40.5-11.3-60.2-18.5C598,563,565,549.7,531.9,536.8C523.7,533.1,515.4,529.4,507.1,526z
		 M705.1,310.9c-0.4,0-0.9,0-1.3-0.1c-0.1-1.4-0.2-2.8-0.3-4.3c-0.1-8.8-0.2-17.7-0.2-26.5c0-3-0.6-4.5-4.2-5
		c-26.2-3.7-51.6-10.8-76.1-20.4c-26.7-10.5-53.1-22-79.5-33.2c-1.3-0.6-2-2.6-3-4c1.7-0.2,3.8-1.1,5.2-0.5
		c19.4,8.1,38.5,16.7,58,24.5c29.4,11.9,59.6,21.6,90.5,28.7c9.5,2.2,9.3,1.9,10-7.9c0.3-4.9-1.6-6.3-5.9-7.2
		c-8.1-1.8-16.3-3.6-23.9-6.7c-27.3-11.1-54.3-22.8-81.4-34.3c-0.8-0.3-1.4-1.1-2.1-1.7c5,0.5,9.6,2,14,3.6
		c23.6,8.9,47,18.3,70.8,26.8c9,3.2,18.7,4.6,28.8,7c0.2-5.5,0.4-9.3,0.5-13.1c0.3-11.6,0.3-11.4-10.8-14.5
		C643.4,208,593.4,191.5,546,167.9c-8.2-4.1-15.2-10.7-22.6-16.5c-1.7-1.3-2.5-3.9-3.7-5.8c6.1,3.3,10.7,7.9,16.3,10.9
		c9.6,5.3,19.5,10.6,29.8,14.4c45.2,16.8,90.7,33,136,49.4c1,0.3,2.1,0.3,3.7,0.5c0.2-5.8,0.1-11.4,0.7-16.8
		c0.5-4.3-0.9-5.9-5.1-7.3c-26.4-8.5-52.8-17.4-79.1-26.2c-3-1-5.9-2.4-8.9-3c-22.5-4.5-42.1-15.3-60.6-28.4c-2-1.4-3.5-3.6-5.2-5.5
		c0.4-0.4,0.8-0.9,1.1-1.3c50.1,25.7,103.6,42.7,157.5,61c0.2-10,0-18.6,0.6-27.2c0.4-4.9-1.3-6.6-5.7-8.1
		c-28.5-9.5-57-18.8-85.1-29.3c-20.8-7.8-41.3-16.6-59.7-29.3c-5.4-3.7-10.1-8.3-15.4-12.6c-18.6,20.1-36.9,40-55.7,60.4
		c2,1.9,4,3.9,6.2,6.1c2.2-2,4.1-3.5,5.7-5.2c11-11.6,21.8-23.2,32.9-34.7c2.8-2.9,6.3-5,9.5-7.5c0.6,0.7,1.3,1.4,1.9,2.1
		c-15.4,16.4-30.8,32.8-46.3,49.3c2.8,3,5.6,5.9,8.3,8.8c-0.5,0.6-0.9,1.1-1.4,1.7c-2.8-1.8-5.9-3.2-8.4-5.4
		c-2.9-2.6-5.2-2.2-7.5,0.4c-3,3.4-6,7-9,10.4c-1.8,2-3.7,4-5.6,5.9c-0.6-0.5-1.2-0.9-1.8-1.4c1.5-2.7,2.7-5.8,4.7-8
		c2.5-2.8,5.9-5,8.8-7.5c2.5-2.1,4.7-4.1,1.2-7.6c-2.9-2.9-4.8-3.5-8.1-0.5c-6.3,5.6-13.1,10.8-19.7,16c-1.4,1.1-3.1,1.7-4.7,2.5
		c-0.2-0.3-0.3-0.7-0.5-1c2.6-2.9,5.3-5.8,7.3-8.1c-5.1-6.8-9.6-12.8-14.5-19.4c-1.2,1-2.7,2.2-4.2,3.5
		c-12.4,10.9-24.6,22-37.2,32.7c-7.4,6.3-7.6,13,0.2,19.4c3.4-2.2,6.7-4.5,10.1-6.7c0.5,0.6,1,1.3,1.4,1.9
		c-10.3,8.2-20.6,16.4-30.9,24.6c5.2,5.2,5.2,5.3,10,1.5c7-5.5,14-11.1,21.1-16.6c4.5-3.5,9.1-7.1,13.6-10.6
		c0.4,0.4,0.8,0.9,1.2,1.3c-2.6,2.4-5.1,4.9-7.7,7.3c-2.6,2.5-5.2,4.9-8,7.5c4.8,2.3,19.2-8,28-19.3c-4-2.6-7.9-5.2-11.8-7.7
		c-0.3,0.4-0.6,0.9-0.8,1.3c-0.4-3.4-0.8-6.7-1.3-11.1c4.9,3.1,7.2,1,9.7-1.9c2.3-2.6,5.3-4.5,8-6.7c0.6,0.6,1.1,1.2,1.7,1.8
		c-2.4,2.7-4.8,5.5-7.3,8.2c-2.2,2.3-5,4.8-0.9,7.5c3.1,2.1,5,9.4,10.7,2.9c1.1-1.3,3.1-1.8,4.7-2.7c0.5,0.6,1,1.2,1.4,1.8
		c-11.1,10.2-22.1,20.4-33.2,30.6c0.5,0.7,0.9,1.3,1.4,2c2-1.1,4.3-1.9,5.9-3.3c8.3-7.2,16.5-14.6,24.8-21.9c1-0.9,2.3-1.4,3.5-2.1
		c0.5,0.5,0.9,1.1,1.4,1.6c-10,9.4-20,18.7-30,28.2c6.4,4.8,6.4,4.9,11.3,0.6c8.3-7.3,16.5-14.7,24.8-22c1.6-1.4,3.3-2.6,4.9-3.8
		c0.4,0.5,0.8,0.9,1.2,1.4c-10.5,10-21.1,20-32.1,30.4c2.6,1.9,4.4,3.3,7.4,5.4c-3.3,3.6-6.3,7.1-9.5,10.4
		c-3.3,3.4-6.7,6.6-10.6,10.5c6.5,4.4,15.4,5.8,15.4,15.8c-2.7-1.1-5-2-8.1-3.3c-2,6-4,11.6-5.7,17.4c-2.8,9.4-3,9.8,5.8,14.4
		c20.4,10.6,40.7,21.5,61.7,30.8c31.1,13.9,62.8,26.5,94.2,39.7c1.4,0.6,2.7,1.4,4.1,2.2c-0.2,0.6-0.4,1.2-0.6,1.7
		c-9.8-3.1-19.5-6.1-29.3-9.2c3.3,2.3,6.8,4.3,10.5,5.8c30.5,11.6,61,23.1,91.4,34.8c3.2,1.2,4.6,0.2,6.8-2.3
		c7.5-8.7,13.9-18.7,24.4-24.8c0.1-4.8-0.4-10,0.3-14.9c0.5-3.7,2.6-7.3,7.2-9.2c-6.3,16.1-6,17.9,2.9,19.6c0.9-1.4,1.8-2.8,2.7-4.3
		c0.6,0.4,1.1,0.6,1.2,0.8c1.1,4.4,6.6,8.4,11,7.7c1-0.2,2.6-1.9,2.5-2.7c-0.8-8-1.8-16.1-3.1-24c-0.2-1.1-2.7-1.8-4.2-2.7
		c-0.7,1.3-1.7,2.5-2.2,3.9c-0.4,1-0.1,2.2-0.2,3.3c-0.1,0.9-0.4,1.7-0.6,2.6c-0.2-6.1-1.9-10-8.3-12.6c-6.4-2.5-10.4-0.6-14,3
		c-0.9-1.6-1.7-4.3-2.6-4.4c-2.2-0.2-5,0.3-6.6,1.6c-2.7,2.3-4.6,5.4-7.2,8.6c-3.8-6.1,2.7-7.8,2.9-11.4c-0.9-1.7-2.3-4-1.7-5.1
		c1-1.7,3.9-4.1,5.1-3.7c4.6,1.6,6.2-1.2,8.4-4.1c1.8-2.3,4.3-3.9,6.6-5.9c0.5,0.5,1,1.1,1.5,1.6c-2.3,3.1-4.6,6.2-6.9,9.4
		c9.4,5.3,18.5,8.1,28.7,4.4c-1-25.7-2.1-52.1-3.2-78.6c-0.5,0-1,0-1.6,0c-3.2,21.3-0.6,42.8-2.3,64.3c-1.5-2.3-2.2-4.7-2.3-7.1
		c-0.2-11.2-0.2-22.5-0.4-33.7c0-1.8-0.9-3.7-1.4-5.5c-0.8,0.1-1.7,0.1-2.5,0.2C706.6,287.9,705.9,299.4,705.1,310.9z M386.7,377
		c-0.3,0.8-0.5,1.5-0.8,2.3c0.3,2.7,0.1,5.6,1,8.1c4.7,13.7,10.1,27.3,14.4,41.1c1.4,4.4,2.9,7.4,7.3,9.2
		c28.6,12.1,57.2,24.5,85.8,36.5c2,0.9,5.4,0.3,7.4-0.8c12-7.2,23.7-14.8,35.5-22.3c0.9-0.6,2-1.1,2.6-1.9c3-3.9,4.5-2.7,5.7,1.3
		c1.2,3.9,2.3,7.8,4,11.4c6.3,13.5,12.6,27,19.3,40.3c1.1,2.2,3.7,4.2,6,5c25.5,9.1,51,18.1,76.6,26.8c1.8,0.6,4.6-0.3,6.4-1.4
		c11.2-7.3,22.1-15,33.5-22.2c4.7-3,10.1-4.8,15.2-7.1c-0.6,0.7-1.2,1.5-1.8,2.2c1.8,2.2,4.2,4.1,5.2,6.6
		c5.2,13.8,9.9,27.7,15.1,41.5c0.6,1.7,2.6,3.5,4.2,4c14.3,3.9,28.9,7.1,43.1,11.2c5.5,1.6,9.6,0.9,14.3-2.3
		c13.1-9,26.4-17.6,39.7-26c3.2-2,7.1-2.8,10.8-4.2c0.6,3,0.8,4.7,1.3,6.2c4.5,13.6,9.3,27.1,13.5,40.7c1,3.3,2.1,4.8,5.6,5.4
		c13.6,2.3,27.1,5.1,40.7,7.4c1.9,0.3,4.7-0.2,5.9-1.5c10.6-11,20.8-22.3,31.2-33.4c4.2-4.6,7.6-4,9.5,2.2c2,6.5,3.8,13.1,4.5,19.8
		c0.7,6.3-0.2,12.7-0.4,19.4c1,0,2.3,0.2,3.5-0.1c14.9-3.5,29.8-6.9,44.6-10.6c1.7-0.4,3.2-1.8,4.7-2.7c-4.6-0.4-8.7,0.4-12.7,1.3
		c-8.6,1.9-8.6,2-12-0.8c2.2-0.7,4.1-1.4,5.9-1.8c7.5-1.7,15.1-3.2,22.6-5.1c2.4-0.6,4.6-2.3,6.9-3.5c-0.3-0.5-0.5-1-0.8-1.5
		c-7.1,1.9-14,4.5-21.2,5.5c-7.9,1.1-14,4.5-19.6,9.9c-5.8,5.6-8.6,4.6-10-3.3c-1.5-8.1-2.2-16.4-3.8-24.5
		c-2.9-15-12.7-26.1-21.7-38.2c-4.1,6.3-7.8,11.8-11.2,17.4c-10.5,17.4-20.7,34.7-41.1,42.9c-4.9,2-5.9,0.9-7.5-2.9
		c-7.9-17.8-16-35.5-24.1-53.3c-2.7-6-5.6-11.9-8.6-17.8c-2-3.9-4.8-4.3-8.6-1.7c-4.1,2.8-8.5,5.1-13,7.2
		c-21.5,10.4-43.6,19.7-61.8,36c-7.3,6.6-10.2,5-13.3-4.4c-8.8-26.6-17.7-53.1-26.8-79.6c-1.9-5.6-6.3-8.1-12.2-4.9
		c-13.5,7.4-27.3,14.3-41.5,20.3c-18.1,7.7-37.8,11.3-54.3,22.8c-4.1,2.8-8.3,2.3-12.9-0.5c-6-3.6-6.4-9.5-8-15
		c-2.2-7.6-3.6-15.4-6.2-22.9c-5.2-14.7-11.1-29.1-16.6-43.7c-3.1-8.4-5.8-17-9.1-26.7c-5.5,2.5-10.1,4.3-14.6,6.5
		c-7.1,3.5-14,7.5-21.1,10.8c-16.5,7.6-33.2,14.9-49.7,22.5c-4.3,2-8.4,4.4-12.8,6.3c-7.3,3.2-12.1,1.8-15.8-5.1
		c-4.2-8-8.6-16-11.5-24.5c-5.5-16.2-10.1-32.7-14.8-49.2c-3.4-11.6-6.4-23.2-9.7-35.1c-1.4,0.5-2.1,0.6-2.7,0.9
		c-10.6,5.8-20.9,12.4-31.9,17.4c-18.8,8.6-37.8,16.4-55.2,27.8c-9.2,6-10.7,5.7-15.4-4c-15.3-31.3-29.8-62.9-35.5-97.7
		c-0.1-0.7-0.6-1.3-1.1-2.3c-1.9,0.7-3.6,1.3-5.3,1.9c-16.9,6.3-33.8,12.3-50.5,18.9c-11.3,4.5-22.2,9.8-33.2,14.8
		c-1.5,0.7-2.6,2-3.9,3c9.5-2.7,18.3-6.4,27.3-9.7c8.9-3.3,18.1-5.6,27.9-5.2c-15.7,8.7-34.6,8.8-50.2,20c6.4,4.6,12,8.8,17.8,12.5
		c1.2,0.8,3.8,0.1,5.4-0.7c9.6-5.1,18.9-10.8,28.5-15.6c4.1-2,8.9-2.6,12.7-3.6c1.6,3.2,2.5,5.3,3.6,7.2
		c6.9,11.3,13.9,22.6,20.8,33.9c0.9,1.6,1.8,3.3,2.1,5.1c1.9,12.5,9.9,20.2,20.4,25.8c11,5.8,22.3,11,33.4,16.8
		c3.3,1.7,5.4,0.8,8.4-0.9c12-6.7,24.1-13.4,36.7-19C374.1,377.5,380.7,377.9,386.7,377z M453.3,442.7c2.5-1.4,3.5-2,4.7-2.6
		c15.1-7.8,29.8-16.7,45.5-23.2c16.6-6.9,34.1-11.8,49.6-21.3c8.8-5.4,10.3-2.4,13.5,5.5c3.5,8.7,7,17.4,10.4,26.2
		c4.8,12.5,10,24.9,14.2,37.6c3.5,10.4,5.9,21.3,8.8,31.9c1.7,6.3,3.9,7.7,8.6,5c28-16.1,58.2-27.3,88.2-38.9
		c6.3-2.5,12.9-4.4,19.5-6.1c1.6-0.4,4.8,0.7,5.3,1.9c6.6,16.4,13.1,32.8,19.1,49.4c4.1,11.4,7.5,23.1,11.1,34.7
		c0.6,1.9,0.5,4,0.7,6.1c4.6-2.1,6.6-3.7,8.6-5.2c20.9-16.5,44-28.8,69.5-36.6c3.2-1,6.1-3.1,9.1-4.5c1.1-0.5,2.6-1.1,3.5-0.7
		c4.6,2.2,8.9,4.7,10.9,10c2.2,5.6,4.9,11,7.1,16.7c6.4,16.5,12.6,33,19,49.5c0.3,0.8,0.9,1.5,1.4,2.4c1.4-0.7,2.8-0.9,3.7-1.7
		c6.1-6,12.7-11.5,17.9-18.2c9.3-12.1,17.9-24.6,26.2-37.4c3.9-6,4.7-6.8,10.2-2.4c1,0.8,1.8,1.8,2.6,2.8
		c14.1,16.4,24.5,34.5,24.6,57c0,1.8,0.7,3.6,1.2,6.5c3.3-3.1,5.7-5.4,8.1-7.6c11-10.4,21.7-21,32.9-31c5.9-5.3,10.8-11,13.5-18.4
		c0.7-1.9,1.4-3.9,2.6-5.4c0.9-1.1,2.6-2,3.9-2c0.7,0,1.6,2.1,2.1,3.3c0.6,1.3,0.4,3.1,1.3,4c7.8,8.4,12.4,18.5,15.8,29.2
		c2.1,6.5,3.8,13.2,5.9,20.6c1.6-2.6,2.9-4.4,3.9-6.3c8-15.3,12.4-31.8,16.5-48.4c0.6-2.3-0.9-5.2-1.5-7.8c-0.5,0.1-1,0.1-1.5,0.2
		c-0.8,4.5-1.2,9-2.5,13.3c-1.2,4,0.2,9.7-5.1,11.6c-5.5-11-10.9-21.2-15.7-31.7c-2.1-4.5-4.5-3.9-7.7-2c-4.4,2.6-8.7,6.9-13.3,7.4
		c-9,1-11.7,7.3-15.9,13.4c-5.8,8.2-12.7,15.7-19.4,23.3c-1.8,2-4.5,3.3-8.3,5.9c-2.6-7.7-4.9-14-6.8-20.4c-1.4-4.9-2-10.1-3.7-15
		c-0.6-1.8-3-3.8-4.9-4.2c-15.4-3.4-31-6.4-46.5-9.6c-3.5-0.7-5,0.5-6.9,3.5c-6,9.2-12.4,18.2-19.1,27c-1.5,2-5,3.3-7.5,3.3
		c-1.1,0-2.5-4-3.3-6.3c-0.7-2.1-0.6-4.4-0.9-6.5c-1.4-8.3-2.9-16.6-4.4-24.8c-0.8-4.6-3.4-7.2-8-8.7c-14.4-4.5-28.6-9.5-43-14
		c-2.1-0.6-5.1,0-7,1.2c-12.7,7.8-25.2,16-37.8,24c-13.5,8.6-18.6,5.9-20.6-10.1c-1-8.4-2.5-16.7-3.8-25.1c-0.6-3.7-1.2-7.4-2-11.9
		c0.3,0.2-0.1-0.3-0.6-0.4c-23.7-9.1-47.5-18.2-71.3-27c-1.6-0.6-4.3,0.4-5.8,1.5c-5.1,3.6-10,7.6-15,11.3
		c-8.9,6.6-17.9,13.1-28.1,20.6c-2.9-4.2-7-8.6-9.1-13.8c-5.5-13.6-10.3-27.5-14.8-41.5c-1.1-3.4-2.6-4.8-5.5-5.9
		c-13.3-5.4-26.5-11-39.9-16.3c-13.3-5.3-26.7-10.5-40.2-15.4c-2.3-0.8-5.6-0.7-7.7,0.4c-15.7,8.9-31.1,18.2-46.8,27.1
		c-2.9,1.7-6.6,2.2-8.9,2.9c-0.4-4-0.4-7.1-1.2-10c-2.4-9.1-5.2-18.1-7.7-27.1c-2-7.1-3.9-14.2,0-21.4
		c-13.4-5.4-26.3-10.6-40.4-16.2c2.7,8.6,5,16,7.4,23.3c7.7,23.8,15.3,47.7,23.2,71.4C446.9,430.5,450.3,436.2,453.3,442.7z
		 M762.2,199.4c9.3,0.2,10.3-1,9.1-8.8c-0.7-4.4-1.2-8.8-1.7-13.1c-2.8-23.4-3.6-47-10.1-69.9c-7.4-26.3-18.4-50.2-41-66.8
		c-21.9-16.1-45.3-27-73.8-27.7c-32.2-0.8-59.1,10.6-83.7,29c-21.5,16.2-42.1,33.8-62.5,51.5c-16.1,14-31.4,28.9-46.9,43.6
		c-1,0.9-2,3.1-1.5,4c3.3,6.6,6.9,13.1,10.9,20.3c5.7-5.7,10.6-10.7,15.5-15.5c-6.6-9.1-6.6-9.1-4.9-15.1c3.6,4.5,6.6,8.2,9.4,11.8
		c10.5-11,20.5-21.7,30.8-32.1c13.5-13.5,27.3-26.7,40.8-40.2c2-1.9,3.4-4.4,4.5-5.9c4.8-2.2,9.2-4.2,13.7-6.2
		c0.2,0.3,0.3,0.5,0.5,0.8c-2.2,2.4-4.3,4.7-6.4,7c16.3,17.6,118.2,61.8,144.4,62.4c-0.3-2.7-0.6-5.4-1-8c-0.6-4-1.4-8-2-12
		c-0.8-5.2-1.1-10.6-2.7-15.5c-0.7-2.2-3.7-4.4-6.2-5.3c-4.8-1.8-10.1-2.4-14.8-4.2c-11.1-4.2-22.3-8.3-33-13.5
		c-14.2-6.9-28.2-14.2-41.7-22.4c-6.3-3.8-11.6-8.9-19.3-3.8c-0.1,0-0.3-0.2-0.6-0.4c2.7-3.1,5.4-6.3,8.6-10.1
		c28.9,25.3,65.6,36.6,101.2,50c0.9-0.6,1.9-1.2,2.8-1.9c-2.8-3.9-5.6-7.8-8.3-11.8c1-0.5,1.9-1,2.9-1.4c4.3,6.7,8.6,13.5,12.8,20.1
		c-0.7,8.2,4,15.5,5.9,23.4c2,8,5,15.8,6.5,23.9c1.5,8,1.7,16.2,2.4,24.3c1,0,2,0.1,2.9,0.1c0.7-4.2,1.6-8.4,2.2-12.6
		c0.3-2.5-0.2-5.2,0.2-7.7c0.2-1.6,1.3-3.1,2.1-4.7c0.5,0.2,1.1,0.3,1.6,0.5c0,6,0,12-0.2,17.9c-0.1,1.5-0.8,3.3-1.8,4.5
		c-3.7,4.4-0.8,5.1,3,5.7c0.9-2.2,1.7-4.1,2.5-6.1c-0.1,5.1,0.6,9.2,7.4,10.8c-3,0.3-4.6,0.5-6.9,0.7c0,10.3,0,20.4,0,30.4
		c3.4-6.3-0.3-13.8,4.4-21.2c2.7,8.4-1.1,16.5,4.1,23.2c1.1-2,1.7-4,1.7-5.9c0.2-30.5-1.9-60.7-9.7-90.3c-0.5-1.8-0.1-3.8-0.1-5.7
		c0.7-0.1,1.5-0.2,2.2-0.3c1.1,3.4,3.2,6.8,3,10.1c-0.5,11.3,3.6,21.6,5.7,32.3c0.8,3.8,1.3,7.6,1.5,11.5
		c0.8,14.7,1.3,29.4,2.2,44.1c0.1,1.4,2.1,3.6,3.5,4c2.9,0.7,3.6-1.6,3.3-4.2c-0.2-1.6,0.1-3.3-0.1-5c-2.9-25.2-5.6-50.4-8.8-75.6
		c-1.7-13.4-4.2-26.6-6.3-39.9c0.6-0.1,1.1-0.2,1.7-0.3C753.2,116.6,760.7,157.3,762.2,199.4z M197.2,222.4c-2.9-1.7-5-2.9-7-4.1
		c-5.4-3.2-10.7-6.6-16.2-9.5c-1.5-0.8-3.8-0.4-5.6,0c-0.5,0.1-1.2,2.9-0.7,3.3c3.7,3.6,1,7.6,0.8,11.4c-1,26.2-1.5,52.4,1.4,78.6
		c0.2,1.5,0.7,3,1.1,4.9c1.2-0.5,1.9-0.7,2.5-1c13.3-6.2,26.5-12.8,40-18.4c17.4-7.2,35.2-13.5,52.8-20.3c8.3-3.2,8.3-2.9,9.2,6
		c0.9,8.5,2.3,17.2,5.1,25.2c6.7,19.5,14.3,38.7,21.4,58c2.4,6.5,4.5,13.1,6.7,19.8c10-5.7,18.9-11.5,28.5-16.1
		c19.4-9.4,39.1-18,58.6-27.2c3.4-1.6,6.3-4.5,10.4-7.6c-10.5-5-19.5-9.4-28.7-13.7c-0.8-0.4-2.3-0.2-3.1,0.3
		c-12.2,6.5-24.3,13.1-36.4,19.6c-4.3,2.3-8.8,4.2-12.8,6.9c-4.4,2.9-6.3,0.6-6.8-3.2c-2.2-16.6-4.3-33.2-5.9-49.8
		c-0.3-3.5-1.1-5.2-4.1-6.7c-20-9.8-39.7-20.2-60-29.4c-4.3-1.9-11.3-1.2-15.6,1c-7.7,3.9-14.2,10-21.6,14.7
		c-4.8,3.1-9.9,5.6-15.2,7.7c-3.3,1.3-5.9,0.4-5.9-4.4c0.2-12.5,0.1-25-0.2-37.4C189.9,226,192,223.3,197.2,222.4z M100.4,124.6
		c-0.4,0.9-0.9,1.6-0.7,1.9c4.6,7.6,8.1,16.3,14.1,22.7c23.3,24.6,50.1,44.9,79.5,61.6c20.6,11.7,41.7,22.5,62.7,33.4
		c12.4,6.4,25.2,12.2,37.8,18.2c10.8,5.1,21.7,10.1,32.4,15.4c5.1,2.5,9.7,5.9,14.8,8.2c10.3,4.5,20.8,8.3,31.1,12.8
		c10.3,4.4,20.5,9.1,30.6,14c6.3,3,12.1,6.9,18.5,9.6c17.3,7.2,35.1,13.5,52.3,21c67.9,29.6,137.3,55.2,207.1,79.8
		c39.2,13.8,78.3,27.8,117.5,41.7c1.4,0.5,2.7,1.1,4.1,1.5c16.2,5.6,32.1,11.9,48.5,16.5c23.3,6.5,47.2,11.2,70.6,17.7
		c27.8,7.7,56.3,8.8,84.8,9.5c10.8,0.3,21.3-1,30.8-7c0.7-0.4,1.2-1.2,1.6-1.6c-8.6,0.8-16.9,1.6-25.3,2.4c-0.1-0.7-0.2-1.3-0.4-2
		c1.8-1,3.6-1.9,6.6-3.5c-2.4,0.1-3.7,0.1-4.8,0.3c-35,6.8-69.1,0.6-102.9-7.8c-23.9-5.9-47.5-12.8-71.1-19.8
		c-21.9-6.5-43.8-13.1-65.3-20.6c-32.4-11.3-64.7-23.4-96.9-35.4c-39.9-14.9-79.7-29.9-119.4-45.1c-17.5-6.7-34.9-14-52.3-21.1
		c-17.4-7.1-34.9-13.9-52.2-21.4c-17-7.4-34-14.6-50.7-22.7c-13.1-6.4-26.5-11.9-39.9-17.8c-17.9-7.8-36.1-15-53.6-23.5
		c-17-8.2-33.4-17.6-50.2-26.3c-16.3-8.5-32.8-16.7-49-25.4c-8.7-4.7-16.9-10.3-25.3-15.5c-8.9-5.4-18.5-10-26.6-16.4
		c-14.4-11.4-27.8-24-39.1-38.7c-0.2-0.2-0.6-0.3-1-0.5c-0.3,1-0.6,1.9-1.1,3.3c-2-1.6-4.1-2.6-5.5-4.2
		C108.6,135,104.7,129.9,100.4,124.6z M289.7,207.6c-0.3-3.1-0.5-5.8-0.7-8.5c-2,0.7-4.1,1.4-5.9,2.1c-0.9-2-1.2-5.3-2.8-6.2
		c-6.2-3.5-12.7-6.3-19.3-9.1c-1.4-0.6-3.5,0.2-5.4,0.4c-1.7-3.8-25.9-13-31.9-11.7c0.2,3.2,0.7,6.5,0.5,9.7c-0.2,3.5,1.3,5,4.5,5.8
		c3.4,0.9,6.7,1.9,10,3.2c5.6,2.1,11,4.4,16.5,6.6c-0.2,0.6-0.5,1.2-0.7,1.8c-17.3-5-34.5-10-51.8-15c-2.2,6.1-0.5,9.1,3.6,11.5
		c11.3,6.4,23.1,11.2,35.8,14c11.4,2.5,22.6,6.2,33.9,9.6c1.7,0.5,3.2,1.9,4.7,2.8c-0.2,0.6-0.5,1.2-0.7,1.8
		c-6.4-1.9-12.8-3.9-19.2-5.6c-6.4-1.7-12.9-3.1-19.4-4.6c-0.2,0.5-0.4,1-0.6,1.5c2,1.1,3.9,2.4,5.9,3.4c9.7,4.9,19.5,9.4,29,14.6
		c17,9.4,40-2.5,42-21.6c-4.5-2.6-8.9-5.1-13.3-7.6C296.2,201.9,296.2,201.9,289.7,207.6z M543,84.6
		c54.9,35.4,115.8,52.2,176.2,74.9c-1.4-8.2-2.4-14.5-3.4-20.8c-0.4,0-0.7,0.1-1.1,0.1c-0.4,4.1-0.9,8.2-1.3,12.3
		c-0.5,0-0.9-0.1-1.4-0.1c-0.4-4.2-0.4-8.4-1.4-12.5c-0.5-2.1-2.5-4.8-4.4-5.3c-11.6-3.3-23.5-5.7-35-9.2
		c-38.5-11.9-75.6-26.8-107.7-52c-1.2-0.9-4.1-1.3-5.1-0.5C553.4,75.3,548.8,79.5,543,84.6z M90.1,123.9
		c-11.7,34.3-17.9,69-13.2,105.9c28-10.4,53.6-27.1,84.7-27.2c-6.9-5.6-13.9-9.9-20.5-14.8c-3.2-2.4-6.1-3-9.7-1.6
		c-10.6,4-21.4,7.5-31.9,11.9c-8.5,3.5-11.1,2.5-11.3-6.8c-0.2-14.5,1.7-28.8,7.2-42.2C99.8,138.6,93.7,131.8,90.1,123.9z
		 M26.3,240.3c-0.5,0.4-1,0.7-1.5,1.1c1.2,2,2.3,4,3.6,5.8c17.9,25.4,37.5,49.5,59.5,71.6c20.9,21,42.1,41.9,67.3,57.7
		c33.7,21,68,40.9,102.1,61.2c1.3,0.8,2.9,1.2,4.7,1.9c0.8-4.8-0.4-8.3-4-10.5c-3.5-2.2-7.3-4.1-10.9-6.1
		c-23-12.3-46.7-23.5-69-36.9c-40.8-24.6-73.7-58.8-106.2-93c-5.8-6.1-9.1-14.5-13.8-21.8c-1.3-2-3.8-5.3-5-5.1
		c-5.6,1.3-6.9-2.4-8-6.1C42.1,250.1,33.5,245.9,26.3,240.3z M401.6,165.7c0.2-0.7,0.4-1.4,0.6-2c-2-1.1-3.9-2.5-6-3.2
		c-25.5-8.4-50.9-17.1-76.5-24.9c-34.9-10.5-70-20.4-105.1-30.2c-14.3-4-28.8-7.3-43.4-10.5c-9.9-2.2-19.8-3.7-29.8-5.5
		c-9.6-1.7-19-0.5-28.2,2.7c-1.3,0.4-2.6,1.4-3.3,2.6c-2.3,3.3-4.5,6.7-6.2,10.4c-1.1,2.2-1.9,5-1.5,7.3c1.1,7.1,5.4,12.7,10.4,17.7
		c0-1.4-0.4-2.6-0.8-3.8c-2.7-8.7-3-17.4,1.2-25.7c0.9-1.8,3.1-3.9,5-4.3c18.9-3.7,37.8-0.9,56.2,2.8c23.4,4.8,46.6,10.9,69.5,17.6
		c38.6,11.4,77,23.6,115.4,35.6c12.3,3.9,24.4,8.4,36.6,12.6C397.5,165.6,399.6,165.5,401.6,165.7z M99.5,91.1
		c-9.6,1.8-19.2,2-27.4,5.5c-12.5,5.3-24,12.7-35.8,19.6c-2.7,1.6-5.2,4.3-6.8,7c-2.8,5.1-4.9,10.7-7.2,16.1
		c-0.7,1.7-1.1,3.5-1.7,5.8c19.9-9.4,28.8-31.3,49.6-38.3c-7.2,7-14.3,14.1-21.5,21.1c0.4,0.7,0.9,1.4,1.3,2.1
		c12.6-6.3,25.4-12.1,38.6-12C92.4,108.9,95.8,100.5,99.5,91.1z M458.9,347.3c0,17.6,6,32.5,11,48.2c15.4-8.6,29.9-16.7,45.7-25.5
		C495.8,362.1,477.8,354.9,458.9,347.3z M336.7,404.7c-0.1,0.6-0.1,1.2-0.2,1.8c19.6,7.9,39.2,15.7,59.2,23.7
		c-0.7-2.6-1.2-5.2-2-7.6c-3.5-9.9-7-19.7-10.6-29.6c-3.9-10.7-2.5-9.2-11.9-5C359.6,393.2,348.2,399.1,336.7,404.7z M833,543.4
		c-15.2,10.1-28.9,19.1-42.9,28.4c17.8,10.6,36.9,11.6,56.7,15C842.1,571.9,837.7,558.3,833,543.4z M379.8,216.9
		c6.9-5.2,12.6-9.4,18.1-13.5c-3-4.8-5.4-8.7-7.7-12.4c-14.3,10-28.2,19.7-42,29.4c2.2,4.3,4.2,8.2,6.2,12.2
		c-0.8,0.6-1.6,1.2-2.4,1.8c-2.5-2.3-5.6-4.1-7.4-6.9c-2.3-3.5-4.5-3.8-7.7-1.9c-1.8,1-3.6,1.8-5.3,2.9c-12.4,8.5-12.1,5.6-2.4,18.2
		c2.5,3.2,4.6,3.2,7.8,0.9c13.3-9.7,26.8-19.2,39.8-28.5c-0.2-3.4-0.4-6.5-0.6-9.5c0.7-0.1,1.5-0.2,2.2-0.4
		C378.7,211.3,379.1,213.4,379.8,216.9z M675,430c-19-6.6-36.9-12.7-54.8-18.9c-0.4,0.4-0.8,0.7-1.2,1.1c5.8,15.5,11.6,31,17.5,46.8
		C649.7,449.1,661.7,440,675,430z M663.7,536.7c0.1,0.6,0.1,1.2,0.2,1.9c18.4,5.5,36.9,11.1,56.4,16.9c-6-16-11.3-30.2-17-45.4
		C689.3,519.4,676.5,528.1,663.7,536.7z M1026.2,496.7c7.2,0.1,17.6-2.2,20.5-7c3.4-5.7,6.9-13.4,5.6-19.2
		c-1.5-6.7-7-13.7-12.7-18.1c-11.2-8.7-23.5-16.1-35.7-23.4c-23.6-14-47.1-28-71.3-40.9c-32.3-17.2-65.2-33.2-97.8-49.7
		c-1.6-0.8-3.6-1-5.4-1.5c-0.3,0.6-0.7,1.2-1,1.8c1.6,1.3,3.1,2.8,5,3.7c9.7,4.8,19.6,9.2,29.2,14.1c31.7,16.1,63.6,31.8,94.8,48.6
		c20.3,10.9,40,23.2,59.5,35.6c10,6.4,18.8,14.4,25.8,24.5c5.2,7.5,6,11.8-0.2,18.9c-2.3,2.6-5,4.8-7.7,6.9
		C1032,493,1029.1,494.7,1026.2,496.7z M205.5,335.9c2.6,1.9,4,3.4,5.8,4.2c6.1,2.8,12.5,5,18.3,8.2c9.8,5.4,19.2,11.5,28.9,17.1
		c2,1.2,4.5,1.5,6.8,2.2c0.3-0.4,0.6-0.8,0.9-1.3c-5.5-10-11-19.9-16.4-29.9c-2.7-4.9-7.3-8.9-6.3-15.4c0.2-1.2-1.2-3.4-2.4-3.9
		c-0.9-0.4-2.7,1-4,1.7c-1.6,0.9-2.9,2.2-4.5,3C223.9,326.4,215.3,330.8,205.5,335.9z M368.5,306.8c-16.7-7.3-32.8-14.4-50-21.9
		c2,16.3,3.9,31.4,5.8,46.6C339.2,323.2,353.2,315.3,368.5,306.8z M771.7,507.2c14.7-9.3,28.9-18.3,44.3-28.1
		c-18.5-5.7-35.3-11-52.1-16.2C766.5,477.6,768.9,491.6,771.7,507.2z M505.3,478.4c18.6,7.5,35.8,14.3,50.7,20.3
		c-5.2-13.7-10.9-28.4-16.8-43.8C528,462.7,517.2,470.2,505.3,478.4z M875.9,444.5c-0.1,0.7-0.3,1.3-0.4,2
		c-13.8,1-27.5,1.9-41.7,2.9c0.8,0.7,1,1.2,1.3,1.2c11.9-0.5,23.7-1.1,35.6-1.3c4.1-0.1,8.7-0.1,12.2,1.5
		c10.3,4.7,20.3,10.2,30.3,15.6c5.2,2.8,10.1,6,15,9.2c1.5,1,2.4,2.7,3.6,4.1c-0.3,0.4-0.7,0.8-1,1.1c-2-1.1-4-2.2-6-3.4
		c-1.9-1.1-3.8-3.2-5.7-3.1c-5.3,0.1-10.6,1.1-15.9,1.7c17.7,9,37.3,10.7,56.5,14c-2-1.5-5.2-2.2-6.1-4
		c-4.9-9.5-12.3-16.3-21.9-20.6c-10-4.4-20.2-8.4-30.3-12.5c-9-3.7-18.1-7.3-27-10.8C874.7,442.7,875.3,443.6,875.9,444.5z
		 M191,345.8c0.6-4.2,3.3-7.3-1.6-9.9c-7.6-4.1-14.8-8.8-22.3-13.2c-5.1-3-10.2-5.9-16.6-9.7c2.2,7.3,4.6,12.7,5.4,18.4
		c0.5,3.8,2,5.8,5,7.7c6.8,4.4,13.2,9.3,20.1,13.6c13.1,8.3,26.5,16.3,40.2,24.8c-0.6-12.2-7.6-18.9-23-23.2
		c-0.3,2.2-0.6,4.4-1.1,8.3c-1.5-2.8-2.6-4-2.7-5.3c-0.6-6.8-5.2-9.9-10.5-13c-5.8-3.3-11.2-7.4-16.8-11.1c0.2-0.4,0.5-0.8,0.7-1.1
		C175.3,336.5,182.8,340.9,191,345.8z M1063.4,528.7c3.2-12.1,2.9-22.3-1.1-32.4c-0.8-1.9-1-4-1.5-6c0.7-0.1,1.3-0.3,2-0.4
		c15.3,23.6,27.1,48.1,20.6,77.9c5.4-10.9,10.7-21.4,6.3-33.8c-3.9-10.9-5.9-22.6-10.6-33.1c-3.8-8.4-10.6-15.5-16-23.2
		c-0.5,0.1-0.9,0.3-1.4,0.4c-0.8,10-5.2,18.3-11.3,25.8c-0.5,0.7-0.7,2.3-0.3,3C1054,513.8,1058.3,520.5,1063.4,528.7z M102,250.9
		c-5-4-9.6-7.1-13.5-10.9c-3.5-3.4-6.5-5.2-11.6-2.9c-4.5,2-5.5-0.1-5.9-5c-0.6-6.8-1.6-13.8-4.2-20.1c-2.3-5.6-6.9-10.3-10.4-15.4
		c-1.7-2.5-3.4-5-5.6-8.3c-2.2,5.3-2.4,9,0.6,12.8c2.7,3.5,4.7,7.4,7.1,11.1c-0.4,0.2-0.7,0.4-1.1,0.7c-2.5-2.6-4.9-5.2-8.5-9
		c0.1,5.9-0.1,9.9,0.4,13.9c0.2,2,1,4.4,2.4,5.6c12.6,11,25.4,21.8,38.1,32.7c2.3,1.9,4.2,1.8,6.3-0.2
		C97.9,254.4,99.7,252.9,102,250.9z M52.6,153.2c-2,0.5-2.9,0.6-3.6,1c-7,4.5-14.1,8.7-20.7,13.7c-2.2,1.7-3.7,5.1-4.2,8
		c-1.3,8-1.7,16,4.8,22.6c2.8,2.9,4.8,6.5,7.3,9.7c1.1,1.4,2.7,2.5,5.3,4.8C41.8,191.6,44.1,172.2,52.6,153.2z M884.9,385.2
		c-0.2,0.5-0.4,1-0.6,1.5c12,4.8,23.9,9.7,35.9,14.3c1.6,0.6,3.6,0.1,5.5,0.1c-1-1.5-1.6-3.6-3-4.3c-23.2-12-46.5-23.8-69.8-35.6
		c-2.7-1.4-5.1-2.1-6.5,1.9c-1.2,3.4-2.1,6,2.6,7.7C861,375.4,872.9,380.4,884.9,385.2z M125.9,122.9c2.6-6.9,7.3-5,11.2-5.5
		c1.8-0.2,4.8-0.7,5-1.6c0.9-3.9,1-8.1,1.1-12.1c0-0.3-2.6-1-4-0.9c-4.5,0.6-9.1,1.4-13.6,2.4c-2.9,0.6-8.9,11.6-8,14.4
		c4.5,13.5,14.6,22.8,25,33.2c-0.3-9.2-0.8-17.2-0.6-25.1c0.1-4.5-1.6-5.5-5.5-5.1C133.3,122.8,130.1,122.8,125.9,122.9z
		 M197.7,223.4c-0.7,14.7-1.4,27.9-2.1,41.2c10.9-12.2,26-14.8,40-21.4C222.9,236.5,211.2,230.4,197.7,223.4z M163.3,307.9
		c0.4-0.3,0.9-0.5,1.3-0.8c-0.6-4.1-1.3-8.1-1.7-12.2c-0.3-3.5-2-5.4-5.1-7.1c-5.7-3.2-11.1-7.1-16.5-10.9c-1.2-0.9-1.9-2.5-2.9-3.7
		c0.4-0.4,0.7-0.7,1.1-1.1c7,4.9,14,9.8,21.2,14.8c2.3-6.8-0.6-10.2-4.8-13.5c-5.2-4.1-10-8.7-15-13c-1.3-1.1-2.8-1.9-4.2-2.8
		c-0.6,0.3-1.1,0.5-1.7,0.8c0.6,8.2,1.5,16.3,1.8,24.5c0.2,5.2,1.4,9,6.4,11.9C150.2,298.6,156.6,303.5,163.3,307.9z M775.9,371.1
		c8.4-5.2,10.2-9.4,9.1-17.6c-1.8-13.6-3.4-27.2-5-40.8c-0.3-2.7,0-5.8-4.2-5.6c-5.5,0.3-8.5,2.7-8,7.1c1.5,12.9,2.9,25.9,4.7,38.8
		C773.2,358.8,774.6,364.6,775.9,371.1z M98.3,262.9c11.4,8.1,21.8,15.5,32.7,23.3c-0.7-15.2-1.3-29.1-2-43.9
		C118.8,249.1,109.2,255.5,98.3,262.9z M95.1,192.1c11.6-4.5,22.2-8.6,32.4-12.6c-8.8-9.9-17-19.2-25.6-28.9
		C96.2,164,95.8,177.5,95.1,192.1z M940.3,566.5c-10.6,10.5-20.7,20.4-31.1,30.7c11.4,1.7,22.7,3.4,34.6,5.2
		C944.1,589.9,946.1,578.1,940.3,566.5z M1014.2,626.5c0-0.6,0-1.1-0.1-1.7c-1.3-0.1-2.5-0.3-3.8-0.3c-34.8,0-69.5-2.3-103.7-9.6
		c-4.8-1-8.7,1.1-11.6,6.5C935.3,624.9,974.5,633.6,1014.2,626.5z M1062.8,606.5c-10.6,2.5-20.4,5.8-30.4,7
		c-41.8,5-83.3,1.2-124.6-5.7c-2.5-0.4-5-1-7.5-1.5c-0.1,0.7-0.3,1.4-0.4,2c6.2,1.2,12.3,2.4,18.5,3.5c40.9,7.2,82.2,8.5,123.6,7.9
		C1051.2,619.6,1057.2,613.4,1062.8,606.5z M921.5,407.1c-5.6-2.2-10.9-4.3-16.1-6.5c-19.7-8.1-39.4-16.4-59.1-24.4
		c-1.3-0.5-3.2-0.5-4.5,0c-0.7,0.3-1.4,2.7-1,3.3c0.8,1.2,2.4,2.1,3.8,2.8c22.3,10,44.6,20,66.9,30.1
		C918.1,415.3,918,415.3,921.5,407.1z M773.3,203.7c-11,1.4-11.1,1.5-11,10.7c0.2,11.8,0.4,23.5,0.7,35.3c0,1.7,0.5,3.4,0.8,5.8
		c4.9-2.4,11.6-2,11.6-7.9C775.4,233,774.1,218.6,773.3,203.7z M998.2,439.1c-8.8,10.9-17.1,21.1-25.2,31.5c-1,1.2-0.8,3.4-1.1,5.1
		c1.6-0.5,3.6-0.6,4.6-1.6c7-7.5,13.6-15.2,20.5-22.8c1.4-1.6,3.2-2.8,4.8-4.2c0.4,0.4,0.9,0.8,1.3,1.3c-1.1,2-2,4.2-3.5,5.8
		c-7.4,8.4-14.8,16.7-22.4,24.8c-2.3,2.5-3.6,4.5,0.1,7.4c11.7-12.6,23.3-25.1,35.7-38.3C1007.3,444.6,1002.6,441.7,998.2,439.1z
		 M850.6,437.1c0,0.7,0,1.3,0,2c3.3-0.1,7,0.8,9.9-0.3c10.6-4.4,19.7-0.1,29,3.9c2,0.9,4.1,1.7,6.2,2.2c1,0.3,2.2-0.2,3.3-0.4
		c0.2-0.6,0.4-1.2,0.6-1.8c-5.3-2.5-10.6-4.9-15.9-7.4c0.2-0.6,0.4-1.1,0.6-1.7c4.4,1.4,8.9,2.6,13.3,4.2c3.9,1.4,6.4,0.9,7.3-4
		c-1.8-0.9-3.5-2-5.3-2.7c-10-4.1-20.1-8.2-30.1-12.3c-2.8-1.1-5.5-2.6-6.8,2.1c-1,3.6-2.2,6.5,3.1,7.9c4.1,1,8,3.1,12,4.7
		c-0.1,0.5-0.3,0.9-0.4,1.4C868.4,434.7,859.2,432.9,850.6,437.1z M35.2,239.6c0.4-0.3,0.9-0.6,1.3-0.9c-1.3-6-2.3-12.1-4-18.1
		c-0.8-3-2.3-6.1-4.3-8.5c-7.2-8.3-12.8-17.5-15.9-28c-0.5-1.7-1.1-3.3-1.7-4.9c-1.4,2.6-1.8,5.1-1.4,7.5c1.4,7.9,4.1,15.8,4.6,23.7
		c0.6,9,5.3,14.9,11.6,20.3C28.7,233.6,32,236.6,35.2,239.6z M868.7,401.1c0.3,4.5-6.3,8.6,0.7,11.8c11.9,5.4,24,10.4,36,15.3
		c1.2,0.5,3.5,0.3,4.2-0.6c1.9-2.3,3.2-5.1,5-8.1C899.1,413.2,884.5,407.4,868.7,401.1z M973.4,449.6c-1.1-0.8-2.2-1.8-3.5-2.4
		c-11.3-5.8-22.5-11.7-33.8-17.4c-8.3-4.2-9.4-3.6-12,6c1.1,0.7,2.3,1.5,3.6,2.1c11.4,5.5,22.9,11,34.3,16.5
		C969,457.8,969.9,457.4,973.4,449.6z M281.5,135.7c-31.1-7.9-61.2-15.6-91.3-23.2c-2.1-0.5-5.1-2.3-5.5,1.6
		c-0.1,0.9,2.8,2.7,4.5,3.2c18.8,5,37.7,9.5,56.4,14.8c10.6,3,20.9,7.1,31.3,10.8c3.7,1.3,5.3-0.8,6.1-3.5
		C283.4,138.3,282,136.7,281.5,135.7z M766.6,301.4c10.8,1.2,12.2,0,11.5-9.4c-0.2-2.2-0.2-4.4-0.4-6.6c-0.6-8.3-1.3-16.7-1.9-24.6
		c-3.1-0.6-5.2-1-7.4-1.5c-3-0.6-4.8,0.4-4.6,3.6C764.7,275.8,765.7,288.7,766.6,301.4z M729.6,412.3c-0.7,10.9,0.2,12.2,10.1,15
		c6.2,1.7,12.3,3.8,18.5,5.4c1.9,0.5,4,0.3,6.4,0.5c-0.9-5.3-1.4-9.7-2.5-13.9c-0.4-1.5-2.3-3.6-3.7-3.8
		C749,414.2,739.5,413.3,729.6,412.3z M943.6,417.4c-0.1,0.1-0.1,0.2-0.2,0.2c-1.4-0.5-2.8-1-4.1-1.7c-3.1-1.7-5.1-0.8-6.6,2.3
		c-1.7,3.2,0,4.6,2.6,6c12.7,7,25.4,14.1,37.9,21.3c4.5,2.6,5.6-1.2,7-3.5c0.6-1-0.5-4.2-1.7-4.9C967,430.4,955.3,424,943.6,417.4z
		 M804.9,436.2c-2.6-10-4.9-18.9-7.2-27.7c-6.6,2-12,3.6-17.9,5.3c0.4,2.6,0.6,5.3,1.2,8c2.7,13.4,2.7,13.4,16.3,14.1
		C799.3,436,801.3,436.1,804.9,436.2z M156.4,244c-0.4,0.5-0.8,1-1.2,1.6c-2-1-4.4-1.6-6-3c-7.6-7.1-15.1-14.4-22.4-21.9
		c-2.4-2.5-4.1-3.6-6.1-0.9c6.3,7.4,11.9,15.1,18.7,21.7c6.1,5.9,13.4,10.5,21.3,16.5c0.3-6.7,0.6-12,0.7-17.2c0-0.9-0.9-2-1.6-2.6
		c-7.7-7-15.6-13.7-23.3-20.8c-2.6-2.4-4.7-3.2-8.1,0C137.9,226.3,147.2,235.2,156.4,244z M965.6,635c-12.8-1.2-25.5-2.4-38.3-3.7
		c-12.7-1.3-25.4-3.1-38.1-4.2c-2.6-0.2-5.4,1.8-9.3,3.2C894,637,946.6,639.8,965.6,635z M729.9,165.8c-0.7,0.3-1.5,0.6-2.2,0.9
		c-0.2,2.5-0.5,5.1-0.6,7.6c-0.2,9.3-0.1,18.6-0.5,27.9c-0.7,15.2-1.9,30.4-2.6,45.6c-0.1,1.3,2,2.7,3,4.1c1.1-1.3,3.2-2.5,3.2-3.8
		c0.9-25.5,1.6-50.9,2.1-76.4C732.4,169.8,730.8,167.8,729.9,165.8z M978.9,521.7c2.3,9.1,4.5,17.9,7.1,28
		c9.2-10.5,17.2-19.7,25.9-29.6C1000.1,520.7,989.8,521.1,978.9,521.7z M787.6,371.1c-13.3,3.4-10,13.2-10.3,21.6
		c-0.8-2.1-1.6-4.1-2.4-6.2c-0.1,5.5,1.2,10.6,2.2,15.8c0.7,3.5,2.4,4.7,5.8,3.7c1.9-0.6,4-0.8,5.9-1.6c4-1.6,6.3-3.9,4.7-8.9
		c-1.9-6-3.1-12.1-4.6-18.2C788.4,375.2,788,373,787.6,371.1z M751,206.9c1.3,32,2.7,63.3,8.6,94.1c0.5,0,1.1-0.1,1.6-0.1
		c-1.5-31.7-3-63.5-4.5-95.7C754.5,205.8,752.5,206.5,751,206.9z M251.6,138.5c-14.5-4.5-28.8-9-43.2-13.4c-2.5-0.8-5.5-2.3-6.6,2
		c-0.9,3.6-0.5,6,4,7.2c12.4,3.3,24.7,7.1,37,10.8C249.5,147.2,250,147.1,251.6,138.5z M722.3,197.4c0.6-9.8,1.3-19.1,1.7-28.3
		c0.2-3.8-10.2-9.4-13.5-7.4c-0.9,0.5-1.7,2.1-1.6,3.1c0.1,9,0.4,18,0.9,27c0.1,1.1,1.9,2.1,3,3.1c0.8-1.2,2.2-2.3,2.3-3.6
		c0.4-2.9,0.1-5.9,0.2-8.8C719.2,196.6,719.2,196.6,722.3,197.4z M885.1,500.8c2.2,11.4,4.2,21.7,6.5,33.6
		c7.1-9.6,13.3-17.8,20.1-27.1C902,504.9,894.1,503,885.1,500.8z M212.5,140.5c-1.6,10.9-1.6,10.8,7.2,13.7
		c6.3,2.1,12.5,4.5,18.7,6.8c5.9,2.2,6.3,1.9,7.7-4.1c0.9-4,0-6.2-4.3-7.1c-4.1-0.9-8.1-2.4-12.1-3.7
		C224.1,144.3,218.5,142.5,212.5,140.5z M67.7,128.1c-8.5,2.6-8.4,2.6-6.9,10.8c0.4,2,0.7,4,0.6,5.9c-0.7,8.1,5.9,12.6,8.6,20.3
		C75,151.4,78.2,139.2,67.7,128.1z M327.2,159.6c1.2,4.4,6.2,5,10.1,5c2.1,0,4.2-4,6.5-6.5c-11.9-4.8-22.5-9.2-33.3-13
		c-0.9-0.3-3.7,3-4.7,5.1c-0.4,0.9,1.1,3.7,2.3,4.3c3.6,1.7,7.4,3,11.2,4.1C321.8,159.2,324.3,159.2,327.2,159.6z M993.8,604.3
		c0.2,0.6,0.4,1.2,0.6,1.7c7.1,0,14.2,0.1,21.3-0.1c1.1,0,2.9-0.9,3.1-1.7c1.5-7.4,3-14.9,0.9-23.4
		C1010.5,589.1,1002.1,596.7,993.8,604.3z M722.1,568.5c-0.1,0.9-0.1,1.7-0.2,2.6c30.8,6.8,61.6,13.6,92.4,20.4
		c0.1-0.6,0.3-1.1,0.4-1.7c-3.8-1-7.6-2-11.3-3c-23-6.2-46-12.5-69.1-18.3C730.5,567.5,726.2,568.5,722.1,568.5z M965.8,457.9
		c-13.8-5.5-27.2-10.9-40.7-16.3c-2.5-1-5.3-2.3-6.3,1.2c-0.3,1.1,2.1,3.6,3.7,4.5c10.5,5.6,21.3,10.7,31.8,16.4
		C960.9,467.3,961.9,467.2,965.8,457.9z M371.1,496.1c7.4,6.2,24.6,8.5,31.4,4.9c-9.9-4.7-19.7-9.3-29.5-13.9
		c-6.8-3.2-13.4-0.5-21.1,0.3c10.1,8.2,21.4,5.7,31.6,8.3C379.9,495.8,376.1,495.9,371.1,496.1z M851.4,397.7
		c-2.5,7,1.1,8.6,5.1,10.2c3.1,1.2,5.4,1.2,6.4-2.5c0.9-3.3,3.1-6.7-2.1-8.6c-6.4-2.4-12.6-5.2-19-7.5c-1.6-0.6-4.6-0.6-5.2,0.3
		c-1.5,2.4-2,5.4-2.9,8.1c0.6,0.2,1.3,0.5,1.9,0.7c1.1-1.8,2.1-3.5,3.2-5.3c0.2,0.1,0.3,0.1,0.5,0.2c-0.5,2-1.1,3.9-1.6,5.8
		C845.3,403.6,845.5,403.6,851.4,397.7z M731.5,301.7c-0.5-12.9-0.8-25.8-1.5-38.7c-0.1-1.5-2.3-3-3.5-4.4c-1,1.6-2.9,3.2-2.9,4.8
		c-0.2,10.8,0.3,21.6,0.1,32.4C723.5,300.9,725.7,302.5,731.5,301.7z M116.3,289c4.6,19.9,7.5,25.7,13.7,27.1
		c-1.1-5.1-2.2-10.1-3.3-15c8.4,6.4,4.9,19.5,16.6,25.2c-1.8-7.5-3.3-13.7-4.9-19.8c-0.3-1.2-0.8-2.7-1.7-3.3
		C130.4,298.5,123.9,294.2,116.3,289z M747.4,406c-0.3-0.4-0.7-0.8-1-1.2c1.7-2,3.4-4.1,5.2-5.9c5-4.8,5.3-6.8,1.5-14.7
		c-7,7.3-13.6,14.2-20.3,21.2c0.2,0.5,0.5,1,0.7,1.5c8.4,0.8,16.8,1.5,26.3,2.4c-1.1-3.8-1.8-6.3-2.6-9.2
		C753.5,402.4,750.4,404.2,747.4,406z M162.1,162.6c1.6-1.3,3.7-2.1,4.1-3.4c0.8-2.9,1.2-6.2,0.9-9.2c-1.6-13.1-0.4-26,3.4-38.6
		c0.9-2.9-0.1-4.7-2.8-4.3c-1.3,0.2-2.9,2.4-3.3,4c-4.3,16.1-3.3,32.6-3.3,49C161,160.6,161.4,161.1,162.1,162.6z M296,245.9
		c7.6,4,14.4,8.2,21.8,11.2c2,0.8,5.5-1.7,8.3-2.7c-0.8-2-1.4-4.1-2.5-5.9c-1.7-2.6-3.5-5.2-5.6-7.5c-0.9-1-2.9-2.1-3.9-1.8
		C308.3,241.1,302.7,243.4,296,245.9z M747.5,310.1c1,8.5,1.8,16.5,3,24.5c1,6.7,4,8,11.1,5.2c-1.7-8.4-3.5-16.8-5.1-25.3
		C755.6,309.3,752.6,308.7,747.5,310.1z M114.2,242.1c-3.2-3-6.1-5.6-8.7-8.3c-6.1-6.4-11.6-6.2-18.1,1c5.1,4.4,10.2,8.9,15.4,13.1
		c0.7,0.6,2.5,0.6,3.3,0.1C108.8,246.3,111.3,244.2,114.2,242.1z M421.6,287.7c3-7.4,6.1-14.8,8.9-22.3c2-5.3-3.2-5.7-5.9-7.7
		c-3-2.2-4.6,0.5-5.3,2.6c-2.4,6.7-4.6,13.5-6.5,20.4c-0.3,1.1,1.2,2.6,1.9,3.9c0.9-0.9,2.1-1.7,2.7-2.8c0.6-1.1,0.6-2.5,0.9-3.7
		c1.3-4.9,2.7-9.9,4-14.8c0.5,0.1,0.9,0.2,1.4,0.3C425.2,271.9,418.5,279.7,421.6,287.7z M220.7,163c0.9,1.2,2.1,4.1,4,4.8
		c9.1,3.3,18.5,6,27.8,8.7c1.2,0.3,2.7-0.7,4.1-1.1c-0.8-1.2-1.4-3-2.5-3.4c-3.8-1.6-7.8-2.7-11.6-4.2c-9.8-3.9-19.6-7.8-29.4-11.8
		c-0.6,0.5-1.2,1-1.8,1.4c0.8,3.1,1.6,6.1,2.4,9.2C215.9,165.5,218.2,164.3,220.7,163z M982.9,436c0.3-0.1,1.6-0.5,3-0.9
		c-0.6-1.4-0.9-3.4-1.9-4.1c-16.3-9.4-32.6-18.6-49-27.7c-1.3-0.7-3.4-0.3-5-0.4c1,1.6,1.6,3.8,3,4.6c8.5,4.7,17.4,8.9,25.9,13.7
		C966.6,425.7,974.1,430.6,982.9,436z M674.1,402.3c0.1,0.9,0.2,1.9,0.3,2.8c12.5,4.2,25.1,8.5,37.6,12.7c0.4-0.7,0.9-1.5,1.3-2.2
		c-1.9-1.9-3.7-3.7-5.7-5.7c0.3-0.7,0.9-1.9,2.4-4.9c-4,0.9-6.5,1.5-9.4,2.2c-3.5-9.4-9.9-1-13.3-0.9c-2.1-3-3.2-6.1-4.5-6.1
		C680,400.1,677.1,401.5,674.1,402.3z M753.9,302.7c-1.7-14-3.3-27.7-5.1-41.3c-0.1-1-1.3-1.8-2-2.7c-0.7,1.3-1.9,2.5-1.9,3.8
		c0.5,11.7,1.3,23.5,1.7,35.2C746.7,302.7,748.7,304.2,753.9,302.7z M713.3,400.9c0.8,0.2,1.6,0.5,2.4,0.7
		c3.6-5.1,7.2-10.3,10.8-15.4c0.6,0.2,1.2,0.4,1.8,0.7c-0.6-2.7-1.2-5.4-2-8.8c-2.7,1.7-4.5,2.8-5.3,3.3c-1.1-1.4-1.9-3.4-3-3.6
		c-1.9-0.4-5.4-2-5.4,2C712.4,386.8,713,393.9,713.3,400.9z M724.5,308.6c0.5,8.6,0.9,16.8,1.4,25c0.4,5.6,2.3,6.5,8.2,4.1
		c-0.6-8.1-1.4-16.3-1.9-24.5C731.9,308.3,729.4,307.3,724.5,308.6z M355.9,240.2c0.1,0.7,0.2,1.5,0.2,2.2c2.4,0.6,5.7,2.4,7.1,1.4
		c6.7-4.4,12.9-9.4,19-14.6c0.7-0.6-0.1-3.7-1-5.2c-0.4-0.7-3-0.6-4.2-0.1c-1.9,0.9-3.5,2.6-5.2,3.9
		C366.6,232,361.3,236.1,355.9,240.2z M780,433.8c-0.9-4-1.7-8.1-2.6-12.1c-1.8-8.2-3.3-8.9-11.9-5.1c0.6,3.3,1.1,6.7,1.7,10.1
		C768.5,435,770.6,436.3,780,433.8z M379.6,258.5c0.5,0.8,1,1.6,1.5,2.4c6.1,0.7,8.2-5.2,12.3-9.1c-0.2,3.7-0.4,6.5-0.6,9.4
		c0.6,0.2,1.2,0.3,1.8,0.5c2.3-4.2,4.5-8.4,7.2-13.1c0.9,1.7,1.5,2.8,2.4,4.3c1.9-1.9,3.5-3.6,5-5.2c-6.4-6.3-6.4-6.3-13.1-1.8
		c-1.7,1.1-3.5,2-5.1,3.3C387.1,252.2,383.4,255.4,379.6,258.5z M431.9,228c0-0.7,0-1.4,0-2c-2.5-0.9-6.1-3.3-7.5-2.4
		c-6.1,4.2-11.5,9.3-17.2,14.1c4.8,5.3,6.6,6.2,9.1,4.1C421.6,237.3,426.7,232.6,431.9,228z M814.8,453.9c-2.9-4.6-4.9-7.9-7-11.1
		c-0.6-0.9-1.4-2.1-2.2-2.1c-6.5-0.3-13-0.3-19.5-0.5c-0.3,0.5-0.6,1.1-0.8,1.6c1.6,1.7,2.9,4.3,4.9,5
		C797.8,449.3,805.6,451.3,814.8,453.9z M743.8,205.8c-3.2,11.2,0.4,46.1,3.8,48.2c0.3-3.6,1-6.9,0.9-10.2
		c-0.3-11.1-0.7-22.3-1.4-33.4C746.9,208.8,744.9,207.3,743.8,205.8z M102,317.6c-0.8-11.8-4.4-18.5-10.5-20c0.3,2.1,0.6,4.2,1,7.3
		c-5.8-5.6-5.3-14.8-13.9-17.7C80.7,302.1,92.4,308.4,102,317.6z M993.5,575.5c0.3,0.7,0.6,1.4,0.8,2.1c1.8-0.5,3.7-0.9,5.5-1.4
		c5.1-1.5,10.2-3.8,15.3-4.2c8.8-0.7,15.2-5.5,22-10.1c3-2,2.4-4-0.7-6.9C1024.5,566.6,1008.8,570.8,993.5,575.5z M741.1,301.8
		c0.1-1.5,0.2-2.6,0.1-3.7c-0.1-4.4-0.2-8.8-0.5-13.2c-0.4-7.1-0.7-14.3-1.4-21.4c-0.1-1.5-1.5-2.8-2.3-4.2
		c-0.6,1.4-1.3,2.7-1.6,4.1c-0.2,1,0,2.2,0,3.3c0.3,10.8,0.6,21.6,1.1,32.4c0.1,1.2,1,2.5,1.9,3.4
		C738.8,302.8,740.2,302,741.1,301.8z M137.1,244.3c-0.6,0.3-1.1,0.7-1.7,1c0.4,2.2,0.1,5.3,1.5,6.5c7.4,6.4,15.1,12.4,22.7,18.5
		c0.6-0.4,1.2-0.7,1.8-1.1c-1.2-2.5-1.7-5.7-3.6-7.4C151.2,255.7,144,250.1,137.1,244.3z M709.7,401.4c-0.3-6.5-0.7-13.1-1-19.6
		c-0.3-5.9-1-6.4-7.9-5.1c0.5,3.1,1.4,6.2,1.5,9.4c0.2,3.3-0.3,6.7-0.5,10C701.7,401.6,703.2,402.7,709.7,401.4z M425.1,296.9
		c-2.8,4.9-2.8,7.6,2.5,9.4c10.4,3.6,20.7,7.5,31.1,11.3c0.8,0.3,1.8,0.3,2.6,0.5c0.1-0.3,0.1-0.6,0.2-0.9
		C449.4,310.5,437.3,303.8,425.1,296.9z M745.6,339.5c-1-9.3-1.9-18.4-3.1-27.5c-0.2-1.6-2-3-3-4.5c-0.6,0.3-1.2,0.5-1.8,0.8
		c-0.1,1.9-0.4,3.9-0.2,5.8c0.4,7.1,1.1,14.2,1.4,21.4C739,339.7,740.9,341,745.6,339.5z M34.4,220.1c5.9,11.7,6.6,24.4,16.4,32.9
		C48.5,241,48.4,228,34.4,220.1z M437.3,525.5c11.1,7.3,22.7,7.5,35.4,5.6C464.4,524.8,452,523,437.3,525.5z M770.3,388.2
		c-9,5.4-10.8,10.1-6.5,17.8c0.8,1.4,4.1,2,6.3,2c1.1,0,3.4-2.1,3.3-3C772.7,399.5,771.4,394,770.3,388.2z M716.2,250
		c0.7,0,1.5,0,2.2,0c0.2-2.3,0.6-4.6,0.7-6.9c0.8-12,1.7-24.1,2.3-36.1c0.1-2.1-1.2-4.3-1.9-6.5c-0.8,2.1-2.2,4.2-2.3,6.3
		c-0.6,11.1-1,22.2-1.3,33.3C715.8,243.4,716.1,246.7,716.2,250z M440.6,233.7c0-0.7-0.1-1.4-0.1-2.2c-2.2-0.3-5.2-1.7-6.4-0.8
		c-5.7,4.5-10.8,9.6-16.3,14.6c2.5,2.9,4.3,5.5,7.6,2.5C430.5,243.2,435.5,238.4,440.6,233.7z M153.7,158.6c0.5,0,0.9,0,1.4,0
		c1.8-16.8-0.4-34,5.6-50.4c0.3-0.7-0.5-1.8-0.8-2.8c-1,0.5-2.5,0.8-2.9,1.6c-1,2.3-2,4.9-2.2,7.4c-0.8,9.6-1.4,19.3-1.7,29
		C152.9,148.5,153.5,153.5,153.7,158.6z M286.1,444.6c3.5,5.9,3.4,13.8,12.8,13.3c-1.8-4.2-2.4-9.3-5.2-11.5
		c-4.2-3.2-10-4.4-15.3-6.5c-1.3,8.1,0,10,6.3,11.3C285.1,449.4,285.5,447.7,286.1,444.6z M159.8,234.7c0.6-0.5,1.3-1.1,1.9-1.6
		c-0.5-9.7-10.2-12.5-15.3-18.8c-1.3-1.6-4.8-1.4-7.3-2c-0.3,0.7-0.7,1.4-1,2.2C145.4,221.3,152.6,228,159.8,234.7z M1026.4,604.3
		c6.6-4.6,11.9-8.5,17.5-12.1c4.1-2.6,4.1-5.3,1.1-9.9C1039.5,590.1,1026.7,589.9,1026.4,604.3z M65.9,252.1
		c4.2,9.7,3.7,20.7,13.8,27.3C80.3,267.8,74.3,255.4,65.9,252.1z M214.7,357.5c0.2-2.1,1.2-5.3,0.4-5.9c-5.8-4-11.9-7.4-18.3-11.2
		C195.6,348.6,202.8,355.2,214.7,357.5z M463.2,536.2c10.3,5.5,21.3,4.5,33.3,4.5C485.5,532.7,474.4,534,463.2,536.2z M742.2,370.4
		c6.8-5.1,8.7-15.9,4.7-21.5c-0.7-1-2.8-1.5-4.3-1.5c-0.8,0-2.3,1.6-2.2,2.4C740.8,356.3,741.5,362.8,742.2,370.4z M174.3,141.9
		c-0.9,0.2-1.9,0.5-2.8,0.7c0.5,11,0.9,22,1.6,32.9c0,0.8,1.7,1.5,2.5,2.2c0.6-1.1,1.6-2.3,1.6-3.4c-0.1-9.1-0.4-18.2-0.9-27.3
		C176.2,145.3,175,143.6,174.3,141.9z M294.7,143.6c0.4,2.1-1.5,7.6,4.4,6.8c2.2-0.3,4-4,7-7.4c-7.8-2.2-13.8-3.9-21.1-6
		c0.4,3.9,0.6,6.4,0.8,8.9C288.6,145.2,291.5,144.4,294.7,143.6z M825.5,336.8c0.6-3.7-21.1-15-32.3-15.6c0.8,1.6,1.9,3.1,3.5,3.9
		c3.5,1.8,7.2,3.1,10.8,4.7c3.8,1.8,7.4,3.8,11.3,5.5C820.8,336.1,823.2,336.3,825.5,336.8z M735.9,252.8c1,0,2-0.1,3-0.1
		c-0.5-15.5-0.9-30.9-1.4-46.4c-1,0-2,0.1-3,0.1C736.4,221.8,733.9,237.3,735.9,252.8z M1017.4,456c0.5,0.5,1.1,0.9,1.6,1.4
		c-2.1,3.1-4.1,6.1-6.2,9.2c0.7,0.6,1.3,1.1,2,1.7c3-3.3,7.5-6.2,8.4-9.9c0.6-2.4-4.2-6.1-6.6-9.3c-3.6,3.8-6.3,6.5-8.6,9.4
		c-0.8,1-0.7,2.7-1,4.1c1.4-0.3,3.1-0.2,4.1-1C1013.5,459.9,1015.4,457.8,1017.4,456z M739.3,382.2c-10.7,7.3-14.8,15.4-10.1,19.4
		C742.3,391.7,742.8,390.7,739.3,382.2z M681.7,396.6c7.6,4.6,10.3-1,13.9-4.7c3.5-3.6,3.6-7.4,1.4-12.9
		C691.6,385.3,686.7,390.8,681.7,396.6z M344.3,166.7c4.2,1.8,7.9,3.6,11.7,4.9c0.8,0.3,2.4-0.6,3.2-1.4c1.3-1.5,2.2-3.3,3.7-5.5
		c-3.1-1.3-5.8-2.3-8.5-3.4C347.9,158.4,345.9,159.5,344.3,166.7z M56.5,164.2c-3.1,7.1,2.9,21.2,10.4,27.5
		C69.4,180.3,60.3,174.1,56.5,164.2z M844.3,422.4c5.5,0.9,9.3,2.2,12.7,1.5c1.1-0.2,2.6-6.5,1.4-8.3c-1.5-2.3-6.5-4.5-8.4-3.6
		C847.5,413.2,846.7,417.7,844.3,422.4z M257.9,155.7c-3.8-1.1-7.1-4-8.9,1.7c-1.3,4.1-2.1,7.2,3.3,8.8c3.7,1.1,6.5,2,7.9-3.1
		C261.2,159.4,262.5,156.3,257.9,155.7z M832.5,410.3c-3.3,4.7,0.2,6.1,3.5,7.5c2.6,1.1,5.6,3,7.1-1.4c1.2-3.4,3-6.9-2.4-8.9
		C837,406.1,833.7,405,832.5,410.3z M711.9,224.6c0.7-0.2,1.4-0.5,2.1-0.7c0.3-7.3,0.7-14.5,0.7-21.8c0-1-1.9-2-2.9-3.1
		c-0.8,1.2-2.3,2.4-2.4,3.6c-0.4,5.7-0.6,11.4-0.3,17.1C709.1,221.4,710.9,223,711.9,224.6z M313.4,188.8c8.4,5.3,9.5,5.4,11.9,0.9
		c1.7-3.3,4.1-6.4-1.7-8.5C317.4,179.1,316.8,179.3,313.4,188.8z M337.9,256.9c2,0.2,2.6,0.5,3,0.3c4.9-2.8,9.8-5.6,14.5-8.7
		c0.5-0.3-0.1-3.1-0.9-4.2c-0.5-0.8-2.8-1.2-3.5-0.7c-4.3,2.8-8.5,5.7-12.5,8.9C337.7,253.2,338.1,255.4,337.9,256.9z M420.5,509.5
		c-6.9-5.2-21.7-6.2-28.3-2.4C401.2,512.3,410.2,510.9,420.5,509.5z M185.3,184.4c-0.2-13.2-0.4-25.9-0.6-38.6
		C179.9,151.5,181.2,180.6,185.3,184.4z M977.9,491.3c0.4,0.4,0.7,0.9,1.1,1.3c1.6-0.8,3.4-1.4,4.6-2.6c6.3-6.2,12.5-12.4,18.5-18.8
		c1.2-1.2,1.5-3.2,2.2-4.9c-1.6,0.7-3.6,1.1-4.8,2.3c-6.4,6.3-12.7,12.7-19,19.1C979.6,488.8,978.8,490.1,977.9,491.3z M1044,599
		c11.1-0.9,29.5-12.9,28.6-18.2C1062.9,586.9,1053.5,593,1044,599z M390.8,233.5c-0.3-0.6-0.5-1.3-0.8-1.9c-1.1-0.1-2.6-0.7-3.3-0.2
		c-7,4.9-13.8,10-20.6,15.2c-0.5,0.4-0.7,2.1-0.5,2.3c0.8,0.5,2.2,1.1,2.7,0.7C375.9,244.3,383.3,238.9,390.8,233.5z M763.7,351.8
		c-5.1,6.5-12.2,11.4-6.7,20.4C766.7,368.3,764,360.2,763.7,351.8z M176.7,139c0.6-6.6,1.4-12.6,1.7-18.6c0.1-0.9-1.6-2.5-2.6-2.7
		c-0.8-0.1-2.7,1.3-2.8,2.1c-0.5,6-0.8,12-0.9,18c0,0.9,1.2,2.4,2,2.6C174.9,140.7,176,139.5,176.7,139z M55,241
		c-0.4,11,4.6,22.9,12,25.9C60.9,258.6,65,247.1,55,241z M82.5,265.2c1.8,8.2,1.4,17.4,9.9,22.7C90.8,279.6,90.7,270.7,82.5,265.2z
		 M366.3,278.7c5.5,3.9,10.6,3.2,17-2.2c1.2-1,2.4-3,2.3-4.3c-0.1-1.1-2.3-2.8-3.5-2.8c-1.5,0-3.4,1.2-4.3,2.5
		c-1.4,2-2.2,4.5-3.7,7.7C371.7,274.4,369.2,275,366.3,278.7z M400.1,232.3c0.2,0.6,0.3,1.3,0.5,1.9c1.6,0,3.7,0.6,4.7-0.1
		c4.9-3.8,9.7-7.8,14.3-11.9c0.7-0.6,0.7-2.1,1-3.2c-1.1-0.1-2.7-0.6-3.4-0.1C411.4,223.2,405.7,227.8,400.1,232.3z M414.3,215.2
		c-0.2-0.7-0.4-1.5-0.5-2.2c-1.7,0.2-3.8-0.2-5,0.6c-4.7,3.5-9.2,7.3-13.6,11.2c-0.8,0.7-0.7,2.4-1,3.6c1.2,0.1,2.7,0.6,3.4,0.1
		C403.2,224.2,408.7,219.7,414.3,215.2z M120.6,237.3c-7-10.4-12.4-13.7-17.3-9.9c3.6,3.6,7.3,7,10.8,10.6
		C116.9,240.9,118.7,240,120.6,237.3z M253.1,386c3.7,10.8,8.7,15.8,14.9,15.4C264.2,391,260.7,387.3,253.1,386z M710.4,226.1
		c-0.5,0.3-1.1,0.6-1.6,0.8c-0.3,6.7-0.6,13.4-0.7,20.1c0,0.9,1.3,1.8,1.9,2.8c0.9-0.9,2.5-1.7,2.6-2.6c0.6-5.6,1.1-11.3,1.1-17
		C713.6,228.8,711.5,227.4,710.4,226.1z M105.7,306.9c0.5,13.3,4.4,21.2,10.9,22.7C113.4,322.1,113.7,313.3,105.7,306.9z M263.1,142
		c-4.4,0.1-7.9-3.3-9.8,2.3c-1.8,5.5,3.2,4.6,5.6,5.9c3,1.6,6.4,2.1,6.9-2.5C266.1,145.9,264.1,143.9,263.1,142z M832.1,361.7
		c0.3,0.7,0.6,1.4,0.9,2.2c3.2,0.8,6.4,2.3,9.4,1.9c1.2-0.1,3.1-5.3,2.3-6.9c-0.9-1.8-4.9-3.6-6.9-3.1
		C835.5,356.4,833.9,359.6,832.1,361.7z M890.2,460.9c0-0.8,0-1.7-0.1-2.5c-14.6,0.5-29.3,1.1-43.9,1.6c0,0.7,0,1.3,0.1,2
		C861,461.6,875.6,461.3,890.2,460.9z M221.2,186.7c-1.4-13.3-1.8-14.1-7.7-14.4C210.2,181.8,212.8,186.9,221.2,186.7z M265.1,159.4
		c-4.5,9.5-3.8,11.3,5.1,12.3C274.9,162.5,274.4,161.2,265.1,159.4z M1071.5,558.8c9-3.4,11.5-12.3,6.4-22.8
		C1075.7,543.8,1073.7,550.8,1071.5,558.8z M143.3,308.3c1.5,15.2,5.1,23,11.3,24.3C150.2,324.4,149.9,314.9,143.3,308.3z
		 M1044.7,574.3c-0.8-0.3-1.5-0.7-2.3-1c-3.9,5.8-13.4,5.8-14.2,14.8c5.6-2.5,10.8-5.5,15.6-9C1044.7,578.5,1044.4,576,1044.7,574.3
		z M59.9,155.5c-3,8.9,4.3,13.9,7.8,20.3C71.2,166.8,62.5,162.3,59.9,155.5z M1027.7,577.9c11-3.6,15.7-8.7,12.6-13.1
		C1028.7,570.2,1026.5,572.4,1027.7,577.9z M208.8,184.7c-0.4-4.6-0.5-7.7-1.1-10.7c-0.3-1.3-1.8-2.6-3-3.2
		c-0.8-0.4-3.3,0.3-3.3,0.6c-0.2,3.4-0.8,7.1,0.2,10.2C201.9,183,205.6,183.4,208.8,184.7z M972.3,461c1.9-0.4,2.8-0.3,3.2-0.7
		c4.1-4.6,8.2-9.3,12.2-14.1c0.6-0.7,0.1-2.2,0.1-3.4c-1.3,0.3-3,0.2-3.7,1c-3.6,4.1-6.9,8.4-10.2,12.8
		C973.1,457.6,973,458.9,972.3,461z M966.8,602.8c10.5,4.9,19.5,2.7,23.7-5.3C982.8,599.3,975.2,601,966.8,602.8z M105.4,297.4
		c-3.3-7.3-2.2-16.6-9.6-22.1C98.9,282.7,97.7,292,105.4,297.4z M915.8,448.7c-0.3,0.7-0.6,1.5-0.9,2.2c11,5,21.9,10,32.9,15
		c0.3-0.6,0.6-1.3,0.9-1.9C937.7,458.8,926.7,453.8,915.8,448.7z M947.6,645.2c0,0.9,0,1.8-0.1,2.7c11.2-1.3,22.4-2.7,33.6-4
		c-0.1-0.8-0.2-1.5-0.3-2.3C969.8,642.7,958.7,644,947.6,645.2z M106.5,282.7c2.8,7.9,3.4,16.9,9.7,23.3
		C112.9,298.3,115.2,288.1,106.5,282.7z M302.2,184.2c4.7,3.4,8,4.3,9.9-1.5c0.9-2.6,2.8-5.2-1.5-6.5
		C302.9,173.9,305.3,181.4,302.2,184.2z M720.1,414c0-5.2,0-5.2-4.8-4.1c-0.1,10,1,11.3,9.4,10.9C724.7,417.4,725.7,413.6,720.1,414
		z M200.7,151.4c-0.1,4.9-0.3,8.1-0.1,11.4c0.1,1.1,1.4,2.4,2.5,2.9c0.9,0.4,3.3-0.2,3.4-0.6c0.4-3,0.9-6.3,0.2-9.2
		C206.4,154.3,203.5,153.3,200.7,151.4z M882.6,612.1c-7-3.8-10.9-2.5-15.2,4.9C873.7,620,878.1,616.9,882.6,612.1z M127.6,233.3
		c-9.5-11.5-10.9-12.5-15.1-10.2C116.8,230.7,123.7,235.6,127.6,233.3z M853.2,614.4c6.1,2.7,11.6,0.5,14.8-5.7
		C862.1,606.2,860.2,606.9,853.2,614.4z M151.5,210.8c-0.2,0.6-0.5,1.2-0.7,1.8c3.1,3,6.3,5.9,9.4,8.9c0.5-0.2,1.1-0.4,1.6-0.5
		c-0.2-3.3,0.9-7.8-0.9-9.6C159.4,209.7,154.8,210.9,151.5,210.8z M320.8,199c-4.9-1.1-8-2.1-11.2-2.4c-0.5,0-2.1,4.1-1.7,4.4
		c2.3,1.9,5,3.7,7.8,4.4C316.6,205.6,318.3,202.2,320.8,199z M118.6,317.7c-0.3,10.5,3.5,19.2,9.5,21.5
		C124.6,332.1,124.8,324,118.6,317.7z M1014.9,552.5c0.3,0.4,0.7,0.8,1,1.2c4.7-3.8,9.6-7.3,14-11.4c2.6-2.4,1.1-4.8-1-6.4
		C1024.1,541.6,1019.5,547.1,1014.9,552.5z M53.6,178.6c-0.6,0.3-1.2,0.7-1.8,1c2.8,8.8,9.2,15.6,13.8,23.4c0.7-0.4,1.4-0.8,2.1-1.2
		C63,194.1,58.3,186.4,53.6,178.6z M753.6,356.9c0.6,0.1,1.2,0.2,1.8,0.3c2.7-3.4,5.4-6.8,8.2-10.2c-0.4-0.6-0.9-1.2-1.3-1.8
		c-3.2,1-7.1,1.2-9.2,3.3C751.8,349.9,753.3,354.1,753.6,356.9z M250.4,393.2c-1-8.8-5.9-15-11.7-14.5
		C241.8,384.2,243.2,390.9,250.4,393.2z M146.4,155.5c0.6-0.1,1.1-0.1,1.7-0.2c0.2-10.7,0.4-21.4,0.6-32.1c-0.9,0-1.8,0-2.7,0
		C146.1,134,146.2,144.7,146.4,155.5z M447.2,520.7c0-0.8,0.1-1.6,0.1-2.4c-7.6,0.2-15.1,0.4-22.7,0.6c0,0.6,0,1.2,0,1.8
		C432.2,523.8,439.7,521.6,447.2,520.7z M679.8,601.8c0-0.7-0.1-1.3-0.1-2c-7.7,0.4-15.3,0.8-23,1.2c0,0.7,0.1,1.4,0.1,2
		C664.5,603.3,672.3,605.5,679.8,601.8z M750.4,369.8c-6.3,2.5-9.1,10.7-5.4,16.8c1.5-1.7,2.8-3.2,4.1-4.7c-1.8-1.7-3.1-2.9-5.2-4.8
		C749.2,376.6,753.9,376.4,750.4,369.8z M286.2,166.1c-1,4.9-1.7,8.3-2.1,11.7c0,0.2,4.3,1.5,4.7,1c1.6-2.3,3.1-5.1,3.4-7.8
		C292.3,169.9,289.1,168.5,286.2,166.1z M207.2,149.3c0.3-2.8,1.1-5.4,0.8-7.8c-0.2-1.3-1.9-2.8-3.2-3.4c-0.8-0.4-3,0.2-3.5,1
		C198.7,143.4,201.2,148,207.2,149.3z M275.7,146.7c-0.9-0.3-1.8-0.6-2.6-0.9c-1.6,1.3-3.8,2.3-4.4,3.9c-0.4,1.1,1.1,3.7,2.4,4.5
		c2.1,1.2,5.3,2.1,6-1.6C277.4,150.8,276.2,148.7,275.7,146.7z M227.3,371.7c0.4,7.4,1.7,13.3,8.9,12.7
		C234.1,376.2,232.7,374.1,227.3,371.7z M192.5,148.2c-0.7,0.3-1.4,0.6-2.1,0.9c-0.1,4.1-0.3,8.3-0.1,12.4c0,1,1.6,1.8,2.5,2.8
		c0.7-0.9,1.8-1.7,1.9-2.7c0.4-3.1,0.6-6.2,0.3-9.2C194.8,150.9,193.3,149.6,192.5,148.2z M71.7,126.3c1.8,3.7,3.3,6.9,4.8,10
		c0.6,0,1.2,0,1.8,0c1-3.7,2-7.5,3.4-12.3C77.7,124.9,75.1,125.5,71.7,126.3z M411.4,514.7c7.7,4.8,14.4-0.3,21.3,0.3
		C427,511.6,418.8,511.6,411.4,514.7z M141.4,334c-0.5,6.8,1.9,10.9,7.9,13.4C149.9,341,147.1,336.2,141.4,334z M711.7,255.5
		c-2.3,1.7-3.7,2.2-3.8,2.9c-0.4,4.4-0.6,8.8-0.6,13.2c0,0.7,1.4,1.3,2.2,2c0.6-1.2,1.7-2.3,1.8-3.5
		C711.6,265.7,711.6,261.3,711.7,255.5z M616,586.6c0.1-0.9,0.1-1.9,0.2-2.8c-7.6-0.1-15.3-0.2-22.9-0.3c0,0.9,0,1.8-0.1,2.7
		C600.8,586.4,608.4,586.5,616,586.6z M277.2,163.8c-1.4,3.5-5,6.6-1.5,10.6c0.3,0.4,3.8-0.8,4.2-1.8
		C280.8,169.7,285.2,165.5,277.2,163.8z M336.3,171.7c-4.5-1.8-7.3-3.1-10.2-4c-0.9-0.3-2.4,0.6-3.1,1.4c-0.6,0.6-0.8,2.7-0.5,2.9
		c2.7,1.5,5.4,3.1,8.3,3.7C331.9,176,333.6,173.7,336.3,171.7z M510.1,547.3c0.1-0.7,0.1-1.5,0.2-2.2c-7.5-2.9-15,0.4-22.5-0.3
		c0,0.8,0,1.6,0,2.3C495.3,547.2,502.7,547.2,510.1,547.3z M195.1,183c-0.1-4.7,0.1-8.7-0.3-12.6c-0.1-0.8-2.7-2.2-3.3-1.9
		C188.6,170.3,190.6,180.9,195.1,183z M267.2,434.3c-0.2,7.4,1.3,9.8,6.4,10.6C276.1,437.3,276.1,437.3,267.2,434.3z M547.1,562.1
		c0-0.8,0.1-1.6,0.1-2.4c-8.5-0.5-17.1-1-25.6-1.5c0,0.7-0.1,1.4-0.1,2.1C530,560.9,538.5,561.5,547.1,562.1z M386.7,248.8
		c4-3.5,7.6-6.6,11.8-10.3C390.9,236.6,385,242,386.7,248.8z M137.8,338.3c-2.2-5.2-2.7-11-9.1-13.4
		C129.1,333.4,131.6,337.3,137.8,338.3z M302.2,178.3c-0.6-2.5-1.1-4.3-1.5-6.1c-1.7,1.2-4.1,2.1-4.9,3.7c-1,2-4.1,5.2,0.1,6.6
		C297.2,183,299.7,180,302.2,178.3z M832.1,392.6c0.5-1.2,0.9-1.7,0.8-2.2c-0.1-1.8-0.5-3.5-0.7-5.3c-1.3,1.1-2.8,2.1-3.8,3.5
		c-0.9,1.3-1.4,3-1.5,4.6c-0.1,1,0.6,2.2,1,3.3c1-0.5,2.3-0.9,3.1-1.7C831.7,394.1,832,392.9,832.1,392.6z M914.3,431.5
		c6.2,4,7-1.4,8.8-4.1c0.5-0.8-0.7-3.9-1.4-4C916,422.8,916.4,428,914.3,431.5z M255.5,381.3c0.4-0.5,0.9-1,1.3-1.4
		c-1.7-6.3-5.8-9.8-12.5-8.4C248,374.7,251.8,378,255.5,381.3z M528.5,554c0-0.9,0.1-1.8,0.1-2.6c-8.4-0.1-16.9-0.2-25.3-0.3
		c0,0.6,0,1.3-0.1,1.9C511.7,553.3,520.1,553.7,528.5,554z M882.4,619.8c6.4,1.4,9.9-2,14-5.6C889.7,611.9,886.4,613.3,882.4,619.8z
		 M356.9,274.4c6.3,1.9,16.2-4.8,15.2-10.2C367.1,267.6,362.2,270.9,356.9,274.4z M147.4,118c0.7,0.1,1.4,0.2,2.1,0.2
		c1-4.8,2.1-9.7,3.5-16.2c-3,1.5-5.4,2.1-5.5,3C147.1,109.3,147.4,113.7,147.4,118z M1011,472.5c-0.6-0.7-1.3-1.4-1.9-2.1
		c-6,6.3-12,12.7-18,19c0.3,0.3,0.7,0.7,1,1C998.4,484.5,1004.7,478.5,1011,472.5z M317.2,161.9c-3,1.5-4.7,2.3-6.4,3.2
		c0.9,1.6,1.4,4.3,2.6,4.5c1.8,0.4,3.9-0.8,5.9-1.3C318.8,166.6,318.3,165,317.2,161.9z M837.8,626.1c5.4,1.4,9.6,0.2,13.4-3.7
		C845.6,619.3,841.4,620.5,837.8,626.1z M768.5,382.2c-0.3-0.7-0.7-1.3-1-2c-3.1,1-6.3,1.7-9.1,3.2c-0.5,0.3,0.8,3.9,1.5,7.2
		C763.4,387.1,765.9,384.7,768.5,382.2z M1067.1,571.6c7.7-2.5,11.1-5.8,10.8-10.8C1071.4,563.8,1067.2,567.9,1067.1,571.6z
		 M231.7,361.7c0.1,5.8,3,9.1,8.8,9.8C239.7,365.8,237.4,363.2,231.7,361.7z M922.2,413.7c1.5,2.5,1.9,4.2,3,4.9
		c3,1.9,4.6-0.6,5.1-2.9c0.4-1.4-0.8-3.1-1.3-4.7C927.1,411.8,925.2,412.6,922.2,413.7z M199.3,123.4c-5.7-2.5-7.9-1.2-7.8,2.8
		c0.1,1.8,1.4,3.5,2.1,5.2C195.4,128.8,197.2,126.3,199.3,123.4z M342.8,202.5c5.9,1.2,10.1-3.4,9.7-9.7
		C346.8,193.7,346.6,199.4,342.8,202.5z M196.7,143.3c-1.1-3.2-2.1-5.8-3-8.4c-1,0.7-2.9,1.5-2.9,2.1c0.2,2.8,0.9,5.5,1.5,8.3
		C193.5,144.8,194.6,144.3,196.7,143.3z M408.4,280.5c1.4-5.2,2.6-9.5,4.1-15C405.6,270.5,404.1,276,408.4,280.5z M1023,555.3
		c0.4,0.7,0.8,1.5,1.1,2.2c3.8-2,7.7-4,11.3-6.3c0.2-0.1-0.7-2.2-1.3-4C1030,550.3,1026.5,552.8,1023,555.3z M67.7,276.7
		c-0.9,0.6-1.9,1.3-2.8,1.9c2.8,4,5.5,8.1,8.3,12.1c0.7-0.5,1.4-0.9,2.1-1.4C72.8,285.1,70.2,280.9,67.7,276.7z M336.4,199.7
		c0.6,0.4,1.1,0.9,1.7,1.3c2.4-3.3,4.8-6.5,7.6-10.3C340,189.8,337.5,192.6,336.4,199.7z M819.6,414c0.8,0.4,1.6,0.7,2.4,1.1
		c1.6-3.4,3.3-6.7,4.8-10.1c0.2-0.5-0.5-1.6-1.1-2.1c-0.3-0.2-1.6,0.2-1.8,0.6C822.3,407,821,410.5,819.6,414z M879.6,626.2
		c-5.7-2.1-9.3-0.5-13.1,3.4C872.1,631.5,875.8,630.5,879.6,626.2z M364.4,165.4c-0.2,3.4-0.5,5.7-0.3,8c0,0.4,2.4,1.2,2.8,0.9
		c1.9-1.6,3.4-3.6,5.4-5.8C369.3,167.4,367.5,166.6,364.4,165.4z M913.9,472.4c0-0.6,0.1-1.2,0.1-1.7c-9.2-0.2-18.4-0.5-27.6-0.7
		c0,0.4,0,0.8,0,1.2C895.5,471.6,904.7,472,913.9,472.4z M565.8,568.1c-0.1-0.8-0.1-1.6-0.2-2.4c-6,0.3-12,0.6-18,0.9
		c0,0.8,0.1,1.6,0.1,2.4C553.7,568.8,559.8,568.4,565.8,568.1z M372,175.8c4.8,2.8,6.2,2,8.2-4.9C374.6,168.1,373.5,172.2,372,175.8
		z M288,161.2c4,0.2,6.3,0.7,8.2,0.1c0.8-0.2,1.7-3.4,1.1-4.3c-0.8-1.3-3.6-2.8-4.4-2.3C291.2,155.7,290.3,158,288,161.2z
		 M368.6,191.1c1-2.5,1.9-4.7,2.8-7c-4.8-1.7-5.8-1-8,4.9C365,189.6,366.6,190.2,368.6,191.1z M302,199.6c1.1-0.4,2.2-0.8,3.3-1.2
		c-0.4-2-0.2-4.5-1.4-5.8c-0.7-0.8-3.5,0.4-5.4,0.6C299.6,195.4,300.8,197.5,302,199.6z M53.5,146c-0.4-1.1-0.7-2.4-1.3-3.4
		c-1.4-2.1-3.1-4.1-4.6-6.1c0.2,2.5,0.3,5,0.8,7.5C48.9,146.7,50.1,149,53.5,146z M22.8,158.7c0.6,0,1.2-0.1,1.8-0.1
		c-0.1-3.4-0.2-6.9-0.3-11.1C17.9,151.2,17.9,152,22.8,158.7z M188.6,127.4c-0.8-2.9-1.4-5.2-2-7.5c-1.1,0.6-3.2,1.1-3.3,1.7
		c-0.2,2.5,0.3,5.1,0.6,7.7C185.2,128.8,186.4,128.3,188.6,127.4z M281.7,160.2c2.6-2.1,4.7-3,4.9-4.2c0.2-1.4-1.2-3-1.9-4.6
		c-1.5,0.8-3.5,1.4-4.3,2.6C279.9,154.9,281,156.9,281.7,160.2z M409.9,260.2c0.4,0.3,0.9,0.5,1.3,0.8c2.3-2.2,4.7-4.5,7.5-7.1
		c-2.1-1.4-3.5-2.3-5.6-3.7C411.8,254,410.9,257.1,409.9,260.2z M864.7,624.5c-5.6-3.8-8.6-1-11.9,2.5
		C857.7,630.5,860.7,627,864.7,624.5z M17.3,171c4.4-7.4,4-9.7-1.7-12.3C16.2,163.3,16.7,167.2,17.3,171z M709.1,612.8
		c-0.1-0.8-0.1-1.5-0.2-2.3c-6,0.4-11.9,0.8-17.9,1.2c0,0.7,0.1,1.5,0.1,2.2C697.2,613.6,703.1,613.2,709.1,612.8z M390.2,175.2
		c-0.2-0.5-0.3-1.1-0.5-1.6c-1.8-0.2-4.4-1.3-5.2-0.5c-1.6,1.7-2.3,4.3-3.4,6.5c0.6,0.5,1.2,0.9,1.8,1.4
		C385.4,179,387.8,177.1,390.2,175.2z M327.9,195.6c0.8,0.5,1.6,1,2.4,1.5c2-3.1,3.9-6.3,5.9-9.4c-1-0.6-2-1.2-3-1.8
		C331.5,189.1,329.7,192.4,327.9,195.6z M411,288.9c-0.7,3.6-1.4,6.3-1.6,9c0,0.5,2.7,1.9,3.4,1.5C415.2,297.9,414.8,292,411,288.9z
		 M42.9,151.6c3.7-3,2.8-7.3-3.1-11.5C40.7,143.7,41.7,147.3,42.9,151.6z M221.5,355.6c-0.5,0.4-1.1,0.8-1.6,1.1
		c2.1,3.1,4.2,6.1,6.3,9.2c0.5-0.4,1-0.7,1.6-1.1C228.1,360.2,226.8,356.6,221.5,355.6z M786.8,633.8c-0.1,0.8-0.3,1.5-0.4,2.3
		c5.7,0.8,11.4,1.5,17,2.3c0.1-0.7,0.2-1.3,0.3-2C798,635.6,792.4,634.7,786.8,633.8z M393,276.9c-0.8-0.1-1.6-0.1-2.3-0.2
		c-1.1,4.2-2.6,8.4-1.1,12.8c0.7,0.1,1.5,0.1,2.2,0.2C392.1,285.4,392.5,281.2,393,276.9z M306.8,157.9c-2.6,1.5-4.8,2.1-5,3.1
		c-0.3,1.4,0.9,3.2,1.4,4.7c1.4-0.6,3.4-0.9,4.1-2C308,162.7,307.1,160.8,306.8,157.9z M891.4,639.7c0-0.5,0.1-1,0.1-1.6
		c-6.5-0.7-13.1-1.4-19.6-2.1c-0.1,0.7-0.1,1.4-0.2,2.1C878.3,638.7,884.8,639.2,891.4,639.7z M355.3,184.8c0.5,0.6,1,1.3,1.5,1.9
		c1.8-1.2,4-2.1,5.3-3.7c0.5-0.6-1.1-2.8-2.3-5.7C357.6,180.9,356.4,182.8,355.3,184.8z M265.4,175.3c-2.1,0.6-3.7,0.9-5.2,1.3
		c0.9,1.3,1.6,3.2,2.8,3.7c1.4,0.6,3.4-0.1,5.1-0.3C267.3,178.7,266.5,177.3,265.4,175.3z M186.3,141.5c-0.4-3.2-0.7-5.9-1.1-8.6
		c-0.9,0.3-2.5,0.6-2.5,1c-0.1,2.7,0.2,5.5,0.3,8.3C183.8,142,184.7,141.8,186.3,141.5z M838.3,370.9c-2.4,1.5-4.2,2-4.6,3
		c-0.4,1.1,0.6,2.7,1,4c1.3-0.5,3-0.7,3.7-1.6C839,375.4,838.4,373.7,838.3,370.9z M916.4,441.1c-1.6-2.3-2.4-4.2-2.9-4.1
		c-1.7,0.3-3.3,1.1-4.8,2.1c-0.2,0.1,0.7,3,1.3,3.1C911.7,442.4,913.4,441.7,916.4,441.1z M402.3,295.1c6.1-5.7,6.2-7.3,1.5-10.3
		C403.2,288.4,402.8,291.8,402.3,295.1z M836.4,645c-0.1,0.5-0.1,1.1-0.2,1.6c6.3,0.7,12.6,1.5,18.9,2.2c0.1-0.4,0.1-0.8,0.2-1.2
		C849,646.7,842.7,645.8,836.4,645z M964.1,468.3c0.7,0.7,1.4,1.4,2.2,2.1c2.2-2.3,4.5-4.5,6.7-6.8c-0.7-0.7-1.3-1.4-2-2
		C968.7,463.8,966.4,466,964.1,468.3z M181.7,112.3c-0.4-0.7-0.7-1.3-1.1-2c-2.2-0.9-4.8-2.7-5.7,1.4c-0.3,1.2,0.8,2.7,1.2,4
		C177.9,114.6,179.8,113.5,181.7,112.3z M838.3,426.5c-0.1-0.7-0.2-1.5-0.3-2.2c-4.3,0.6-8.6,1.2-12.8,1.8c0.1,0.7,0.2,1.4,0.2,2.1
		C829.7,427.6,834,427.1,838.3,426.5z M377,284.2c3,1.4,4.8,2.2,7.5,3.5c0.2-3,0.3-5,0.5-8.1C382,281.3,380.1,282.4,377,284.2z
		 M830.8,449.9c-3.6-1.3-7.5-2.6-11-3.8C820.8,451.5,823.2,452.4,830.8,449.9z M329,214.8c2-3,3.7-5.6,5.6-8.6
		C328.2,206.5,327,208.4,329,214.8z M284.5,182.8c-2.1,1-3.4,1.6-4.6,2.1c0.7,1.3,1,3.2,2.1,3.8c0.9,0.5,2.6-0.6,4-1
		C285.5,186.5,285.1,185.1,284.5,182.8z M854.5,635c0.1,0.8,0.1,1.6,0.2,2.4c3.2-0.1,6.5-0.3,9.7-0.4c-0.1-0.9-0.1-1.8-0.2-2.7
		C861,634.6,857.7,634.8,854.5,635z M609.8,590.3c0,0.7,0,1.4,0.1,2.1c5.3-0.3,10.5-0.6,15.8-1c0-0.5,0-1,0-1.5
		C620.3,590.1,615,590.2,609.8,590.3z M693.9,608.4c0-0.5-0.1-1.1-0.1-1.6c-5.5,0.3-11,0.6-16.5,0.9c0,0.5,0.1,1.1,0.1,1.6
		C682.8,609,688.3,608.7,693.9,608.4z M140.4,351.4c0.6-0.6,1.1-1.2,1.7-1.7c-2.5-2.5-5.1-5.1-7.6-7.6c-0.6,0.6-1.2,1.2-1.8,1.8
		C135.3,346.4,137.9,348.9,140.4,351.4z M379.2,250.2c-0.6-0.5-1.1-1-1.7-1.4c-1.8,1.7-3.6,3.4-5.3,5c0.9,0.7,1.8,1.4,2.7,2.1
		C376.3,254,377.8,252.1,379.2,250.2z M829.2,438.2c0,0.9,0.1,1.8,0.1,2.7c3.5-0.3,7-0.5,10.5-0.8c0-0.7-0.1-1.5-0.1-2.2
		C836.1,437.9,832.7,438,829.2,438.2z M344.7,176.8c-0.3-0.9-0.6-1.9-0.9-2.8c-1.7,0.4-3.6,0.6-5.1,1.4c-0.4,0.2,0.1,2.3,0.2,3.6
		C340.9,178.3,342.8,177.5,344.7,176.8z M417,302.1c1,0.1,2,0.2,3,0.3c0.2-2.7,0.5-5.4,0.7-8.1c-0.8-0.1-1.7-0.2-2.5-0.3
		C417.8,296.8,417.4,299.5,417,302.1z"/>
	<path d="M482,289.1c4.2,0.5,8.8,0.1,12.4,1.8c26.3,11.8,52.2,24.7,78.8,36c24.6,10.4,49.9,19,74.8,28.6c4.2,1.6,6.8,1.3,9.1-2.7
		c1.3-2.3,3.4-4.1,5.1-6.1c0.6,0.4,1.1,0.7,1.7,1.1c-2,3.3-4,6.6-6.1,10.2c3.3,2,5.9,3.1,8.9-0.1c2.1-2.3,4-1.4,4.3,1.8
		c0.4,4.9,3.2,3.8,6,2.4c2.5-1.3,4.9-2.8,8.2-3.3c-0.9,1.8-1.9,3.7-2.5,4.9c2.9,2.8,5.5,5.3,8.3,7.9c-9.5,8.5-14.9,19.6-25.1,25.7
		c-0.6-0.6-1.2-1.1-1.8-1.7c6.3-7.4,12.7-14.8,19.3-22.5c-3.7-2.7-6.8-3.2-10,0.7c-4,5-8.3,9.9-12.6,14.6c-1.8,2-4.2,3.5-6.3,5.3
		c-0.6-0.6-1.3-1.2-1.9-1.9c5.9-7.1,11.9-14.2,18-21.5c-4.1-3-6.9-2.3-9.7,1.3c-3.8,4.9-8,9.6-12.3,14.2c-1.4,1.6-3.3,2.7-5,4
		c-0.5-0.5-1.1-0.9-1.6-1.4c5.5-6.9,11-13.8,16.5-20.9c-5-4.5-8.6-2.7-12.5,1.2c0.5-1.5,1.1-3.1,1.9-5.4
		c-57.3-20.1-112.7-43.8-166.2-72C481.7,290.5,481.8,289.8,482,289.1z"/>
	<path d="M640.5,287.9c-11.7-3.5-23.8-6.2-35.2-10.5c-37.3-14.2-74.4-29.1-108.8-49.7c-6-3.6-11.7-7.6-17.5-11.6
		c-1-0.7-1.3-2.2-2-3.3c1.4,0.1,3.2-0.4,4.2,0.2c28.4,17.2,57.9,32.1,88.8,44.2c23.8,9.3,47.5,19,71.2,28.5
		C641,286.4,640.8,287.2,640.5,287.9z"/>
	<path d="M564.5,121.2c38.9,17.2,78.2,34.5,117.4,51.8C663.5,173.1,569.7,130.6,564.5,121.2z"/>
	<path d="M507.5,266.9c-16.1-8.1-31.3-15.7-46.3-23.4c-1.1-0.6-1.7-2.4-2.5-3.6c1.4,0,3.1-0.5,4.3,0.1c15.9,7.6,31.8,15.4,47.6,23.2
		c1.8,0.9,2.9,2.9,4.4,4.4c-2.1-0.1-4.3-0.1-6.4-0.3C507.8,267.2,507.1,266.7,507.5,266.9z"/>
	<path d="M602.7,310c1.8-4.9,4.1-6.6,8.6-4.2c2.9,1.5,6.3,2.2,9.1,3.8c1.3,0.8,1.9,2.8,2.9,4.2c-1.8,0.7-3.9,2.5-5.3,2.1
		C612.8,314.4,608,312.2,602.7,310z"/>
	<path d="M500.3,195.3c9.7,4.7,19.5,9.3,29.2,14.1c0.4,0.2,0.4,2.6,0.1,2.7c-1,0.4-2.6,0.7-3.4,0.2c-6-3.5-12-7.1-17.9-10.8
		c-2.8-1.8-5.6-3.8-8.3-5.7C500,195.7,500.1,195.5,500.3,195.3z"/>
	<path d="M696.9,301.3c-6.6,3.3-19.2-0.8-21.8-7.1C680.8,291.8,691.4,295.3,696.9,301.3z"/>
	<path d="M650.3,321.2c-5.2,4.9-13.9,5-17.3,0.8c-0.8-0.9-0.6-3.1,0-4.4c0.4-1,2.4-2.2,3.2-1.9C640.7,317.2,645.2,319.2,650.3,321.2
		z"/>
	<path d="M544.3,281c-2.3,0-4.8,0.5-6.9-0.1c-3.7-1.1-7.2-2.8-10.6-4.6c-1.1-0.6-1.6-2.3-2.4-3.5c1.4-0.6,3.1-2.2,4-1.8
		c5.5,2.3,10.8,5.1,16.2,7.7C544.5,279.5,544.4,280.3,544.3,281z"/>
	<path d="M570.8,289.5c-2.5,2-4.1,4.2-5,3.9c-4.5-1.4-8.8-3.3-13.1-5.2c-0.5-0.2-0.7-2.4-0.2-3.2c0.5-0.8,2.2-1.7,3-1.4
		C560.2,285.2,564.8,287.1,570.8,289.5z"/>
	<path d="M593.7,299.9c-1.2,5.9-3,6-14.7-0.2C580.9,293.5,587.7,294.9,593.7,299.9z"/>
	<path d="M479,188.7c3.1-8.3,9.4-12.1,15.7-16.7C495,177.3,486,186.9,479,188.7z"/>
	<path d="M552.4,193.6c3.9,1.3,7.9,2.4,11.7,4c0.9,0.4,1.3,2.3,1.9,3.4c-1.3,0.4-2.9,1.4-3.8,1c-3.8-1.7-7.4-3.8-11.1-5.7
		C551.5,195.5,551.9,194.6,552.4,193.6z"/>
	<path d="M667.3,328.2c-0.7,7.3-2.7,7.1-15.4,1C657.2,324,662.2,329.7,667.3,328.2z"/>
	<path d="M320.5,384.5c4.8-7.6,48.2-27.2,71.1-31.2C367.9,363.7,344.3,374.1,320.5,384.5z"/>
	<path d="M476.4,504c-12.2-4.9-24.5-9.5-36.6-14.7c-20.1-8.7-40-17.8-60.1-26.6c-16.2-7.1-32.4-14.1-48.7-20.9
		c-6.2-2.6-10-6.9-12.9-14.2c3.1,1.2,5,1.9,7,2.8c28.7,12.8,57.4,25.8,86.2,38.4c15.8,6.9,32,13.2,48,19.8c7.2,3,13.3,7.3,17.9,13.7
		C477,502.9,476.7,503.5,476.4,504z"/>
	<path d="M518.9,519c-10.6-2.2-19.7-6.1-26.5-15.2C505.3,504.6,517.1,511.3,518.9,519z"/>
	<path d="M556.3,531.5c-9.1-1.6-19.1-1.3-23.9-11.7C541.1,522.3,549.7,524.8,556.3,531.5z"/>
	<path d="M507.1,526c-5.4-2.1-10.7-4.3-16.1-6.4c0.2-0.5,0.4-0.9,0.6-1.4C496.7,520.9,503.3,520.2,507.1,526
		C507.1,526.1,507.1,526,507.1,526z"/>
	<path d="M683,99.4c-37.8-10.7-76.1-20.7-103.3-52.6c16.7,9.6,33,20.1,50.3,28.4c17.4,8.4,35.8,14.7,53.8,21.9
		C683.6,97.9,683.3,98.6,683,99.4z"/>
	<path d="M702.4,59.5c2.2,2.5,5,4.7,6.5,7.6c8.9,17.9,15.9,36.4,18.8,56.2c0.4,2.4,0.3,5-0.3,7.6C720.1,106.9,714.7,82.4,702.4,59.5
		z"/>
	<path d="M712.9,57c11,13.8,15.9,30.1,16.8,47.9C724.1,89,718.5,73,712.9,57z"/>
	<path d="M614.9,31.8c6.5-6.9,24.1-9.5,31.8-4.6C635.1,28.9,625,30.4,614.9,31.8z"/>
</g>
</svg>
