<?xml version="1.0" encoding="utf-8"?>
<!-- Generator: Adobe Illustrator 19.0.0, SVG Export Plug-In . SVG Version: 6.00 Build 0)  -->
<svg version="1.1" id="Calque_1" xmlns="http://www.w3.org/2000/svg" xmlns:xlink="http://www.w3.org/1999/xlink" x="0px" y="0px"
	 viewBox="-41 164.9 512 512" style="enable-background:new -41 164.9 512 512;" xml:space="preserve">
<path d="M457.1,170.5c10.1,7,15.4,19.1,13.5,31.2l-64,416c-1.5,9.7-7.4,18.2-16,23s-18.9,5.4-28,1.6L243,592.6l-68.5,74.1
	c-8.9,9.7-22.9,12.9-35.2,8.1S119,658.1,119,644.9v-83.6c0-4,1.5-7.8,4.2-10.7l167.6-182.9c5.8-6.3,5.6-16-0.4-22s-15.7-6.4-22-0.7
	L65,525.7l-88.3-44.2c-10.6-5.3-17.4-15.9-17.7-27.7s5.9-22.8,16.1-28.7l448-256C433.8,163,447,163.6,457.1,170.5L457.1,170.5z"/>
</svg>
