<?xml version="1.0" encoding="utf-8"?>
<!-- Generator: Adobe Illustrator 19.0.0, SVG Export Plug-In . SVG Version: 6.00 Build 0)  -->
<svg version="1.1" id="Calque_1" xmlns="http://www.w3.org/2000/svg" xmlns:xlink="http://www.w3.org/1999/xlink" x="0px" y="0px"
	 viewBox="755 -49.5 2105.3 939.4" style="enable-background:new 755 -49.5 2105.3 939.4;" xml:space="preserve">
<style type="text/css">
	.st0{fill:#FFFFFF;}
</style>
<g>
	<path class="st0" d="M2091.6,81.9c25.1,8.4,50.2,16.8,75.4,24.9c1.9,0.6,5.2-0.4,6.8-1.8c16.9-14.2,33.4-28.9,50.4-42.9
		c35.4-29.3,70.5-59,106.8-87.1c17.8-13.9,39-22.1,62.1-24.1c19-1.7,37.2,2.7,55.2,8.2c3.7,1.1,7.4,2.2,11.2,3.1
		c13.4,3.1,21.6,13.4,30.8,22.3c3,2.9,6.2,5.7,9.1,8.7c16.2,16.6,24.5,37.5,28.5,59.4c5.6,30.5,9.1,61.5,12.7,92.3
		c3.6,31.6,6.3,63.2,9.4,94.8c0.6,5.7,0.8,11.4,2,17c0.5,2.4,2.7,5.3,4.9,6.4c20.4,10.2,41.2,19.7,61.4,30.2
		c43.7,22.6,87.3,45.1,130.5,68.6c18.1,9.9,35.3,21.6,52.2,33.6c10.9,7.7,20.8,16.9,30.5,26c22.2,20.9,29.4,47.5,28.8,77.2
		c-0.3,18.6-4.3,36.3-15.9,50.7c-18.1,22.4-39.7,40.5-68.6,48.2c-29.4,7.8-59.1,12.6-89.7,13.2c-27.8,0.6-55.6,1.6-83.2-2.2
		c-22.2-3-44.3-7.6-66.1-12.6c-36.3-8.4-72.6-17.3-108.6-26.7c-18.5-4.8-36.6-11.1-54.8-17c-21.2-6.9-42.5-13.6-63.3-21.5
		c-35.4-13.5-70.8-27.2-105.7-42c-39-16.6-77.5-34.2-115.9-51.9c-16.8-7.7-33.2-16.6-49.5-25.3c-14.8-7.9-29.5-16-43.9-24.6
		c-26.7-15.8-53.1-32.2-79.8-47.9c-29.4-17.3-53.7-40.8-77.7-64.6c-23.1-23-43.7-47.9-60.7-76c-12-19.8-16.8-41-16.5-63.7
		c0.1-8.5-1-17.4,0.9-25.5c8.3-35.6,32.8-57.4,64.5-72.2c16-7.5,33.5-6.7,50.5-6c22,0.8,43.7,4.1,65.2,10
		c41,11.3,82.2,21.6,123.3,32.5c9.1,2.4,17.9,5.6,26.9,8.5C2091.5,82,2091.5,81.9,2091.6,81.9z M2644.4,415.9
		c-8.4,0-16.8,0-25.2-0.1c0,0.8,0.1,1.6,0.1,2.4c8.3-0.8,16.7-1.7,25-2.5c5.6,0.3,11.2,0.7,16.8,1c0-0.9,0-1.7,0-2.6
		C2655.5,414.8,2650,415.3,2644.4,415.9z M2464.2,510.9c-0.1,1.7-1,4.1-0.2,4.9c2.2,2.3,14.3,1.6,18.6-1.5
		c-5.3-0.5-9.4-0.7-13.4-1.3C2467.5,512.7,2465.8,511.6,2464.2,510.9c-1.2-1.4-2.1-3.7-3.6-4.2c-2.7-0.9-5.7-1-8.6-1.1
		c-4.4-0.2-8.7-0.1-13.1-0.1C2443.7,510.1,2445.4,510.4,2464.2,510.9z M2493.8,316.6c-2.8,5.4-6,10.7-2.5,17.2
		c7.5-5.5,8.6-8.5,6.6-15.9c-0.9-3.2-2.3-2.6-4.2-1.2c3.4-4.4,3.1-9.1,2.3-14.5c-0.9-5.5-3.1-6.2-8.3-4.5c0.6,6.8,1.1,13.5,1.8,21.5
		C2491.6,317.9,2492.7,317.3,2493.8,316.6z M2109.1,215.7c3.7-3.2,7.4-6.3,10.9-9.7c0.8-0.8,0.8-2.4,1.1-3.6c-1-0.1-2.2-0.7-2.9-0.3
		c-4.8,2.8-9.6,5.7-15.5,9.4c2.9,1.8,4.7,3,6.6,4.1c-0.4,0.9-0.7,1.9-1.2,3c-3.6-1.9-6.9-3.7-10.3-5.5c-0.9-0.5-2.3-0.7-2.8-1.4
		c-2.8-4.7-4.4-4.9-8.2-0.1c7,3.3,13.8,6.8,20.8,9.8c1.7,0.7,4.5,0.6,6.1-0.3c4.7-2.5,9.1-5.5,13.5-8.5c1.1-0.7,1.4-2.5,2-3.9
		c-1.6-0.2-3.5-1-4.8-0.4C2119.2,210.6,2114.2,213.2,2109.1,215.7z M2267.3,476.5L2267.3,476.5c2.3,0.3,4.9,0,7,0.7
		c43.8,15.9,87.5,32,131.3,47.8c4.2,1.5,9.1,0.8,13.4,2.2c21.8,7,43.5,14.5,65.3,21.5c17.5,5.6,35.1,11.3,52.8,16.1
		c14.9,4,30.1,6.9,45.2,10.1c5.3,1.1,10.2,0.7,13.5-4.9c-6.1-3.8-10.9,1.6-16.7,1.8c0.6-1.6,1.1-2.8,1.8-4.5c-3.2-0.7-6-1.5-8.9-2
		c-37.7-7.2-74.8-16.9-111.4-28.1c-13-4-26-8.2-38.7-13.2c-27.2-10.7-54.3-22-81.3-33.2c-2.4-1-4.5-2.9-6.7-4.4
		c0.3-0.4,0.5-0.8,0.8-1.2c1.2,0.3,2.4,0.6,3.6,1.1c48.6,16.5,97,33.4,145.7,49.6c38,12.6,76.8,21.6,116.3,28.2
		c7.3,1.2,10.5-4,16.9-7.2c-3.7-1-5.6-1.7-7.5-2.1c-39.9-8.7-79.8-17-119.5-26.2c-15.7-3.6-31.1-8.4-46.3-13.9
		c-17.7-6.4-34.7-14.5-52.3-21c-47.6-17.6-95.5-34.3-143-52.3c-27.7-10.5-54.8-22.6-82.2-34.1c-4.4-1.8-8.6-4-12.9-6
		c0.9-0.5,1.7-0.5,2.3-0.2c39.4,14.8,78.7,29.7,118.1,44.5c27.9,10.5,55.9,20.7,83.9,31.2c20.9,7.8,41.6,15.9,62.5,23.4
		c4.9,1.8,10.4,1.8,15.6,2.7c0.2-0.8,0.3-1.6,0.5-2.3c-5.1-1.8-10.2-3.5-15.3-5.3c-35.7-13-72-24-107.1-38.7
		c-27.6-11.6-55.4-22.6-83.3-33.5c-23.8-9.3-48.1-17.4-71.7-27.4c-19.5-8.2-38.2-18.2-57.1-27.7c-12-6-23.5-13-35.4-19
		c-14.1-7.1-28.5-13.6-42.8-20.3c-0.5-0.3-1.3,0.1-2,0.1c-0.4,0.4-0.7,0.9-1.1,1.3c2.9,3,5.3,7.1,8.8,8.9
		c22.7,11.7,45.6,22.9,68.4,34.3c3.3,1.7,6.4,3.9,9.6,5.8c-0.2,0.5-0.5,0.9-0.7,1.4c-26.6-9.5-50.8-24.1-76.2-36.1
		c-0.5,0.4-1,0.7-1.5,1.1c2.7,5.5,5.3,11.1,8,16.5c11-2.5,28,8.3,29.4,18.3c-53.6-24.5-104.6-53.7-153.1-88.3
		c-1.3,8.8,3.6,12,9,15.3c18.1,11,36.1,22.1,54,33.4c4.8,3,9.1,6.6,13.7,9.9c-0.3,0.4-0.5,0.7-0.8,1.1
		c-29.1-12.9-55.1-31.1-82.3-47.7c0.8,2.1,1.9,3.9,3.4,5.1c6.4,4.9,12.7,10.3,19.6,14.3c32,18.4,64.2,36.4,96.4,54.5
		c10.2,5.8,20.5,11.5,30.6,17.4c2.2,1.3,3.3,2.9,3.7,6.3c0.5,4.6,3,10.7,6.6,13c11.6,7.3,24.3,13.1,36.4,19.8
		c6.3,3.5,11.3-0.1,17-1.5c-2.5-2-5-3.3-7.6-4.6c-9.3-4.4-18.7-8.7-27.9-13.3c-2.1-1.1-3.9-2.9-5.8-4.4c0.4-0.6,0.8-1.2,1.1-1.8
		c4.8,1.6,9.9,2.8,14.5,4.8c42.5,18.5,84.9,37.3,127.4,55.8c17.4,7.6,35,14.5,52.4,21.9c22.5,9.6,44.9,19.5,67.4,29
		c4.8,2,10,3.3,15,4.9c13.6,4.5,27.1,9.2,40.7,13.6c3.4,1.1,6.9,1.9,10.4,2.6c2.3,0.5,4.6,0.5,6.9,0.8c0,0.6-0.1,1.2-0.1,1.9
		c-9.2,0.4-18.4,0.8-27.5,1.2c0,0.9,0,1.7,0,2.6c4.5,0.5,8.9,1.5,13.4,1.3c8.8-0.5,17.6-1.9,26.4-2.4c5.1-0.3,10.3,0,15.2,1.1
		c5.1,1.1,9.9,3.8,15,5.2c12.7,3.5,25.5,6.7,38.3,10c25.3,6.5,50.6,13.1,75.9,19.5c2.5,0.6,5.2,0,7.9-0.1c0-0.6,0-1.2,0-1.8
		c-1.7-0.4-3.4-1-5.2-1.3c-34.1-6.2-67.1-16-99.9-26.9c-7.6-2.5-15-6-22.7-8.4c-20-6.3-40.5-11.3-60.2-18.5
		c-33.4-12.1-66.4-25.4-99.5-38.3C2283.9,483.6,2275.6,479.9,2267.3,476.5z M2465.3,261.4c-0.4,0-0.9,0-1.3-0.1
		c-0.1-1.4-0.2-2.8-0.3-4.3c-0.1-8.8-0.2-17.7-0.2-26.5c0-3-0.6-4.5-4.2-5c-26.2-3.7-51.6-10.8-76.1-20.4
		c-26.7-10.5-53.1-22-79.5-33.2c-1.3-0.6-2-2.6-3-4c1.7-0.2,3.8-1.1,5.2-0.5c19.4,8.1,38.5,16.7,58,24.5
		c29.4,11.9,59.6,21.6,90.5,28.7c9.5,2.2,9.3,1.9,10-7.9c0.3-4.9-1.6-6.3-5.9-7.2c-8.1-1.8-16.3-3.6-23.9-6.7
		c-27.3-11.1-54.3-22.8-81.4-34.3c-0.8-0.3-1.4-1.1-2.1-1.7c5,0.5,9.6,2,14,3.6c23.6,8.9,47,18.3,70.8,26.8c9,3.2,18.7,4.6,28.8,7
		c0.2-5.5,0.4-9.3,0.5-13.1c0.3-11.6,0.3-11.4-10.8-14.5c-50.8-14.1-100.8-30.6-148.2-54.2c-8.2-4.1-15.2-10.7-22.6-16.5
		c-1.7-1.3-2.5-3.9-3.7-5.8c6.1,3.3,10.7,7.9,16.3,10.9c9.6,5.3,19.5,10.6,29.8,14.4c45.2,16.8,90.7,33,136,49.4
		c1,0.3,2.1,0.3,3.7,0.5c0.2-5.8,0.1-11.4,0.7-16.8c0.5-4.3-0.9-5.9-5.1-7.3c-26.4-8.5-52.8-17.4-79.1-26.2c-3-1-5.9-2.4-8.9-3
		c-22.5-4.5-42.1-15.3-60.6-28.4c-2-1.4-3.5-3.6-5.2-5.5c0.4-0.4,0.8-0.9,1.1-1.3c50.1,25.7,103.6,42.7,157.5,61
		c0.2-10,0-18.6,0.6-27.2c0.4-4.9-1.3-6.6-5.7-8.1c-28.5-9.5-57-18.8-85.1-29.3c-20.8-7.8-41.3-16.6-59.7-29.3
		c-5.4-3.7-10.1-8.3-15.4-12.6c-18.6,20.1-36.9,40-55.7,60.4c2,1.9,4,3.9,6.2,6.1c2.2-2,4.1-3.5,5.7-5.2
		c11-11.6,21.8-23.2,32.9-34.7c2.8-2.9,6.3-5,9.5-7.5c0.6,0.7,1.3,1.4,1.9,2.1c-15.4,16.4-30.8,32.8-46.3,49.3
		c2.8,3,5.6,5.9,8.3,8.8c-0.5,0.6-0.9,1.1-1.4,1.7c-2.8-1.8-5.9-3.2-8.4-5.4c-2.9-2.6-5.2-2.2-7.5,0.4c-3,3.4-6,7-9,10.4
		c-1.8,2-3.7,4-5.6,5.9c-0.6-0.5-1.2-0.9-1.8-1.4c1.5-2.7,2.7-5.8,4.7-8c2.5-2.8,5.9-5,8.8-7.5c2.5-2.1,4.7-4.1,1.2-7.6
		c-2.9-2.9-4.8-3.5-8.1-0.5c-6.3,5.6-13.1,10.8-19.7,16c-1.4,1.1-3.1,1.7-4.7,2.5c-0.2-0.3-0.3-0.7-0.5-1c2.6-2.9,5.3-5.8,7.3-8.1
		c-5.1-6.8-9.6-12.8-14.5-19.4c-1.2,1-2.7,2.2-4.2,3.5c-12.4,10.9-24.6,22-37.2,32.7c-7.4,6.3-7.6,13,0.2,19.4
		c3.4-2.2,6.7-4.5,10.1-6.7c0.5,0.6,1,1.3,1.4,1.9c-10.3,8.2-20.6,16.4-30.9,24.6c5.2,5.2,5.2,5.3,10,1.5c7-5.5,14-11.1,21.1-16.6
		c4.5-3.5,9.1-7.1,13.6-10.6c0.4,0.4,0.8,0.9,1.2,1.3c-2.6,2.4-5.1,4.9-7.7,7.3c-2.6,2.5-5.2,4.9-8,7.5c4.8,2.3,19.2-8,28-19.3
		c-4-2.6-7.9-5.2-11.8-7.7c-0.3,0.4-0.6,0.9-0.8,1.3c-0.4-3.4-0.8-6.7-1.3-11.1c4.9,3.1,7.2,1,9.7-1.9c2.3-2.6,5.3-4.5,8-6.7
		c0.6,0.6,1.1,1.2,1.7,1.8c-2.4,2.7-4.8,5.5-7.3,8.2c-2.2,2.3-5,4.8-0.9,7.5c3.1,2.1,5,9.4,10.7,2.9c1.1-1.3,3.1-1.8,4.7-2.7
		c0.5,0.6,1,1.2,1.4,1.8c-11.1,10.2-22.1,20.4-33.2,30.6c0.5,0.7,0.9,1.3,1.4,2c2-1.1,4.3-1.9,5.9-3.3c8.3-7.2,16.5-14.6,24.8-21.9
		c1-0.9,2.3-1.4,3.5-2.1c0.5,0.5,0.9,1.1,1.4,1.6c-10,9.4-20,18.7-30,28.2c6.4,4.8,6.4,4.9,11.3,0.6c8.3-7.3,16.5-14.7,24.8-22
		c1.6-1.4,3.3-2.6,4.9-3.8c0.4,0.5,0.8,0.9,1.2,1.4c-10.5,10-21.1,20-32.1,30.4c2.6,1.9,4.4,3.3,7.4,5.4c-3.3,3.6-6.3,7.1-9.5,10.4
		c-3.3,3.4-6.7,6.6-10.6,10.5c6.5,4.4,15.4,5.8,15.4,15.8c-2.7-1.1-5-2-8.1-3.3c-2,6-4,11.6-5.7,17.4c-2.8,9.4-3,9.8,5.8,14.4
		c20.4,10.6,40.7,21.5,61.7,30.8c31.1,13.9,62.8,26.5,94.2,39.7c1.4,0.6,2.7,1.4,4.1,2.2c-0.2,0.6-0.4,1.2-0.6,1.7
		c-9.8-3.1-19.5-6.1-29.3-9.2c3.3,2.3,6.8,4.3,10.5,5.8c30.5,11.6,61,23.1,91.4,34.8c3.2,1.2,4.6,0.2,6.8-2.3
		c7.5-8.7,13.9-18.7,24.4-24.8c0.1-4.8-0.4-10,0.3-14.9c0.5-3.7,2.6-7.3,7.2-9.2c-6.3,16.1-6,17.9,2.9,19.6c0.9-1.4,1.8-2.8,2.7-4.3
		c0.6,0.4,1.1,0.6,1.2,0.8c1.1,4.4,6.6,8.4,11,7.7c1-0.2,2.6-1.9,2.5-2.7c-0.8-8-1.8-16.1-3.1-24c-0.2-1.1-2.7-1.8-4.2-2.7
		c-0.7,1.3-1.7,2.5-2.2,3.9c-0.4,1-0.1,2.2-0.2,3.3c-0.1,0.9-0.4,1.7-0.6,2.6c-0.2-6.1-1.9-10-8.3-12.6c-6.4-2.5-10.4-0.6-14,3
		c-0.9-1.6-1.7-4.3-2.6-4.4c-2.2-0.2-5,0.3-6.6,1.6c-2.7,2.3-4.6,5.4-7.2,8.6c-3.8-6.1,2.7-7.8,2.9-11.4c-0.9-1.7-2.3-4-1.7-5.1
		c1-1.7,3.9-4.1,5.1-3.7c4.6,1.6,6.2-1.2,8.4-4.1c1.8-2.3,4.3-3.9,6.6-5.9c0.5,0.5,1,1.1,1.5,1.6c-2.3,3.1-4.6,6.2-6.9,9.4
		c9.4,5.3,18.5,8.1,28.7,4.4c-1-25.7-2.1-52.1-3.2-78.6c-0.5,0-1,0-1.6,0c-3.2,21.3-0.6,42.8-2.3,64.3c-1.5-2.3-2.2-4.7-2.3-7.1
		c-0.2-11.2-0.2-22.5-0.4-33.7c0-1.8-0.9-3.7-1.4-5.5c-0.8,0.1-1.7,0.1-2.5,0.2C2466.8,238.4,2466.1,249.9,2465.3,261.4z
		 M2146.9,327.5c-0.3,0.8-0.5,1.5-0.8,2.3c0.3,2.7,0.1,5.6,1,8.1c4.7,13.7,10.1,27.3,14.4,41.1c1.4,4.4,2.9,7.4,7.3,9.2
		c28.6,12.1,57.2,24.5,85.8,36.5c2,0.9,5.4,0.3,7.4-0.8c12-7.2,23.7-14.8,35.5-22.3c0.9-0.6,2-1.1,2.6-1.9c3-3.9,4.5-2.7,5.7,1.3
		c1.2,3.9,2.3,7.8,4,11.4c6.3,13.5,12.6,27,19.3,40.3c1.1,2.2,3.7,4.2,6,5c25.5,9.1,51,18.1,76.6,26.8c1.8,0.6,4.6-0.3,6.4-1.4
		c11.2-7.3,22.1-15,33.5-22.2c4.7-3,10.1-4.8,15.2-7.1c-0.6,0.7-1.2,1.5-1.8,2.2c1.8,2.2,4.2,4.1,5.2,6.6
		c5.2,13.8,9.9,27.7,15.1,41.5c0.6,1.7,2.6,3.5,4.2,4c14.3,3.9,28.9,7.1,43.1,11.2c5.5,1.6,9.6,0.9,14.3-2.3
		c13.1-9,26.4-17.6,39.7-26c3.2-2,7.1-2.8,10.8-4.2c0.6,3,0.8,4.7,1.3,6.2c4.5,13.6,9.3,27.1,13.5,40.7c1,3.3,2.1,4.8,5.6,5.4
		c13.6,2.3,27.1,5.1,40.7,7.4c1.9,0.3,4.7-0.2,5.9-1.5c10.6-11,20.8-22.3,31.2-33.4c4.2-4.6,7.6-4,9.5,2.2c2,6.5,3.8,13.1,4.5,19.8
		c0.7,6.3-0.2,12.7-0.4,19.4c1,0,2.3,0.2,3.5-0.1c14.9-3.5,29.8-6.9,44.6-10.6c1.7-0.4,3.2-1.8,4.7-2.7c-4.6-0.4-8.7,0.4-12.7,1.3
		c-8.6,1.9-8.6,2-12-0.8c2.2-0.7,4.1-1.4,5.9-1.8c7.5-1.7,15.1-3.2,22.6-5.1c2.4-0.6,4.6-2.3,6.9-3.5c-0.3-0.5-0.5-1-0.8-1.5
		c-7.1,1.9-14,4.5-21.2,5.5c-7.9,1.1-14,4.5-19.6,9.9c-5.8,5.6-8.6,4.6-10-3.3c-1.5-8.1-2.2-16.4-3.8-24.5
		c-2.9-15-12.7-26.1-21.7-38.2c-4.1,6.3-7.8,11.8-11.2,17.4c-10.5,17.4-20.7,34.7-41.1,42.9c-4.9,2-5.9,0.9-7.5-2.9
		c-7.9-17.8-16-35.5-24.1-53.3c-2.7-6-5.6-11.9-8.6-17.8c-2-3.9-4.8-4.3-8.6-1.7c-4.1,2.8-8.5,5.1-13,7.2
		c-21.5,10.4-43.6,19.7-61.8,36c-7.3,6.6-10.2,5-13.3-4.4c-8.8-26.6-17.7-53.1-26.8-79.6c-1.9-5.6-6.3-8.1-12.2-4.9
		c-13.5,7.4-27.3,14.3-41.5,20.3c-18.1,7.7-37.8,11.3-54.3,22.8c-4.1,2.8-8.3,2.3-12.9-0.5c-6-3.6-6.4-9.5-8-15
		c-2.2-7.6-3.6-15.4-6.2-22.9c-5.2-14.7-11.1-29.1-16.6-43.7c-3.1-8.4-5.8-17-9.1-26.7c-5.5,2.5-10.1,4.3-14.6,6.5
		c-7.1,3.5-14,7.5-21.1,10.8c-16.5,7.6-33.2,14.9-49.7,22.5c-4.3,2-8.4,4.4-12.8,6.3c-7.3,3.2-12.1,1.8-15.8-5.1
		c-4.2-8-8.6-16-11.5-24.5c-5.5-16.2-10.1-32.7-14.8-49.2c-3.4-11.6-6.4-23.2-9.7-35.1c-1.4,0.5-2.1,0.6-2.7,0.9
		c-10.6,5.8-20.9,12.4-31.9,17.4c-18.8,8.6-37.8,16.4-55.2,27.8c-9.2,6-10.7,5.7-15.4-4c-15.3-31.3-29.8-62.9-35.5-97.7
		c-0.1-0.7-0.6-1.3-1.1-2.3c-1.9,0.7-3.6,1.3-5.3,1.9c-16.9,6.3-33.8,12.3-50.5,18.9c-11.3,4.5-22.2,9.8-33.2,14.8
		c-1.5,0.7-2.6,2-3.9,3c9.5-2.7,18.3-6.4,27.3-9.7c8.9-3.3,18.1-5.6,27.9-5.2c-15.7,8.7-34.6,8.8-50.2,20c6.4,4.6,12,8.8,17.8,12.5
		c1.2,0.8,3.8,0.1,5.4-0.7c9.6-5.1,18.9-10.8,28.5-15.6c4.1-2,8.9-2.6,12.7-3.6c1.6,3.2,2.5,5.3,3.6,7.2
		c6.9,11.3,13.9,22.6,20.8,33.9c0.9,1.6,1.8,3.3,2.1,5.1c1.9,12.5,9.9,20.2,20.4,25.8c11,5.8,22.3,11,33.4,16.8
		c3.3,1.7,5.4,0.8,8.4-0.9c12-6.7,24.1-13.4,36.7-19C2134.3,328,2140.9,328.4,2146.9,327.5z M2213.5,393.2c2.5-1.4,3.5-2,4.7-2.6
		c15.1-7.8,29.8-16.7,45.5-23.2c16.6-6.9,34.1-11.8,49.6-21.3c8.8-5.4,10.3-2.4,13.5,5.5c3.5,8.7,7,17.4,10.4,26.2
		c4.8,12.5,10,24.9,14.2,37.6c3.5,10.4,5.9,21.3,8.8,31.9c1.7,6.3,3.9,7.7,8.6,5c28-16.1,58.2-27.3,88.2-38.9
		c6.3-2.5,12.9-4.4,19.5-6.1c1.6-0.4,4.8,0.7,5.3,1.9c6.6,16.4,13.1,32.8,19.1,49.4c4.1,11.4,7.5,23.1,11.1,34.7
		c0.6,1.9,0.5,4,0.7,6.1c4.6-2.1,6.6-3.7,8.6-5.2c20.9-16.5,44-28.8,69.5-36.6c3.2-1,6.1-3.1,9.1-4.5c1.1-0.5,2.6-1.1,3.5-0.7
		c4.6,2.2,8.9,4.7,10.9,10c2.2,5.6,4.9,11,7.1,16.7c6.4,16.5,12.6,33,19,49.5c0.3,0.8,0.9,1.5,1.4,2.4c1.4-0.7,2.8-0.9,3.7-1.7
		c6.1-6,12.7-11.5,17.9-18.2c9.3-12.1,17.9-24.6,26.2-37.4c3.9-6,4.7-6.8,10.2-2.4c1,0.8,1.8,1.8,2.6,2.8
		c14.1,16.4,24.5,34.5,24.6,57c0,1.8,0.7,3.6,1.2,6.5c3.3-3.1,5.7-5.4,8.1-7.6c11-10.4,21.7-21,32.9-31c5.9-5.3,10.8-11,13.5-18.4
		c0.7-1.9,1.4-3.9,2.6-5.4c0.9-1.1,2.6-2,3.9-2c0.7,0,1.6,2.1,2.1,3.3c0.6,1.3,0.4,3.1,1.3,4c7.8,8.4,12.4,18.5,15.8,29.2
		c2.1,6.5,3.8,13.2,5.9,20.6c1.6-2.6,2.9-4.4,3.9-6.3c8-15.3,12.4-31.8,16.5-48.4c0.6-2.3-0.9-5.2-1.5-7.8c-0.5,0.1-1,0.1-1.5,0.2
		c-0.8,4.5-1.2,9-2.5,13.3c-1.2,4,0.2,9.7-5.1,11.6c-5.5-11-10.9-21.2-15.7-31.7c-2.1-4.5-4.5-3.9-7.7-2c-4.4,2.6-8.7,6.9-13.3,7.4
		c-9,1-11.7,7.3-15.9,13.4c-5.8,8.2-12.7,15.7-19.4,23.3c-1.8,2-4.5,3.3-8.3,5.9c-2.6-7.7-4.9-14-6.8-20.4c-1.4-4.9-2-10.1-3.7-15
		c-0.6-1.8-3-3.8-4.9-4.2c-15.4-3.4-31-6.4-46.5-9.6c-3.5-0.7-5,0.5-6.9,3.5c-6,9.2-12.4,18.2-19.1,27c-1.5,2-5,3.3-7.5,3.3
		c-1.1,0-2.5-4-3.3-6.3c-0.7-2.1-0.6-4.4-0.9-6.5c-1.4-8.3-2.9-16.6-4.4-24.8c-0.8-4.6-3.4-7.2-8-8.7c-14.4-4.5-28.6-9.5-43-14
		c-2.1-0.6-5.1,0-7,1.2c-12.7,7.8-25.2,16-37.8,24c-13.5,8.6-18.6,5.9-20.6-10.1c-1-8.4-2.5-16.7-3.8-25.1c-0.6-3.7-1.2-7.4-2-11.9
		c0.3,0.2-0.1-0.3-0.6-0.4c-23.7-9.1-47.5-18.2-71.3-27c-1.6-0.6-4.3,0.4-5.8,1.5c-5.1,3.6-10,7.6-15,11.3
		c-8.9,6.6-17.9,13.1-28.1,20.6c-2.9-4.2-7-8.6-9.1-13.8c-5.5-13.6-10.3-27.5-14.8-41.5c-1.1-3.4-2.6-4.8-5.5-5.9
		c-13.3-5.4-26.5-11-39.9-16.3c-13.3-5.3-26.7-10.5-40.2-15.4c-2.3-0.8-5.6-0.7-7.7,0.4c-15.7,8.9-31.1,18.2-46.8,27.1
		c-2.9,1.7-6.6,2.2-8.9,2.9c-0.4-4-0.4-7.1-1.2-10c-2.4-9.1-5.2-18.1-7.7-27.1c-2-7.1-3.9-14.2,0-21.4
		c-13.4-5.4-26.3-10.6-40.4-16.2c2.7,8.6,5,16,7.4,23.3c7.7,23.8,15.3,47.7,23.2,71.4C2207.1,381,2210.5,386.7,2213.5,393.2z
		 M2522.4,149.9c9.3,0.2,10.3-1,9.1-8.8c-0.7-4.4-1.2-8.8-1.7-13.1c-2.8-23.4-3.6-47-10.1-69.9c-7.4-26.3-18.4-50.2-41-66.8
		c-21.9-16.1-45.3-27-73.8-27.7c-32.2-0.8-59.1,10.6-83.7,29c-21.5,16.2-42.1,33.8-62.5,51.5c-16.1,14-31.4,28.9-46.9,43.6
		c-1,0.9-2,3.1-1.5,4c3.3,6.6,6.9,13.1,10.9,20.3c5.7-5.7,10.6-10.7,15.5-15.5c-6.6-9.1-6.6-9.1-4.9-15.1c3.6,4.5,6.6,8.2,9.4,11.8
		c10.5-11,20.5-21.7,30.8-32.1c13.5-13.5,27.3-26.7,40.8-40.2c2-1.9,3.4-4.4,4.5-5.9c4.8-2.2,9.2-4.2,13.7-6.2
		c0.2,0.3,0.3,0.5,0.5,0.8c-2.2,2.4-4.3,4.7-6.4,7c16.3,17.6,118.2,61.8,144.4,62.4c-0.3-2.7-0.6-5.4-1-8c-0.6-4-1.4-8-2-12
		c-0.8-5.2-1.1-10.6-2.7-15.5c-0.7-2.2-3.7-4.4-6.2-5.3c-4.8-1.8-10.1-2.4-14.8-4.2c-11.1-4.2-22.3-8.3-33-13.5
		c-14.2-6.9-28.2-14.2-41.7-22.4c-6.3-3.8-11.6-8.9-19.3-3.8c-0.1,0-0.3-0.2-0.6-0.4c2.7-3.1,5.4-6.3,8.6-10.1
		c28.9,25.3,65.6,36.6,101.2,50c0.9-0.6,1.9-1.2,2.8-1.9c-2.8-3.9-5.6-7.8-8.3-11.8c1-0.5,1.9-1,2.9-1.4c4.3,6.7,8.6,13.5,12.8,20.1
		c-0.7,8.2,4,15.5,5.9,23.4c2,8,5,15.8,6.5,23.9c1.5,8,1.7,16.2,2.4,24.3c1,0,2,0.1,2.9,0.1c0.7-4.2,1.6-8.4,2.2-12.6
		c0.3-2.5-0.2-5.2,0.2-7.7c0.2-1.6,1.3-3.1,2.1-4.7c0.5,0.2,1.1,0.3,1.6,0.5c0,6,0,12-0.2,17.9c-0.1,1.5-0.8,3.3-1.8,4.5
		c-3.7,4.4-0.8,5.1,3,5.7c0.9-2.2,1.7-4.1,2.5-6.1c-0.1,5.1,0.6,9.2,7.4,10.8c-3,0.3-4.6,0.5-6.9,0.7c0,10.3,0,20.4,0,30.4
		c3.4-6.3-0.3-13.8,4.4-21.2c2.7,8.4-1.1,16.5,4.1,23.2c1.1-2,1.7-4,1.7-5.9c0.2-30.5-1.9-60.7-9.7-90.3c-0.5-1.8-0.1-3.8-0.1-5.7
		c0.7-0.1,1.5-0.2,2.2-0.3c1.1,3.4,3.2,6.8,3,10.1c-0.5,11.3,3.6,21.6,5.7,32.3c0.8,3.8,1.3,7.6,1.5,11.5
		c0.8,14.7,1.3,29.4,2.2,44.1c0.1,1.4,2.1,3.6,3.5,4c2.9,0.7,3.6-1.6,3.3-4.2c-0.2-1.6,0.1-3.3-0.1-5c-2.9-25.2-5.6-50.4-8.8-75.6
		c-1.7-13.4-4.2-26.6-6.3-39.9c0.6-0.1,1.1-0.2,1.7-0.3C2513.4,67.1,2520.9,107.8,2522.4,149.9z M1957.4,172.9c-2.9-1.7-5-2.9-7-4.1
		c-5.4-3.2-10.7-6.6-16.2-9.5c-1.5-0.8-3.8-0.4-5.6,0c-0.5,0.1-1.2,2.9-0.7,3.3c3.7,3.6,1,7.6,0.8,11.4c-1,26.2-1.5,52.4,1.4,78.6
		c0.2,1.5,0.7,3,1.1,4.9c1.2-0.5,1.9-0.7,2.5-1c13.3-6.2,26.5-12.8,40-18.4c17.4-7.2,35.2-13.5,52.8-20.3c8.3-3.2,8.3-2.9,9.2,6
		c0.9,8.5,2.3,17.2,5.1,25.2c6.7,19.5,14.3,38.7,21.4,58c2.4,6.5,4.5,13.1,6.7,19.8c10-5.7,18.9-11.5,28.5-16.1
		c19.4-9.4,39.1-18,58.6-27.2c3.4-1.6,6.3-4.5,10.4-7.6c-10.5-5-19.5-9.4-28.7-13.7c-0.8-0.4-2.3-0.2-3.1,0.3
		c-12.2,6.5-24.3,13.1-36.4,19.6c-4.3,2.3-8.8,4.2-12.8,6.9c-4.4,2.9-6.3,0.6-6.8-3.2c-2.2-16.6-4.3-33.2-5.9-49.8
		c-0.3-3.5-1.1-5.2-4.1-6.7c-20-9.8-39.7-20.2-60-29.4c-4.3-1.9-11.3-1.2-15.6,1c-7.7,3.9-14.2,10-21.6,14.7
		c-4.8,3.1-9.9,5.6-15.2,7.7c-3.3,1.3-5.9,0.4-5.9-4.4c0.2-12.5,0.1-25-0.2-37.4C1950.1,176.5,1952.2,173.8,1957.4,172.9z
		 M1860.6,75.1c-0.4,0.9-0.9,1.6-0.7,1.9c4.6,7.6,8.1,16.3,14.1,22.7c23.3,24.6,50.1,44.9,79.5,61.6c20.6,11.7,41.7,22.5,62.7,33.4
		c12.4,6.4,25.2,12.2,37.8,18.2c10.8,5.1,21.7,10.1,32.4,15.4c5.1,2.5,9.7,5.9,14.8,8.2c10.3,4.5,20.8,8.3,31.1,12.8
		c10.3,4.4,20.5,9.1,30.6,14c6.3,3,12.1,6.9,18.5,9.6c17.3,7.2,35.1,13.5,52.3,21c67.9,29.6,137.3,55.2,207.1,79.8
		c39.2,13.8,78.3,27.8,117.5,41.7c1.4,0.5,2.7,1.1,4.1,1.5c16.2,5.6,32.1,11.9,48.5,16.5c23.3,6.5,47.2,11.2,70.6,17.7
		c27.8,7.7,56.3,8.8,84.8,9.5c10.8,0.3,21.3-1,30.8-7c0.7-0.4,1.2-1.2,1.6-1.6c-8.6,0.8-16.9,1.6-25.3,2.4c-0.1-0.7-0.2-1.3-0.4-2
		c1.8-1,3.6-1.9,6.6-3.5c-2.4,0.1-3.7,0.1-4.8,0.3c-35,6.8-69.1,0.6-102.9-7.8c-23.9-5.9-47.5-12.8-71.1-19.8
		c-21.9-6.5-43.8-13.1-65.3-20.6c-32.4-11.3-64.7-23.4-96.9-35.4c-39.9-14.9-79.7-29.9-119.4-45.1c-17.5-6.7-34.9-14-52.3-21.1
		c-17.4-7.1-34.9-13.9-52.2-21.4c-17-7.4-34-14.6-50.7-22.7c-13.1-6.4-26.5-11.9-39.9-17.8c-17.9-7.8-36.1-15-53.6-23.5
		c-17-8.2-33.4-17.6-50.2-26.3c-16.3-8.5-32.8-16.7-49-25.4c-8.7-4.7-16.9-10.3-25.3-15.5c-8.9-5.4-18.5-10-26.6-16.4
		c-14.4-11.4-27.8-24-39.1-38.7c-0.2-0.2-0.6-0.3-1-0.5c-0.3,1-0.6,1.9-1.1,3.3c-2-1.6-4.1-2.6-5.5-4.2
		C1868.8,85.5,1864.9,80.4,1860.6,75.1z M2049.9,158.1c-0.3-3.1-0.5-5.8-0.7-8.5c-2,0.7-4.1,1.4-5.9,2.1c-0.9-2-1.2-5.3-2.8-6.2
		c-6.2-3.5-12.7-6.3-19.3-9.1c-1.4-0.6-3.5,0.2-5.4,0.4c-1.7-3.8-25.9-13-31.9-11.7c0.2,3.2,0.7,6.5,0.5,9.7c-0.2,3.5,1.3,5,4.5,5.8
		c3.4,0.9,6.7,1.9,10,3.2c5.6,2.1,11,4.4,16.5,6.6c-0.2,0.6-0.5,1.2-0.7,1.8c-17.3-5-34.5-10-51.8-15c-2.2,6.1-0.5,9.1,3.6,11.5
		c11.3,6.4,23.1,11.2,35.8,14c11.4,2.5,22.6,6.2,33.9,9.6c1.7,0.5,3.2,1.9,4.7,2.8c-0.2,0.6-0.5,1.2-0.7,1.8
		c-6.4-1.9-12.8-3.9-19.2-5.6c-6.4-1.7-12.9-3.1-19.4-4.6c-0.2,0.5-0.4,1-0.6,1.5c2,1.1,3.9,2.4,5.9,3.4c9.7,4.9,19.5,9.4,29,14.6
		c17,9.4,40-2.5,42-21.6c-4.5-2.6-8.9-5.1-13.3-7.6C2056.4,152.4,2056.4,152.4,2049.9,158.1z M2303.2,35.1
		c54.9,35.4,115.8,52.2,176.2,74.9c-1.4-8.2-2.4-14.5-3.4-20.8c-0.4,0-0.7,0.1-1.1,0.1c-0.4,4.1-0.9,8.2-1.3,12.3
		c-0.5,0-0.9-0.1-1.4-0.1c-0.4-4.2-0.4-8.4-1.4-12.5c-0.5-2.1-2.5-4.8-4.4-5.3c-11.6-3.3-23.5-5.7-35-9.2
		c-38.5-11.9-75.6-26.8-107.7-52c-1.2-0.9-4.1-1.3-5.1-0.5C2313.6,25.8,2309,30,2303.2,35.1z M1850.3,74.4
		c-11.7,34.3-17.9,69-13.2,105.9c28-10.4,53.6-27.1,84.7-27.2c-6.9-5.6-13.9-9.9-20.5-14.8c-3.2-2.4-6.1-3-9.7-1.6
		c-10.6,4-21.4,7.5-31.9,11.9c-8.5,3.5-11.1,2.5-11.3-6.8c-0.2-14.5,1.7-28.8,7.2-42.2C1860,89.1,1853.9,82.3,1850.3,74.4z
		 M1786.5,190.8c-0.5,0.4-1,0.7-1.5,1.1c1.2,2,2.3,4,3.6,5.8c17.9,25.4,37.5,49.5,59.5,71.6c20.9,21,42.1,41.9,67.3,57.7
		c33.7,21,68,40.9,102.1,61.2c1.3,0.8,2.9,1.2,4.7,1.9c0.8-4.8-0.4-8.3-4-10.5c-3.5-2.2-7.3-4.1-10.9-6.1
		c-23-12.3-46.7-23.5-69-36.9c-40.8-24.6-73.7-58.8-106.2-93c-5.8-6.1-9.1-14.5-13.8-21.8c-1.3-2-3.8-5.3-5-5.1
		c-5.6,1.3-6.9-2.4-8-6.1C1802.3,200.6,1793.7,196.4,1786.5,190.8z M2161.8,116.2c0.2-0.7,0.4-1.4,0.6-2c-2-1.1-3.9-2.5-6-3.2
		c-25.5-8.4-50.9-17.1-76.5-24.9c-34.9-10.5-70-20.4-105.1-30.2c-14.3-4-28.8-7.3-43.4-10.5c-9.9-2.2-19.8-3.7-29.8-5.5
		c-9.6-1.7-19-0.5-28.2,2.7c-1.3,0.4-2.6,1.4-3.3,2.6c-2.3,3.3-4.5,6.7-6.2,10.4c-1.1,2.2-1.9,5-1.5,7.3c1.1,7.1,5.4,12.7,10.4,17.7
		c0-1.4-0.4-2.6-0.8-3.8c-2.7-8.7-3-17.4,1.2-25.7c0.9-1.8,3.1-3.9,5-4.3c18.9-3.7,37.8-0.9,56.2,2.8c23.4,4.8,46.6,10.9,69.5,17.6
		c38.6,11.4,77,23.6,115.4,35.6c12.3,3.9,24.4,8.4,36.6,12.6C2157.7,116.1,2159.8,116,2161.8,116.2z M1859.7,41.6
		c-9.6,1.8-19.2,2-27.4,5.5c-12.5,5.3-24,12.7-35.8,19.6c-2.7,1.6-5.2,4.3-6.8,7c-2.8,5.1-4.9,10.7-7.2,16.1
		c-0.7,1.7-1.1,3.5-1.7,5.8c19.9-9.4,28.8-31.3,49.6-38.3c-7.2,7-14.3,14.1-21.5,21.1c0.4,0.7,0.9,1.4,1.3,2.1
		c12.6-6.3,25.4-12.1,38.6-12C1852.6,59.4,1856,51,1859.7,41.6z M2219.1,297.8c0,17.6,6,32.5,11,48.2c15.4-8.6,29.9-16.7,45.7-25.5
		C2256,312.6,2238,305.4,2219.1,297.8z M2096.9,355.2c-0.1,0.6-0.1,1.2-0.2,1.8c19.6,7.9,39.2,15.7,59.2,23.7
		c-0.7-2.6-1.2-5.2-2-7.6c-3.5-9.9-7-19.7-10.6-29.6c-3.9-10.7-2.5-9.2-11.9-5C2119.8,343.7,2108.4,349.6,2096.9,355.2z
		 M2593.2,493.9c-15.2,10.1-28.9,19.1-42.9,28.4c17.8,10.6,36.9,11.6,56.7,15C2602.3,522.4,2597.9,508.8,2593.2,493.9z M2140,167.4
		c6.9-5.2,12.6-9.4,18.1-13.5c-3-4.8-5.4-8.7-7.7-12.4c-14.3,10-28.2,19.7-42,29.4c2.2,4.3,4.2,8.2,6.2,12.2
		c-0.8,0.6-1.6,1.2-2.4,1.8c-2.5-2.3-5.6-4.1-7.4-6.9c-2.3-3.5-4.5-3.8-7.7-1.9c-1.8,1-3.6,1.8-5.3,2.9c-12.4,8.5-12.1,5.6-2.4,18.2
		c2.5,3.2,4.6,3.2,7.8,0.9c13.3-9.7,26.8-19.2,39.8-28.5c-0.2-3.4-0.4-6.5-0.6-9.5c0.7-0.1,1.5-0.2,2.2-0.4
		C2138.9,161.8,2139.3,163.9,2140,167.4z M2435.2,380.5c-19-6.6-36.9-12.7-54.8-18.9c-0.4,0.4-0.8,0.7-1.2,1.1
		c5.8,15.5,11.6,31,17.5,46.8C2409.9,399.6,2421.9,390.5,2435.2,380.5z M2423.9,487.2c0.1,0.6,0.1,1.2,0.2,1.9
		c18.4,5.5,36.9,11.1,56.4,16.9c-6-16-11.3-30.2-17-45.4C2449.5,469.9,2436.7,478.6,2423.9,487.2z M2786.4,447.2
		c7.2,0.1,17.6-2.2,20.5-7c3.4-5.7,6.9-13.4,5.6-19.2c-1.5-6.7-7-13.7-12.7-18.1c-11.2-8.7-23.5-16.1-35.7-23.4
		c-23.6-14-47.1-28-71.3-40.9c-32.3-17.2-65.2-33.2-97.8-49.7c-1.6-0.8-3.6-1-5.4-1.5c-0.3,0.6-0.7,1.2-1,1.8c1.6,1.3,3.1,2.8,5,3.7
		c9.7,4.8,19.6,9.2,29.2,14.1c31.7,16.1,63.6,31.8,94.8,48.6c20.3,10.9,40,23.2,59.5,35.6c10,6.4,18.8,14.4,25.8,24.5
		c5.2,7.5,6,11.8-0.2,18.9c-2.3,2.6-5,4.8-7.7,6.9C2792.2,443.5,2789.3,445.2,2786.4,447.2z M1965.7,286.4c2.6,1.9,4,3.4,5.8,4.2
		c6.1,2.8,12.5,5,18.3,8.2c9.8,5.4,19.2,11.5,28.9,17.1c2,1.2,4.5,1.5,6.8,2.2c0.3-0.4,0.6-0.8,0.9-1.3c-5.5-10-11-19.9-16.4-29.9
		c-2.7-4.9-7.3-8.9-6.3-15.4c0.2-1.2-1.2-3.4-2.4-3.9c-0.9-0.4-2.7,1-4,1.7c-1.6,0.9-2.9,2.2-4.5,3
		C1984.1,276.9,1975.5,281.3,1965.7,286.4z M2128.7,257.3c-16.7-7.3-32.8-14.4-50-21.9c2,16.3,3.9,31.4,5.8,46.6
		C2099.4,273.7,2113.4,265.8,2128.7,257.3z M2531.9,457.7c14.7-9.3,28.9-18.3,44.3-28.1c-18.5-5.7-35.3-11-52.1-16.2
		C2526.7,428.1,2529.1,442.1,2531.9,457.7z M2265.5,428.9c18.6,7.5,35.8,14.3,50.7,20.3c-5.2-13.7-10.9-28.4-16.8-43.8
		C2288.2,413.2,2277.4,420.7,2265.5,428.9z M2636.1,395c-0.1,0.7-0.3,1.3-0.4,2c-13.8,1-27.5,1.9-41.7,2.9c0.8,0.7,1,1.2,1.3,1.2
		c11.9-0.5,23.7-1.1,35.6-1.3c4.1-0.1,8.7-0.1,12.2,1.5c10.3,4.7,20.3,10.2,30.3,15.6c5.2,2.8,10.1,6,15,9.2c1.5,1,2.4,2.7,3.6,4.1
		c-0.3,0.4-0.7,0.8-1,1.1c-2-1.1-4-2.2-6-3.4c-1.9-1.1-3.8-3.2-5.7-3.1c-5.3,0.1-10.6,1.1-15.9,1.7c17.7,9,37.3,10.7,56.5,14
		c-2-1.5-5.2-2.2-6.1-4c-4.9-9.5-12.3-16.3-21.9-20.6c-10-4.4-20.2-8.4-30.3-12.5c-9-3.7-18.1-7.3-27-10.8
		C2634.9,393.2,2635.5,394.1,2636.1,395z M1951.2,296.3c0.6-4.2,3.3-7.3-1.6-9.9c-7.6-4.1-14.8-8.8-22.3-13.2
		c-5.1-3-10.2-5.9-16.6-9.7c2.2,7.3,4.6,12.7,5.4,18.4c0.5,3.8,2,5.8,5,7.7c6.8,4.4,13.2,9.3,20.1,13.6
		c13.1,8.3,26.5,16.3,40.2,24.8c-0.6-12.2-7.6-18.9-23-23.2c-0.3,2.2-0.6,4.4-1.1,8.3c-1.5-2.8-2.6-4-2.7-5.3
		c-0.6-6.8-5.2-9.9-10.5-13c-5.8-3.3-11.2-7.4-16.8-11.1c0.2-0.4,0.5-0.8,0.7-1.1C1935.5,287,1943,291.4,1951.2,296.3z
		 M2823.6,479.2c3.2-12.1,2.9-22.3-1.1-32.4c-0.8-1.9-1-4-1.5-6c0.7-0.1,1.3-0.3,2-0.4c15.3,23.6,27.1,48.1,20.6,77.9
		c5.4-10.9,10.7-21.4,6.3-33.8c-3.9-10.9-5.9-22.6-10.6-33.1c-3.8-8.4-10.6-15.5-16-23.2c-0.5,0.1-0.9,0.3-1.4,0.4
		c-0.8,10-5.2,18.3-11.3,25.8c-0.5,0.7-0.7,2.3-0.3,3C2814.2,464.3,2818.5,471,2823.6,479.2z M1862.2,201.4c-5-4-9.6-7.1-13.5-10.9
		c-3.5-3.4-6.5-5.2-11.6-2.9c-4.5,2-5.5-0.1-5.9-5c-0.6-6.8-1.6-13.8-4.2-20.1c-2.3-5.6-6.9-10.3-10.4-15.4c-1.7-2.5-3.4-5-5.6-8.3
		c-2.2,5.3-2.4,9,0.6,12.8c2.7,3.5,4.7,7.4,7.1,11.1c-0.4,0.2-0.7,0.4-1.1,0.7c-2.5-2.6-4.9-5.2-8.5-9c0.1,5.9-0.1,9.9,0.4,13.9
		c0.2,2,1,4.4,2.4,5.6c12.6,11,25.4,21.8,38.1,32.7c2.3,1.9,4.2,1.8,6.3-0.2C1858.1,204.9,1859.9,203.4,1862.2,201.4z M1812.8,103.7
		c-2,0.5-2.9,0.6-3.6,1c-7,4.5-14.1,8.7-20.7,13.7c-2.2,1.7-3.7,5.1-4.2,8c-1.3,8-1.7,16,4.8,22.6c2.8,2.9,4.8,6.5,7.3,9.7
		c1.1,1.4,2.7,2.5,5.3,4.8C1802,142.1,1804.3,122.7,1812.8,103.7z M2645.1,335.7c-0.2,0.5-0.4,1-0.6,1.5c12,4.8,23.9,9.7,35.9,14.3
		c1.6,0.6,3.6,0.1,5.5,0.1c-1-1.5-1.6-3.6-3-4.3c-23.2-12-46.5-23.8-69.8-35.6c-2.7-1.4-5.1-2.1-6.5,1.9c-1.2,3.4-2.1,6,2.6,7.7
		C2621.2,325.9,2633.1,330.9,2645.1,335.7z M1886.1,73.4c2.6-6.9,7.3-5,11.2-5.5c1.8-0.2,4.8-0.7,5-1.6c0.9-3.9,1-8.1,1.1-12.1
		c0-0.3-2.6-1-4-0.9c-4.5,0.6-9.1,1.4-13.6,2.4c-2.9,0.6-8.9,11.6-8,14.4c4.5,13.5,14.6,22.8,25,33.2c-0.3-9.2-0.8-17.2-0.6-25.1
		c0.1-4.5-1.6-5.5-5.5-5.1C1893.5,73.3,1890.3,73.3,1886.1,73.4z M1957.9,173.9c-0.7,14.7-1.4,27.9-2.1,41.2
		c10.9-12.2,26-14.8,40-21.4C1983.1,187,1971.4,180.9,1957.9,173.9z M1923.5,258.4c0.4-0.3,0.9-0.5,1.3-0.8
		c-0.6-4.1-1.3-8.1-1.7-12.2c-0.3-3.5-2-5.4-5.1-7.1c-5.7-3.2-11.1-7.1-16.5-10.9c-1.2-0.9-1.9-2.5-2.9-3.7c0.4-0.4,0.7-0.7,1.1-1.1
		c7,4.9,14,9.8,21.2,14.8c2.3-6.8-0.6-10.2-4.8-13.5c-5.2-4.1-10-8.7-15-13c-1.3-1.1-2.8-1.9-4.2-2.8c-0.6,0.3-1.1,0.5-1.7,0.8
		c0.6,8.2,1.5,16.3,1.8,24.5c0.2,5.2,1.4,9,6.4,11.9C1910.4,249.1,1916.8,254,1923.5,258.4z M2536.1,321.6
		c8.4-5.2,10.2-9.4,9.1-17.6c-1.8-13.6-3.4-27.2-5-40.8c-0.3-2.7,0-5.8-4.2-5.6c-5.5,0.3-8.5,2.7-8,7.1c1.5,12.9,2.9,25.9,4.7,38.8
		C2533.4,309.3,2534.8,315.1,2536.1,321.6z M1858.5,213.4c11.4,8.1,21.8,15.5,32.7,23.3c-0.7-15.2-1.3-29.1-2-43.9
		C1879,199.6,1869.4,206,1858.5,213.4z M1855.3,142.6c11.6-4.5,22.2-8.6,32.4-12.6c-8.8-9.9-17-19.2-25.6-28.9
		C1856.4,114.5,1856,128,1855.3,142.6z M2700.5,517c-10.6,10.5-20.7,20.4-31.1,30.7c11.4,1.7,22.7,3.4,34.6,5.2
		C2704.3,540.4,2706.3,528.6,2700.5,517z M2774.4,577c0-0.6,0-1.1-0.1-1.7c-1.3-0.1-2.5-0.3-3.8-0.3c-34.8,0-69.5-2.3-103.7-9.6
		c-4.8-1-8.7,1.1-11.6,6.5C2695.5,575.4,2734.7,584.1,2774.4,577z M2823,557c-10.6,2.5-20.4,5.8-30.4,7c-41.8,5-83.3,1.2-124.6-5.7
		c-2.5-0.4-5-1-7.5-1.5c-0.1,0.7-0.3,1.4-0.4,2c6.2,1.2,12.3,2.4,18.5,3.5c40.9,7.2,82.2,8.5,123.6,7.9
		C2811.4,570.1,2817.4,563.9,2823,557z M2681.7,357.6c-5.6-2.2-10.9-4.3-16.1-6.5c-19.7-8.1-39.4-16.4-59.1-24.4
		c-1.3-0.5-3.2-0.5-4.5,0c-0.7,0.3-1.4,2.7-1,3.3c0.8,1.2,2.4,2.1,3.8,2.8c22.3,10,44.6,20,66.9,30.1
		C2678.3,365.8,2678.2,365.8,2681.7,357.6z M2533.5,154.2c-11,1.4-11.1,1.5-11,10.7c0.2,11.8,0.4,23.5,0.7,35.3
		c0,1.7,0.5,3.4,0.8,5.8c4.9-2.4,11.6-2,11.6-7.9C2535.6,183.5,2534.3,169.1,2533.5,154.2z M2758.4,389.6
		c-8.8,10.9-17.1,21.1-25.2,31.5c-1,1.2-0.8,3.4-1.1,5.1c1.6-0.5,3.6-0.6,4.6-1.6c7-7.5,13.6-15.2,20.5-22.8
		c1.4-1.6,3.2-2.8,4.8-4.2c0.4,0.4,0.9,0.8,1.3,1.3c-1.1,2-2,4.2-3.5,5.8c-7.4,8.4-14.8,16.7-22.4,24.8c-2.3,2.5-3.6,4.5,0.1,7.4
		c11.7-12.6,23.3-25.1,35.7-38.3C2767.5,395.1,2762.8,392.2,2758.4,389.6z M2610.8,387.6c0,0.7,0,1.3,0,2c3.3-0.1,7,0.8,9.9-0.3
		c10.6-4.4,19.7-0.1,29,3.9c2,0.9,4.1,1.7,6.2,2.2c1,0.3,2.2-0.2,3.3-0.4c0.2-0.6,0.4-1.2,0.6-1.8c-5.3-2.5-10.6-4.9-15.9-7.4
		c0.2-0.6,0.4-1.1,0.6-1.7c4.4,1.4,8.9,2.6,13.3,4.2c3.9,1.4,6.4,0.9,7.3-4c-1.8-0.9-3.5-2-5.3-2.7c-10-4.1-20.1-8.2-30.1-12.3
		c-2.8-1.1-5.5-2.6-6.8,2.1c-1,3.6-2.2,6.5,3.1,7.9c4.1,1,8,3.1,12,4.7c-0.1,0.5-0.3,0.9-0.4,1.4
		C2628.6,385.2,2619.4,383.4,2610.8,387.6z M1795.4,190.1c0.4-0.3,0.9-0.6,1.3-0.9c-1.3-6-2.3-12.1-4-18.1c-0.8-3-2.3-6.1-4.3-8.5
		c-7.2-8.3-12.8-17.5-15.9-28c-0.5-1.7-1.1-3.3-1.7-4.9c-1.4,2.6-1.8,5.1-1.4,7.5c1.4,7.9,4.1,15.8,4.6,23.7
		c0.6,9,5.3,14.9,11.6,20.3C1788.9,184.1,1792.2,187.1,1795.4,190.1z M2628.9,351.6c0.3,4.5-6.3,8.6,0.7,11.8
		c11.9,5.4,24,10.4,36,15.3c1.2,0.5,3.5,0.3,4.2-0.6c1.9-2.3,3.2-5.1,5-8.1C2659.3,363.7,2644.7,357.9,2628.9,351.6z M2733.6,400.1
		c-1.1-0.8-2.2-1.8-3.5-2.4c-11.3-5.8-22.5-11.7-33.8-17.4c-8.3-4.2-9.4-3.6-12,6c1.1,0.7,2.3,1.5,3.6,2.1
		c11.4,5.5,22.9,11,34.3,16.5C2729.2,408.3,2730.1,407.9,2733.6,400.1z M2041.7,86.2c-31.1-7.9-61.2-15.6-91.3-23.2
		c-2.1-0.5-5.1-2.3-5.5,1.6c-0.1,0.9,2.8,2.7,4.5,3.2c18.8,5,37.7,9.5,56.4,14.8c10.6,3,20.9,7.1,31.3,10.8c3.7,1.3,5.3-0.8,6.1-3.5
		C2043.6,88.8,2042.2,87.2,2041.7,86.2z M2526.8,251.9c10.8,1.2,12.2,0,11.5-9.4c-0.2-2.2-0.2-4.4-0.4-6.6
		c-0.6-8.3-1.3-16.7-1.9-24.6c-3.1-0.6-5.2-1-7.4-1.5c-3-0.6-4.8,0.4-4.6,3.6C2524.9,226.3,2525.9,239.2,2526.8,251.9z
		 M2489.8,362.8c-0.7,10.9,0.2,12.2,10.1,15c6.2,1.7,12.3,3.8,18.5,5.4c1.9,0.5,4,0.3,6.4,0.5c-0.9-5.3-1.4-9.7-2.5-13.9
		c-0.4-1.5-2.3-3.6-3.7-3.8C2509.2,364.7,2499.7,363.8,2489.8,362.8z M2703.8,367.9c-0.1,0.1-0.1,0.2-0.2,0.2
		c-1.4-0.5-2.8-1-4.1-1.7c-3.1-1.7-5.1-0.8-6.6,2.3c-1.7,3.2,0,4.6,2.6,6c12.7,7,25.4,14.1,37.9,21.3c4.5,2.6,5.6-1.2,7-3.5
		c0.6-1-0.5-4.2-1.7-4.9C2727.2,380.9,2715.5,374.5,2703.8,367.9z M2565.1,386.7c-2.6-10-4.9-18.9-7.2-27.7c-6.6,2-12,3.6-17.9,5.3
		c0.4,2.6,0.6,5.3,1.2,8c2.7,13.4,2.7,13.4,16.3,14.1C2559.5,386.5,2561.5,386.6,2565.1,386.7z M1916.6,194.5
		c-0.4,0.5-0.8,1-1.2,1.6c-2-1-4.4-1.6-6-3c-7.6-7.1-15.1-14.4-22.4-21.9c-2.4-2.5-4.1-3.6-6.1-0.9c6.3,7.4,11.9,15.1,18.7,21.7
		c6.1,5.9,13.4,10.5,21.3,16.5c0.3-6.7,0.6-12,0.7-17.2c0-0.9-0.9-2-1.6-2.6c-7.7-7-15.6-13.7-23.3-20.8c-2.6-2.4-4.7-3.2-8.1,0
		C1898.1,176.8,1907.4,185.7,1916.6,194.5z M2725.8,585.5c-12.8-1.2-25.5-2.4-38.3-3.7c-12.7-1.3-25.4-3.1-38.1-4.2
		c-2.6-0.2-5.4,1.8-9.3,3.2C2654.2,587.5,2706.8,590.3,2725.8,585.5z M2490.1,116.3c-0.7,0.3-1.5,0.6-2.2,0.9
		c-0.2,2.5-0.5,5.1-0.6,7.6c-0.2,9.3-0.1,18.6-0.5,27.9c-0.7,15.2-1.9,30.4-2.6,45.6c-0.1,1.3,2,2.7,3,4.1c1.1-1.3,3.2-2.5,3.2-3.8
		c0.9-25.5,1.6-50.9,2.1-76.4C2492.6,120.3,2491,118.3,2490.1,116.3z M2739.1,472.2c2.3,9.1,4.5,17.9,7.1,28
		c9.2-10.5,17.2-19.7,25.9-29.6C2760.3,471.2,2750,471.6,2739.1,472.2z M2547.8,321.6c-13.3,3.4-10,13.2-10.3,21.6
		c-0.8-2.1-1.6-4.1-2.4-6.2c-0.1,5.5,1.2,10.6,2.2,15.8c0.7,3.5,2.4,4.7,5.8,3.7c1.9-0.6,4-0.8,5.9-1.6c4-1.6,6.3-3.9,4.7-8.9
		c-1.9-6-3.1-12.1-4.6-18.2C2548.6,325.7,2548.2,323.5,2547.8,321.6z M2511.2,157.4c1.3,32,2.7,63.3,8.6,94.1c0.5,0,1.1-0.1,1.6-0.1
		c-1.5-31.7-3-63.5-4.5-95.7C2514.7,156.3,2512.7,157,2511.2,157.4z M2011.8,89c-14.5-4.5-28.8-9-43.2-13.4c-2.5-0.8-5.5-2.3-6.6,2
		c-0.9,3.6-0.5,6,4,7.2c12.4,3.3,24.7,7.1,37,10.8C2009.7,97.7,2010.2,97.6,2011.8,89z M2482.5,147.9c0.6-9.8,1.3-19.1,1.7-28.3
		c0.2-3.8-10.2-9.4-13.5-7.4c-0.9,0.5-1.7,2.1-1.6,3.1c0.1,9,0.4,18,0.9,27c0.1,1.1,1.9,2.1,3,3.1c0.8-1.2,2.2-2.3,2.3-3.6
		c0.4-2.9,0.1-5.9,0.2-8.8C2479.4,147.1,2479.4,147.1,2482.5,147.9z M2645.3,451.3c2.2,11.4,4.2,21.7,6.5,33.6
		c7.1-9.6,13.3-17.8,20.1-27.1C2662.2,455.4,2654.3,453.5,2645.3,451.3z M1972.7,91c-1.6,10.9-1.6,10.8,7.2,13.7
		c6.3,2.1,12.5,4.5,18.7,6.8c5.9,2.2,6.3,1.9,7.7-4.1c0.9-4,0-6.2-4.3-7.1c-4.1-0.9-8.1-2.4-12.1-3.7
		C1984.3,94.8,1978.7,93,1972.7,91z M1827.9,78.6c-8.5,2.6-8.4,2.6-6.9,10.8c0.4,2,0.7,4,0.6,5.9c-0.7,8.1,5.9,12.6,8.6,20.3
		C1835.2,101.9,1838.4,89.7,1827.9,78.6z M2087.4,110.1c1.2,4.4,6.2,5,10.1,5c2.1,0,4.2-4,6.5-6.5c-11.9-4.8-22.5-9.2-33.3-13
		c-0.9-0.3-3.7,3-4.7,5.1c-0.4,0.9,1.1,3.7,2.3,4.3c3.6,1.7,7.4,3,11.2,4.1C2082,109.7,2084.5,109.7,2087.4,110.1z M2754,554.8
		c0.2,0.6,0.4,1.2,0.6,1.7c7.1,0,14.2,0.1,21.3-0.1c1.1,0,2.9-0.9,3.1-1.7c1.5-7.4,3-14.9,0.9-23.4
		C2770.7,539.6,2762.3,547.2,2754,554.8z M2482.3,519c-0.1,0.9-0.1,1.7-0.2,2.6c30.8,6.8,61.6,13.6,92.4,20.4
		c0.1-0.6,0.3-1.1,0.4-1.7c-3.8-1-7.6-2-11.3-3c-23-6.2-46-12.5-69.1-18.3C2490.7,518,2486.4,519,2482.3,519z M2726,408.4
		c-13.8-5.5-27.2-10.9-40.7-16.3c-2.5-1-5.3-2.3-6.3,1.2c-0.3,1.1,2.1,3.6,3.7,4.5c10.5,5.6,21.3,10.7,31.8,16.4
		C2721.1,417.8,2722.1,417.7,2726,408.4z M2131.3,446.6c7.4,6.2,24.6,8.5,31.4,4.9c-9.9-4.7-19.7-9.3-29.5-13.9
		c-6.8-3.2-13.4-0.5-21.1,0.3c10.1,8.2,21.4,5.7,31.6,8.3C2140.1,446.3,2136.3,446.4,2131.3,446.6z M2611.6,348.2
		c-2.5,7,1.1,8.6,5.1,10.2c3.1,1.2,5.4,1.2,6.4-2.5c0.9-3.3,3.1-6.7-2.1-8.6c-6.4-2.4-12.6-5.2-19-7.5c-1.6-0.6-4.6-0.6-5.2,0.3
		c-1.5,2.4-2,5.4-2.9,8.1c0.6,0.2,1.3,0.5,1.9,0.7c1.1-1.8,2.1-3.5,3.2-5.3c0.2,0.1,0.3,0.1,0.5,0.2c-0.5,2-1.1,3.9-1.6,5.8
		C2605.5,354.1,2605.7,354.1,2611.6,348.2z M2491.7,252.2c-0.5-12.9-0.8-25.8-1.5-38.7c-0.1-1.5-2.3-3-3.5-4.4
		c-1,1.6-2.9,3.2-2.9,4.8c-0.2,10.8,0.3,21.6,0.1,32.4C2483.7,251.4,2485.9,253,2491.7,252.2z M1876.5,239.5
		c4.6,19.9,7.5,25.7,13.7,27.1c-1.1-5.1-2.2-10.1-3.3-15c8.4,6.4,4.9,19.5,16.6,25.2c-1.8-7.5-3.3-13.7-4.9-19.8
		c-0.3-1.2-0.8-2.7-1.7-3.3C1890.6,249,1884.1,244.7,1876.5,239.5z M2507.6,356.5c-0.3-0.4-0.7-0.8-1-1.2c1.7-2,3.4-4.1,5.2-5.9
		c5-4.8,5.3-6.8,1.5-14.7c-7,7.3-13.6,14.2-20.3,21.2c0.2,0.5,0.5,1,0.7,1.5c8.4,0.8,16.8,1.5,26.3,2.4c-1.1-3.8-1.8-6.3-2.6-9.2
		C2513.7,352.9,2510.6,354.7,2507.6,356.5z M1922.3,113.1c1.6-1.3,3.7-2.1,4.1-3.4c0.8-2.9,1.2-6.2,0.9-9.2
		c-1.6-13.1-0.4-26,3.4-38.6c0.9-2.9-0.1-4.7-2.8-4.3c-1.3,0.2-2.9,2.4-3.3,4c-4.3,16.1-3.3,32.6-3.3,49
		C1921.2,111.1,1921.6,111.6,1922.3,113.1z M2056.2,196.4c7.6,4,14.4,8.2,21.8,11.2c2,0.8,5.5-1.7,8.3-2.7c-0.8-2-1.4-4.1-2.5-5.9
		c-1.7-2.6-3.5-5.2-5.6-7.5c-0.9-1-2.9-2.1-3.9-1.8C2068.5,191.6,2062.9,193.9,2056.2,196.4z M2507.7,260.6c1,8.5,1.8,16.5,3,24.5
		c1,6.7,4,8,11.1,5.2c-1.7-8.4-3.5-16.8-5.1-25.3C2515.8,259.8,2512.8,259.2,2507.7,260.6z M1874.4,192.6c-3.2-3-6.1-5.6-8.7-8.3
		c-6.1-6.4-11.6-6.2-18.1,1c5.1,4.4,10.2,8.9,15.4,13.1c0.7,0.6,2.5,0.6,3.3,0.1C1869,196.8,1871.5,194.7,1874.4,192.6z
		 M2181.8,238.2c3-7.4,6.1-14.8,8.9-22.3c2-5.3-3.2-5.7-5.9-7.7c-3-2.2-4.6,0.5-5.3,2.6c-2.4,6.7-4.6,13.5-6.5,20.4
		c-0.3,1.1,1.2,2.6,1.9,3.9c0.9-0.9,2.1-1.7,2.7-2.8c0.6-1.1,0.6-2.5,0.9-3.7c1.3-4.9,2.7-9.9,4-14.8c0.5,0.1,0.9,0.2,1.4,0.3
		C2185.4,222.4,2178.7,230.2,2181.8,238.2z M1980.9,113.5c0.9,1.2,2.1,4.1,4,4.8c9.1,3.3,18.5,6,27.8,8.7c1.2,0.3,2.7-0.7,4.1-1.1
		c-0.8-1.2-1.4-3-2.5-3.4c-3.8-1.6-7.8-2.7-11.6-4.2c-9.8-3.9-19.6-7.8-29.4-11.8c-0.6,0.5-1.2,1-1.8,1.4c0.8,3.1,1.6,6.1,2.4,9.2
		C1976.1,116,1978.4,114.8,1980.9,113.5z M2743.1,386.5c0.3-0.1,1.6-0.5,3-0.9c-0.6-1.4-0.9-3.4-1.9-4.1
		c-16.3-9.4-32.6-18.6-49-27.7c-1.3-0.7-3.4-0.3-5-0.4c1,1.6,1.6,3.8,3,4.6c8.5,4.7,17.4,8.9,25.9,13.7
		C2726.8,376.2,2734.3,381.1,2743.1,386.5z M2434.3,352.8c0.1,0.9,0.2,1.9,0.3,2.8c12.5,4.2,25.1,8.5,37.6,12.7
		c0.4-0.7,0.9-1.5,1.3-2.2c-1.9-1.9-3.7-3.7-5.7-5.7c0.3-0.7,0.9-1.9,2.4-4.9c-4,0.9-6.5,1.5-9.4,2.2c-3.5-9.4-9.9-1-13.3-0.9
		c-2.1-3-3.2-6.1-4.5-6.1C2440.2,350.6,2437.3,352,2434.3,352.8z M2514.1,253.2c-1.7-14-3.3-27.7-5.1-41.3c-0.1-1-1.3-1.8-2-2.7
		c-0.7,1.3-1.9,2.5-1.9,3.8c0.5,11.7,1.3,23.5,1.7,35.2C2506.9,253.2,2508.9,254.7,2514.1,253.2z M2473.5,351.4
		c0.8,0.2,1.6,0.5,2.4,0.7c3.6-5.1,7.2-10.3,10.8-15.4c0.6,0.2,1.2,0.4,1.8,0.7c-0.6-2.7-1.2-5.4-2-8.8c-2.7,1.7-4.5,2.8-5.3,3.3
		c-1.1-1.4-1.9-3.4-3-3.6c-1.9-0.4-5.4-2-5.4,2C2472.6,337.3,2473.2,344.4,2473.5,351.4z M2484.7,259.1c0.5,8.6,0.9,16.8,1.4,25
		c0.4,5.6,2.3,6.5,8.2,4.1c-0.6-8.1-1.4-16.3-1.9-24.5C2492.1,258.8,2489.6,257.8,2484.7,259.1z M2116.1,190.7
		c0.1,0.7,0.2,1.5,0.2,2.2c2.4,0.6,5.7,2.4,7.1,1.4c6.7-4.4,12.9-9.4,19-14.6c0.7-0.6-0.1-3.7-1-5.2c-0.4-0.7-3-0.6-4.2-0.1
		c-1.9,0.9-3.5,2.6-5.2,3.9C2126.8,182.5,2121.5,186.6,2116.1,190.7z M2540.2,384.3c-0.9-4-1.7-8.1-2.6-12.1
		c-1.8-8.2-3.3-8.9-11.9-5.1c0.6,3.3,1.1,6.7,1.7,10.1C2528.7,385.5,2530.8,386.8,2540.2,384.3z M2139.8,209c0.5,0.8,1,1.6,1.5,2.4
		c6.1,0.7,8.2-5.2,12.3-9.1c-0.2,3.7-0.4,6.5-0.6,9.4c0.6,0.2,1.2,0.3,1.8,0.5c2.3-4.2,4.5-8.4,7.2-13.1c0.9,1.7,1.5,2.8,2.4,4.3
		c1.9-1.9,3.5-3.6,5-5.2c-6.4-6.3-6.4-6.3-13.1-1.8c-1.7,1.1-3.5,2-5.1,3.3C2147.3,202.7,2143.6,205.9,2139.8,209z M2192.1,178.5
		c0-0.7,0-1.4,0-2c-2.5-0.9-6.1-3.3-7.5-2.4c-6.1,4.2-11.5,9.3-17.2,14.1c4.8,5.3,6.6,6.2,9.1,4.1
		C2181.8,187.8,2186.9,183.1,2192.1,178.5z M2575,404.4c-2.9-4.6-4.9-7.9-7-11.1c-0.6-0.9-1.4-2.1-2.2-2.1c-6.5-0.3-13-0.3-19.5-0.5
		c-0.3,0.5-0.6,1.1-0.8,1.6c1.6,1.7,2.9,4.3,4.9,5C2558,399.8,2565.8,401.8,2575,404.4z M2504,156.3c-3.2,11.2,0.4,46.1,3.8,48.2
		c0.3-3.6,1-6.9,0.9-10.2c-0.3-11.1-0.7-22.3-1.4-33.4C2507.1,159.3,2505.1,157.8,2504,156.3z M1862.2,268.1
		c-0.8-11.8-4.4-18.5-10.5-20c0.3,2.1,0.6,4.2,1,7.3c-5.8-5.6-5.3-14.8-13.9-17.7C1840.9,252.6,1852.6,258.9,1862.2,268.1z
		 M2753.7,526c0.3,0.7,0.6,1.4,0.8,2.1c1.8-0.5,3.7-0.9,5.5-1.4c5.1-1.5,10.2-3.8,15.3-4.2c8.8-0.7,15.2-5.5,22-10.1
		c3-2,2.4-4-0.7-6.9C2784.7,517.1,2769,521.3,2753.7,526z M2501.3,252.3c0.1-1.5,0.2-2.6,0.1-3.7c-0.1-4.4-0.2-8.8-0.5-13.2
		c-0.4-7.1-0.7-14.3-1.4-21.4c-0.1-1.5-1.5-2.8-2.3-4.2c-0.6,1.4-1.3,2.7-1.6,4.1c-0.2,1,0,2.2,0,3.3c0.3,10.8,0.6,21.6,1.1,32.4
		c0.1,1.2,1,2.5,1.9,3.4C2499,253.3,2500.4,252.5,2501.3,252.3z M1897.3,194.8c-0.6,0.3-1.1,0.7-1.7,1c0.4,2.2,0.1,5.3,1.5,6.5
		c7.4,6.4,15.1,12.4,22.7,18.5c0.6-0.4,1.2-0.7,1.8-1.1c-1.2-2.5-1.7-5.7-3.6-7.4C1911.4,206.2,1904.2,200.6,1897.3,194.8z
		 M2469.9,351.9c-0.3-6.5-0.7-13.1-1-19.6c-0.3-5.9-1-6.4-7.9-5.1c0.5,3.1,1.4,6.2,1.5,9.4c0.2,3.3-0.3,6.7-0.5,10
		C2461.9,352.1,2463.4,353.2,2469.9,351.9z M2185.3,247.4c-2.8,4.9-2.8,7.6,2.5,9.4c10.4,3.6,20.7,7.5,31.1,11.3
		c0.8,0.3,1.8,0.3,2.6,0.5c0.1-0.3,0.1-0.6,0.2-0.9C2209.6,261,2197.5,254.3,2185.3,247.4z M2505.8,290c-1-9.3-1.9-18.4-3.1-27.5
		c-0.2-1.6-2-3-3-4.5c-0.6,0.3-1.2,0.5-1.8,0.8c-0.1,1.9-0.4,3.9-0.2,5.8c0.4,7.1,1.1,14.2,1.4,21.4
		C2499.2,290.2,2501.1,291.5,2505.8,290z M1794.6,170.6c5.9,11.7,6.6,24.4,16.4,32.9C1808.7,191.5,1808.6,178.5,1794.6,170.6z
		 M2197.5,476c11.1,7.3,22.7,7.5,35.4,5.6C2224.6,475.3,2212.2,473.5,2197.5,476z M2530.5,338.7c-9,5.4-10.8,10.1-6.5,17.8
		c0.8,1.4,4.1,2,6.3,2c1.1,0,3.4-2.1,3.3-3C2532.9,350,2531.6,344.5,2530.5,338.7z M2476.4,200.5c0.7,0,1.5,0,2.2,0
		c0.2-2.3,0.6-4.6,0.7-6.9c0.8-12,1.7-24.1,2.3-36.1c0.1-2.1-1.2-4.3-1.9-6.5c-0.8,2.1-2.2,4.2-2.3,6.3c-0.6,11.1-1,22.2-1.3,33.3
		C2476,193.9,2476.3,197.2,2476.4,200.5z M2200.8,184.2c0-0.7-0.1-1.4-0.1-2.2c-2.2-0.3-5.2-1.7-6.4-0.8
		c-5.7,4.5-10.8,9.6-16.3,14.6c2.5,2.9,4.3,5.5,7.6,2.5C2190.7,193.7,2195.7,188.9,2200.8,184.2z M1913.9,109.1c0.5,0,0.9,0,1.4,0
		c1.8-16.8-0.4-34,5.6-50.4c0.3-0.7-0.5-1.8-0.8-2.8c-1,0.5-2.5,0.8-2.9,1.6c-1,2.3-2,4.9-2.2,7.4c-0.8,9.6-1.4,19.3-1.7,29
		C1913.1,99,1913.7,104,1913.9,109.1z M2046.3,395.1c3.5,5.9,3.4,13.8,12.8,13.3c-1.8-4.2-2.4-9.3-5.2-11.5
		c-4.2-3.2-10-4.4-15.3-6.5c-1.3,8.1,0,10,6.3,11.3C2045.3,399.9,2045.7,398.2,2046.3,395.1z M1920,185.2c0.6-0.5,1.3-1.1,1.9-1.6
		c-0.5-9.7-10.2-12.5-15.3-18.8c-1.3-1.6-4.8-1.4-7.3-2c-0.3,0.7-0.7,1.4-1,2.2C1905.6,171.8,1912.8,178.5,1920,185.2z
		 M2786.6,554.8c6.6-4.6,11.9-8.5,17.5-12.1c4.1-2.6,4.1-5.3,1.1-9.9C2799.7,540.6,2786.9,540.4,2786.6,554.8z M1826.1,202.6
		c4.2,9.7,3.7,20.7,13.8,27.3C1840.5,218.3,1834.5,205.9,1826.1,202.6z M1974.9,308c0.2-2.1,1.2-5.3,0.4-5.9
		c-5.8-4-11.9-7.4-18.3-11.2C1955.8,299.1,1963,305.7,1974.9,308z M2223.4,486.7c10.3,5.5,21.3,4.5,33.3,4.5
		C2245.7,483.2,2234.6,484.5,2223.4,486.7z M2502.4,320.9c6.8-5.1,8.7-15.9,4.7-21.5c-0.7-1-2.8-1.5-4.3-1.5c-0.8,0-2.3,1.6-2.2,2.4
		C2501,306.8,2501.7,313.3,2502.4,320.9z M1934.5,92.4c-0.9,0.2-1.9,0.5-2.8,0.7c0.5,11,0.9,22,1.6,32.9c0,0.8,1.7,1.5,2.5,2.2
		c0.6-1.1,1.6-2.3,1.6-3.4c-0.1-9.1-0.4-18.2-0.9-27.3C1936.4,95.8,1935.2,94.1,1934.5,92.4z M2054.9,94.1c0.4,2.1-1.5,7.6,4.4,6.8
		c2.2-0.3,4-4,7-7.4c-7.8-2.2-13.8-3.9-21.1-6c0.4,3.9,0.6,6.4,0.8,8.9C2048.8,95.7,2051.7,94.9,2054.9,94.1z M2585.7,287.3
		c0.6-3.7-21.1-15-32.3-15.6c0.8,1.6,1.9,3.1,3.5,3.9c3.5,1.8,7.2,3.1,10.8,4.7c3.8,1.8,7.4,3.8,11.3,5.5
		C2581,286.6,2583.4,286.8,2585.7,287.3z M2496.1,203.3c1,0,2-0.1,3-0.1c-0.5-15.5-0.9-30.9-1.4-46.4c-1,0-2,0.1-3,0.1
		C2496.6,172.3,2494.1,187.8,2496.1,203.3z M2777.6,406.5c0.5,0.5,1.1,0.9,1.6,1.4c-2.1,3.1-4.1,6.1-6.2,9.2c0.7,0.6,1.3,1.1,2,1.7
		c3-3.3,7.5-6.2,8.4-9.9c0.6-2.4-4.2-6.1-6.6-9.3c-3.6,3.8-6.3,6.5-8.6,9.4c-0.8,1-0.7,2.7-1,4.1c1.4-0.3,3.1-0.2,4.1-1
		C2773.7,410.4,2775.6,408.3,2777.6,406.5z M2499.5,332.7c-10.7,7.3-14.8,15.4-10.1,19.4C2502.5,342.2,2503,341.2,2499.5,332.7z
		 M2441.9,347.1c7.6,4.6,10.3-1,13.9-4.7c3.5-3.6,3.6-7.4,1.4-12.9C2451.8,335.8,2446.9,341.3,2441.9,347.1z M2104.5,117.2
		c4.2,1.8,7.9,3.6,11.7,4.9c0.8,0.3,2.4-0.6,3.2-1.4c1.3-1.5,2.2-3.3,3.7-5.5c-3.1-1.3-5.8-2.3-8.5-3.4
		C2108.1,108.9,2106.1,110,2104.5,117.2z M1816.7,114.7c-3.1,7.1,2.9,21.2,10.4,27.5C1829.6,130.8,1820.5,124.6,1816.7,114.7z
		 M2604.5,372.9c5.5,0.9,9.3,2.2,12.7,1.5c1.1-0.2,2.6-6.5,1.4-8.3c-1.5-2.3-6.5-4.5-8.4-3.6
		C2607.7,363.7,2606.9,368.2,2604.5,372.9z M2018.1,106.2c-3.8-1.1-7.1-4-8.9,1.7c-1.3,4.1-2.1,7.2,3.3,8.8c3.7,1.1,6.5,2,7.9-3.1
		C2021.4,109.9,2022.7,106.8,2018.1,106.2z M2592.7,360.8c-3.3,4.7,0.2,6.1,3.5,7.5c2.6,1.1,5.6,3,7.1-1.4c1.2-3.4,3-6.9-2.4-8.9
		C2597.2,356.6,2593.9,355.5,2592.7,360.8z M2472.1,175.1c0.7-0.2,1.4-0.5,2.1-0.7c0.3-7.3,0.7-14.5,0.7-21.8c0-1-1.9-2-2.9-3.1
		c-0.8,1.2-2.3,2.4-2.4,3.6c-0.4,5.7-0.6,11.4-0.3,17.1C2469.3,171.9,2471.1,173.5,2472.1,175.1z M2073.6,139.3
		c8.4,5.3,9.5,5.4,11.9,0.9c1.7-3.3,4.1-6.4-1.7-8.5C2077.6,129.6,2077,129.8,2073.6,139.3z M2098.1,207.4c2,0.2,2.6,0.5,3,0.3
		c4.9-2.8,9.8-5.6,14.5-8.7c0.5-0.3-0.1-3.1-0.9-4.2c-0.5-0.8-2.8-1.2-3.5-0.7c-4.3,2.8-8.5,5.7-12.5,8.9
		C2097.9,203.7,2098.3,205.9,2098.1,207.4z M2180.7,460c-6.9-5.2-21.7-6.2-28.3-2.4C2161.4,462.8,2170.4,461.4,2180.7,460z
		 M1945.5,134.9c-0.2-13.2-0.4-25.9-0.6-38.6C1940.1,102,1941.4,131.1,1945.5,134.9z M2738.1,441.8c0.4,0.4,0.7,0.9,1.1,1.3
		c1.6-0.8,3.4-1.4,4.6-2.6c6.3-6.2,12.5-12.4,18.5-18.8c1.2-1.2,1.5-3.2,2.2-4.9c-1.6,0.7-3.6,1.1-4.8,2.3
		c-6.4,6.3-12.7,12.7-19,19.1C2739.8,439.3,2739,440.6,2738.1,441.8z M2804.2,549.5c11.1-0.9,29.5-12.9,28.6-18.2
		C2823.1,537.4,2813.7,543.5,2804.2,549.5z M2151,184c-0.3-0.6-0.5-1.3-0.8-1.9c-1.1-0.1-2.6-0.7-3.3-0.2c-7,4.9-13.8,10-20.6,15.2
		c-0.5,0.4-0.7,2.1-0.5,2.3c0.8,0.5,2.2,1.1,2.7,0.7C2136.1,194.8,2143.5,189.4,2151,184z M2523.9,302.3
		c-5.1,6.5-12.2,11.4-6.7,20.4C2526.9,318.8,2524.2,310.7,2523.9,302.3z M1936.9,89.5c0.6-6.6,1.4-12.6,1.7-18.6
		c0.1-0.9-1.6-2.5-2.6-2.7c-0.8-0.1-2.7,1.3-2.8,2.1c-0.5,6-0.8,12-0.9,18c0,0.9,1.2,2.4,2,2.6C1935.1,91.2,1936.2,90,1936.9,89.5z
		 M1815.2,191.5c-0.4,11,4.6,22.9,12,25.9C1821.1,209.1,1825.2,197.6,1815.2,191.5z M1842.7,215.7c1.8,8.2,1.4,17.4,9.9,22.7
		C1851,230.1,1850.9,221.2,1842.7,215.7z M2126.5,229.2c5.5,3.9,10.6,3.2,17-2.2c1.2-1,2.4-3,2.3-4.3c-0.1-1.1-2.3-2.8-3.5-2.8
		c-1.5,0-3.4,1.2-4.3,2.5c-1.4,2-2.2,4.5-3.7,7.7C2131.9,224.9,2129.4,225.5,2126.5,229.2z M2160.3,182.8c0.2,0.6,0.3,1.3,0.5,1.9
		c1.6,0,3.7,0.6,4.7-0.1c4.9-3.8,9.7-7.8,14.3-11.9c0.7-0.6,0.7-2.1,1-3.2c-1.1-0.1-2.7-0.6-3.4-0.1
		C2171.6,173.7,2165.9,178.3,2160.3,182.8z M2174.5,165.7c-0.2-0.7-0.4-1.5-0.5-2.2c-1.7,0.2-3.8-0.2-5,0.6
		c-4.7,3.5-9.2,7.3-13.6,11.2c-0.8,0.7-0.7,2.4-1,3.6c1.2,0.1,2.7,0.6,3.4,0.1C2163.4,174.7,2168.9,170.2,2174.5,165.7z
		 M1880.8,187.8c-7-10.4-12.4-13.7-17.3-9.9c3.6,3.6,7.3,7,10.8,10.6C1877.1,191.4,1878.9,190.5,1880.8,187.8z M2013.3,336.5
		c3.7,10.8,8.7,15.8,14.9,15.4C2024.4,341.5,2020.9,337.8,2013.3,336.5z M2470.6,176.6c-0.5,0.3-1.1,0.6-1.6,0.8
		c-0.3,6.7-0.6,13.4-0.7,20.1c0,0.9,1.3,1.8,1.9,2.8c0.9-0.9,2.5-1.7,2.6-2.6c0.6-5.6,1.1-11.3,1.1-17
		C2473.8,179.3,2471.7,177.9,2470.6,176.6z M1865.9,257.4c0.5,13.3,4.4,21.2,10.9,22.7C1873.6,272.6,1873.9,263.8,1865.9,257.4z
		 M2023.3,92.5c-4.4,0.1-7.9-3.3-9.8,2.3c-1.8,5.5,3.2,4.6,5.6,5.9c3,1.6,6.4,2.1,6.9-2.5C2026.3,96.4,2024.3,94.4,2023.3,92.5z
		 M2592.3,312.2c0.3,0.7,0.6,1.4,0.9,2.2c3.2,0.8,6.4,2.3,9.4,1.9c1.2-0.1,3.1-5.3,2.3-6.9c-0.9-1.8-4.9-3.6-6.9-3.1
		C2595.7,306.9,2594.1,310.1,2592.3,312.2z M2650.4,411.4c0-0.8,0-1.7-0.1-2.5c-14.6,0.5-29.3,1.1-43.9,1.6c0,0.7,0,1.3,0.1,2
		C2621.2,412.1,2635.8,411.8,2650.4,411.4z M1981.4,137.2c-1.4-13.3-1.8-14.1-7.7-14.4C1970.4,132.3,1973,137.4,1981.4,137.2z
		 M2025.3,109.9c-4.5,9.5-3.8,11.3,5.1,12.3C2035.1,113,2034.6,111.7,2025.3,109.9z M2831.7,509.3c9-3.4,11.5-12.3,6.4-22.8
		C2835.9,494.3,2833.9,501.3,2831.7,509.3z M1903.5,258.8c1.5,15.2,5.1,23,11.3,24.3C1910.4,274.9,1910.1,265.4,1903.5,258.8z
		 M2804.9,524.8c-0.8-0.3-1.5-0.7-2.3-1c-3.9,5.8-13.4,5.8-14.2,14.8c5.6-2.5,10.8-5.5,15.6-9C2804.9,529,2804.6,526.5,2804.9,524.8
		z M1820.1,106c-3,8.9,4.3,13.9,7.8,20.3C1831.4,117.3,1822.7,112.8,1820.1,106z M2787.9,528.4c11-3.6,15.7-8.7,12.6-13.1
		C2788.9,520.7,2786.7,522.9,2787.9,528.4z M1969,135.2c-0.4-4.6-0.5-7.7-1.1-10.7c-0.3-1.3-1.8-2.6-3-3.2c-0.8-0.4-3.3,0.3-3.3,0.6
		c-0.2,3.4-0.8,7.1,0.2,10.2C1962.1,133.5,1965.8,133.9,1969,135.2z M2732.5,411.5c1.9-0.4,2.8-0.3,3.2-0.7
		c4.1-4.6,8.2-9.3,12.2-14.1c0.6-0.7,0.1-2.2,0.1-3.4c-1.3,0.3-3,0.2-3.7,1c-3.6,4.1-6.9,8.4-10.2,12.8
		C2733.3,408.1,2733.2,409.4,2732.5,411.5z M2727,553.3c10.5,4.9,19.5,2.7,23.7-5.3C2743,549.8,2735.4,551.5,2727,553.3z
		 M1865.6,247.9c-3.3-7.3-2.2-16.6-9.6-22.1C1859.1,233.2,1857.9,242.5,1865.6,247.9z M2676,399.2c-0.3,0.7-0.6,1.5-0.9,2.2
		c11,5,21.9,10,32.9,15c0.3-0.6,0.6-1.3,0.9-1.9C2697.9,409.3,2686.9,404.3,2676,399.2z M2707.8,595.7c0,0.9,0,1.8-0.1,2.7
		c11.2-1.3,22.4-2.7,33.6-4c-0.1-0.8-0.2-1.5-0.3-2.3C2730,593.2,2718.9,594.5,2707.8,595.7z M1866.7,233.2
		c2.8,7.9,3.4,16.9,9.7,23.3C1873.1,248.8,1875.4,238.6,1866.7,233.2z M2062.4,134.7c4.7,3.4,8,4.3,9.9-1.5c0.9-2.6,2.8-5.2-1.5-6.5
		C2063.1,124.4,2065.5,131.9,2062.4,134.7z M2480.3,364.5c0-5.2,0-5.2-4.8-4.1c-0.1,10,1,11.3,9.4,10.9
		C2484.9,367.9,2485.9,364.1,2480.3,364.5z M1960.9,101.9c-0.1,4.9-0.3,8.1-0.1,11.4c0.1,1.1,1.4,2.4,2.5,2.9
		c0.9,0.4,3.3-0.2,3.4-0.6c0.4-3,0.9-6.3,0.2-9.2C1966.6,104.8,1963.7,103.8,1960.9,101.9z M2642.8,562.6c-7-3.8-10.9-2.5-15.2,4.9
		C2633.9,570.5,2638.3,567.4,2642.8,562.6z M1887.8,183.8c-9.5-11.5-10.9-12.5-15.1-10.2C1877,181.2,1883.9,186.1,1887.8,183.8z
		 M2613.4,564.9c6.1,2.7,11.6,0.5,14.8-5.7C2622.3,556.7,2620.4,557.4,2613.4,564.9z M1911.7,161.3c-0.2,0.6-0.5,1.2-0.7,1.8
		c3.1,3,6.3,5.9,9.4,8.9c0.5-0.2,1.1-0.4,1.6-0.5c-0.2-3.3,0.9-7.8-0.9-9.6C1919.6,160.2,1915,161.4,1911.7,161.3z M2081,149.5
		c-4.9-1.1-8-2.1-11.2-2.4c-0.5,0-2.1,4.1-1.7,4.4c2.3,1.9,5,3.7,7.8,4.4C2076.8,156.1,2078.5,152.7,2081,149.5z M1878.8,268.2
		c-0.3,10.5,3.5,19.2,9.5,21.5C1884.8,282.6,1885,274.5,1878.8,268.2z M2775.1,503c0.3,0.4,0.7,0.8,1,1.2c4.7-3.8,9.6-7.3,14-11.4
		c2.6-2.4,1.1-4.8-1-6.4C2784.3,492.1,2779.7,497.6,2775.1,503z M1813.8,129.1c-0.6,0.3-1.2,0.7-1.8,1c2.8,8.8,9.2,15.6,13.8,23.4
		c0.7-0.4,1.4-0.8,2.1-1.2C1823.2,144.6,1818.5,136.9,1813.8,129.1z M2513.8,307.4c0.6,0.1,1.2,0.2,1.8,0.3
		c2.7-3.4,5.4-6.8,8.2-10.2c-0.4-0.6-0.9-1.2-1.3-1.8c-3.2,1-7.1,1.2-9.2,3.3C2512,300.4,2513.5,304.6,2513.8,307.4z M2010.6,343.7
		c-1-8.8-5.9-15-11.7-14.5C2002,334.7,2003.4,341.4,2010.6,343.7z M1906.6,106c0.6-0.1,1.1-0.1,1.7-0.2c0.2-10.7,0.4-21.4,0.6-32.1
		c-0.9,0-1.8,0-2.7,0C1906.3,84.5,1906.4,95.2,1906.6,106z M2207.4,471.2c0-0.8,0.1-1.6,0.1-2.4c-7.6,0.2-15.1,0.4-22.7,0.6
		c0,0.6,0,1.2,0,1.8C2192.4,474.3,2199.9,472.1,2207.4,471.2z M2440,552.3c0-0.7-0.1-1.3-0.1-2c-7.7,0.4-15.3,0.8-23,1.2
		c0,0.7,0.1,1.4,0.1,2C2424.7,553.8,2432.5,556,2440,552.3z M2510.6,320.3c-6.3,2.5-9.1,10.7-5.4,16.8c1.5-1.7,2.8-3.2,4.1-4.7
		c-1.8-1.7-3.1-2.9-5.2-4.8C2509.4,327.1,2514.1,326.9,2510.6,320.3z M2046.4,116.6c-1,4.9-1.7,8.3-2.1,11.7c0,0.2,4.3,1.5,4.7,1
		c1.6-2.3,3.1-5.1,3.4-7.8C2052.5,120.4,2049.3,119,2046.4,116.6z M1967.4,99.8c0.3-2.8,1.1-5.4,0.8-7.8c-0.2-1.3-1.9-2.8-3.2-3.4
		c-0.8-0.4-3,0.2-3.5,1C1958.9,93.9,1961.4,98.5,1967.4,99.8z M2035.9,97.2c-0.9-0.3-1.8-0.6-2.6-0.9c-1.6,1.3-3.8,2.3-4.4,3.9
		c-0.4,1.1,1.1,3.7,2.4,4.5c2.1,1.2,5.3,2.1,6-1.6C2037.6,101.3,2036.4,99.2,2035.9,97.2z M1987.5,322.2c0.4,7.4,1.7,13.3,8.9,12.7
		C1994.3,326.7,1992.9,324.6,1987.5,322.2z M1952.7,98.7c-0.7,0.3-1.4,0.6-2.1,0.9c-0.1,4.1-0.3,8.3-0.1,12.4c0,1,1.6,1.8,2.5,2.8
		c0.7-0.9,1.8-1.7,1.9-2.7c0.4-3.1,0.6-6.2,0.3-9.2C1955,101.4,1953.5,100.1,1952.7,98.7z M1831.9,76.8c1.8,3.7,3.3,6.9,4.8,10
		c0.6,0,1.2,0,1.8,0c1-3.7,2-7.5,3.4-12.3C1837.9,75.4,1835.3,76,1831.9,76.8z M2171.6,465.2c7.7,4.8,14.4-0.3,21.3,0.3
		C2187.2,462.1,2179,462.1,2171.6,465.2z M1901.6,284.5c-0.5,6.8,1.9,10.9,7.9,13.4C1910.1,291.5,1907.3,286.7,1901.6,284.5z
		 M2471.9,206c-2.3,1.7-3.7,2.2-3.8,2.9c-0.4,4.4-0.6,8.8-0.6,13.2c0,0.7,1.4,1.3,2.2,2c0.6-1.2,1.7-2.3,1.8-3.5
		C2471.8,216.2,2471.8,211.8,2471.9,206z M2376.2,537.1c0.1-0.9,0.1-1.9,0.2-2.8c-7.6-0.1-15.3-0.2-22.9-0.3c0,0.9,0,1.8-0.1,2.7
		C2361,536.9,2368.6,537,2376.2,537.1z M2037.4,114.3c-1.4,3.5-5,6.6-1.5,10.6c0.3,0.4,3.8-0.8,4.2-1.8
		C2041,120.2,2045.4,116,2037.4,114.3z M2096.5,122.2c-4.5-1.8-7.3-3.1-10.2-4c-0.9-0.3-2.4,0.6-3.1,1.4c-0.6,0.6-0.8,2.7-0.5,2.9
		c2.7,1.5,5.4,3.1,8.3,3.7C2092.1,126.5,2093.8,124.2,2096.5,122.2z M2270.3,497.8c0.1-0.7,0.1-1.5,0.2-2.2
		c-7.5-2.9-15,0.4-22.5-0.3c0,0.8,0,1.6,0,2.3C2255.5,497.7,2262.9,497.7,2270.3,497.8z M1955.3,133.5c-0.1-4.7,0.1-8.7-0.3-12.6
		c-0.1-0.8-2.7-2.2-3.3-1.9C1948.8,120.8,1950.8,131.4,1955.3,133.5z M2027.4,384.8c-0.2,7.4,1.3,9.8,6.4,10.6
		C2036.3,387.8,2036.3,387.8,2027.4,384.8z M2307.3,512.6c0-0.8,0.1-1.6,0.1-2.4c-8.5-0.5-17.1-1-25.6-1.5c0,0.7-0.1,1.4-0.1,2.1
		C2290.2,511.4,2298.7,512,2307.3,512.6z M2146.9,199.3c4-3.5,7.6-6.6,11.8-10.3C2151.1,187.1,2145.2,192.5,2146.9,199.3z
		 M1898,288.8c-2.2-5.2-2.7-11-9.1-13.4C1889.3,283.9,1891.8,287.8,1898,288.8z M2062.4,128.8c-0.6-2.5-1.1-4.3-1.5-6.1
		c-1.7,1.2-4.1,2.1-4.9,3.7c-1,2-4.1,5.2,0.1,6.6C2057.4,133.5,2059.9,130.5,2062.4,128.8z M2592.3,343.1c0.5-1.2,0.9-1.7,0.8-2.2
		c-0.1-1.8-0.5-3.5-0.7-5.3c-1.3,1.1-2.8,2.1-3.8,3.5c-0.9,1.3-1.4,3-1.5,4.6c-0.1,1,0.6,2.2,1,3.3c1-0.5,2.3-0.9,3.1-1.7
		C2591.9,344.6,2592.2,343.4,2592.3,343.1z M2674.5,382c6.2,4,7-1.4,8.8-4.1c0.5-0.8-0.7-3.9-1.4-4
		C2676.2,373.3,2676.6,378.5,2674.5,382z M2015.7,331.8c0.4-0.5,0.9-1,1.3-1.4c-1.7-6.3-5.8-9.8-12.5-8.4
		C2008.2,325.2,2012,328.5,2015.7,331.8z M2288.7,504.5c0-0.9,0.1-1.8,0.1-2.6c-8.4-0.1-16.9-0.2-25.3-0.3c0,0.6,0,1.3-0.1,1.9
		C2271.9,503.8,2280.3,504.2,2288.7,504.5z M2642.6,570.3c6.4,1.4,9.9-2,14-5.6C2649.9,562.4,2646.6,563.8,2642.6,570.3z
		 M2117.1,224.9c6.3,1.9,16.2-4.8,15.2-10.2C2127.3,218.1,2122.4,221.4,2117.1,224.9z M1907.6,68.5c0.7,0.1,1.4,0.2,2.1,0.2
		c1-4.8,2.1-9.7,3.5-16.2c-3,1.5-5.4,2.1-5.5,3C1907.3,59.8,1907.6,64.2,1907.6,68.5z M2771.2,423c-0.6-0.7-1.3-1.4-1.9-2.1
		c-6,6.3-12,12.7-18,19c0.3,0.3,0.7,0.7,1,1C2758.6,435,2764.9,429,2771.2,423z M2077.4,112.4c-3,1.5-4.7,2.3-6.4,3.2
		c0.9,1.6,1.4,4.3,2.6,4.5c1.8,0.4,3.9-0.8,5.9-1.3C2079,117.1,2078.5,115.5,2077.4,112.4z M2598,576.6c5.4,1.4,9.6,0.2,13.4-3.7
		C2605.8,569.8,2601.6,571,2598,576.6z M2528.7,332.7c-0.3-0.7-0.7-1.3-1-2c-3.1,1-6.3,1.7-9.1,3.2c-0.5,0.3,0.8,3.9,1.5,7.2
		C2523.6,337.6,2526.1,335.2,2528.7,332.7z M2827.3,522.1c7.7-2.5,11.1-5.8,10.8-10.8C2831.6,514.3,2827.4,518.4,2827.3,522.1z
		 M1991.9,312.2c0.1,5.8,3,9.1,8.8,9.8C1999.9,316.3,1997.6,313.7,1991.9,312.2z M2682.4,364.2c1.5,2.5,1.9,4.2,3,4.9
		c3,1.9,4.6-0.6,5.1-2.9c0.4-1.4-0.8-3.1-1.3-4.7C2687.3,362.3,2685.4,363.1,2682.4,364.2z M1959.5,73.9c-5.7-2.5-7.9-1.2-7.8,2.8
		c0.1,1.8,1.4,3.5,2.1,5.2C1955.6,79.3,1957.4,76.8,1959.5,73.9z M2103,153c5.9,1.2,10.1-3.4,9.7-9.7
		C2107,144.2,2106.8,149.9,2103,153z M1956.9,93.8c-1.1-3.2-2.1-5.8-3-8.4c-1,0.7-2.9,1.5-2.9,2.1c0.2,2.8,0.9,5.5,1.5,8.3
		C1953.7,95.3,1954.8,94.8,1956.9,93.8z M2168.6,231c1.4-5.2,2.6-9.5,4.1-15C2165.8,221,2164.3,226.5,2168.6,231z M2783.2,505.8
		c0.4,0.7,0.8,1.5,1.1,2.2c3.8-2,7.7-4,11.3-6.3c0.2-0.1-0.7-2.2-1.3-4C2790.2,500.8,2786.7,503.3,2783.2,505.8z M1827.9,227.2
		c-0.9,0.6-1.9,1.3-2.8,1.9c2.8,4,5.5,8.1,8.3,12.1c0.7-0.5,1.4-0.9,2.1-1.4C1833,235.6,1830.4,231.4,1827.9,227.2z M2096.6,150.2
		c0.6,0.4,1.1,0.9,1.7,1.3c2.4-3.3,4.8-6.5,7.6-10.3C2100.2,140.3,2097.7,143.1,2096.6,150.2z M2579.8,364.5
		c0.8,0.4,1.6,0.7,2.4,1.1c1.6-3.4,3.3-6.7,4.8-10.1c0.2-0.5-0.5-1.6-1.1-2.1c-0.3-0.2-1.6,0.2-1.8,0.6
		C2582.5,357.5,2581.2,361,2579.8,364.5z M2639.8,576.7c-5.7-2.1-9.3-0.5-13.1,3.4C2632.3,582,2636,581,2639.8,576.7z M2124.6,115.9
		c-0.2,3.4-0.5,5.7-0.3,8c0,0.4,2.4,1.2,2.8,0.9c1.9-1.6,3.4-3.6,5.4-5.8C2129.5,117.9,2127.7,117.1,2124.6,115.9z M2674.1,422.9
		c0-0.6,0.1-1.2,0.1-1.7c-9.2-0.2-18.4-0.5-27.6-0.7c0,0.4,0,0.8,0,1.2C2655.7,422.1,2664.9,422.5,2674.1,422.9z M2326,518.6
		c-0.1-0.8-0.1-1.6-0.2-2.4c-6,0.3-12,0.6-18,0.9c0,0.8,0.1,1.6,0.1,2.4C2313.9,519.3,2320,518.9,2326,518.6z M2132.2,126.3
		c4.8,2.8,6.2,2,8.2-4.9C2134.8,118.6,2133.7,122.7,2132.2,126.3z M2048.2,111.7c4,0.2,6.3,0.7,8.2,0.1c0.8-0.2,1.7-3.4,1.1-4.3
		c-0.8-1.3-3.6-2.8-4.4-2.3C2051.4,106.2,2050.5,108.5,2048.2,111.7z M2128.8,141.6c1-2.5,1.9-4.7,2.8-7c-4.8-1.7-5.8-1-8,4.9
		C2125.2,140.1,2126.8,140.7,2128.8,141.6z M2062.2,150.1c1.1-0.4,2.2-0.8,3.3-1.2c-0.4-2-0.2-4.5-1.4-5.8c-0.7-0.8-3.5,0.4-5.4,0.6
		C2059.8,145.9,2061,148,2062.2,150.1z M1813.7,96.5c-0.4-1.1-0.7-2.4-1.3-3.4c-1.4-2.1-3.1-4.1-4.6-6.1c0.2,2.5,0.3,5,0.8,7.5
		C1809.1,97.2,1810.3,99.5,1813.7,96.5z M1783,109.2c0.6,0,1.2-0.1,1.8-0.1c-0.1-3.4-0.2-6.9-0.3-11.1
		C1778.1,101.7,1778.1,102.5,1783,109.2z M1948.8,77.9c-0.8-2.9-1.4-5.2-2-7.5c-1.1,0.6-3.2,1.1-3.3,1.7c-0.2,2.5,0.3,5.1,0.6,7.7
		C1945.4,79.3,1946.6,78.8,1948.8,77.9z M2041.9,110.7c2.6-2.1,4.7-3,4.9-4.2c0.2-1.4-1.2-3-1.9-4.6c-1.5,0.8-3.5,1.4-4.3,2.6
		C2040.1,105.4,2041.2,107.4,2041.9,110.7z M2170.1,210.7c0.4,0.3,0.9,0.5,1.3,0.8c2.3-2.2,4.7-4.5,7.5-7.1
		c-2.1-1.4-3.5-2.3-5.6-3.7C2172,204.5,2171.1,207.6,2170.1,210.7z M2624.9,575c-5.6-3.8-8.6-1-11.9,2.5
		C2617.9,581,2620.9,577.5,2624.9,575z M1777.5,121.5c4.4-7.4,4-9.7-1.7-12.3C1776.4,113.8,1776.9,117.7,1777.5,121.5z
		 M2469.3,563.3c-0.1-0.8-0.1-1.5-0.2-2.3c-6,0.4-11.9,0.8-17.9,1.2c0,0.7,0.1,1.5,0.1,2.2C2457.4,564.1,2463.3,563.7,2469.3,563.3z
		 M2150.4,125.7c-0.2-0.5-0.3-1.1-0.5-1.6c-1.8-0.2-4.4-1.3-5.2-0.5c-1.6,1.7-2.3,4.3-3.4,6.5c0.6,0.5,1.2,0.9,1.8,1.4
		C2145.6,129.5,2148,127.6,2150.4,125.7z M2088.1,146.1c0.8,0.5,1.6,1,2.4,1.5c2-3.1,3.9-6.3,5.9-9.4c-1-0.6-2-1.2-3-1.8
		C2091.7,139.6,2089.9,142.9,2088.1,146.1z M2171.2,239.4c-0.7,3.6-1.4,6.3-1.6,9c0,0.5,2.7,1.9,3.4,1.5
		C2175.4,248.4,2175,242.5,2171.2,239.4z M1803.1,102.1c3.7-3,2.8-7.3-3.1-11.5C1800.9,94.2,1801.9,97.8,1803.1,102.1z
		 M1981.7,306.1c-0.5,0.4-1.1,0.8-1.6,1.1c2.1,3.1,4.2,6.1,6.3,9.2c0.5-0.4,1-0.7,1.6-1.1C1988.3,310.7,1987,307.1,1981.7,306.1z
		 M2547,584.3c-0.1,0.8-0.3,1.5-0.4,2.3c5.7,0.8,11.4,1.5,17,2.3c0.1-0.7,0.2-1.3,0.3-2C2558.2,586.1,2552.6,585.2,2547,584.3z
		 M2153.2,227.4c-0.8-0.1-1.6-0.1-2.3-0.2c-1.1,4.2-2.6,8.4-1.1,12.8c0.7,0.1,1.5,0.1,2.2,0.2
		C2152.3,235.9,2152.7,231.7,2153.2,227.4z M2067,108.4c-2.6,1.5-4.8,2.1-5,3.1c-0.3,1.4,0.9,3.2,1.4,4.7c1.4-0.6,3.4-0.9,4.1-2
		C2068.2,113.2,2067.3,111.3,2067,108.4z M2651.6,590.2c0-0.5,0.1-1,0.1-1.6c-6.5-0.7-13.1-1.4-19.6-2.1c-0.1,0.7-0.1,1.4-0.2,2.1
		C2638.5,589.2,2645,589.7,2651.6,590.2z M2115.5,135.3c0.5,0.6,1,1.3,1.5,1.9c1.8-1.2,4-2.1,5.3-3.7c0.5-0.6-1.1-2.8-2.3-5.7
		C2117.8,131.4,2116.6,133.3,2115.5,135.3z M2025.6,125.8c-2.1,0.6-3.7,0.9-5.2,1.3c0.9,1.3,1.6,3.2,2.8,3.7
		c1.4,0.6,3.4-0.1,5.1-0.3C2027.5,129.2,2026.7,127.8,2025.6,125.8z M1946.5,92c-0.4-3.2-0.7-5.9-1.1-8.6c-0.9,0.3-2.5,0.6-2.5,1
		c-0.1,2.7,0.2,5.5,0.3,8.3C1944,92.5,1944.9,92.3,1946.5,92z M2598.5,321.4c-2.4,1.5-4.2,2-4.6,3c-0.4,1.1,0.6,2.7,1,4
		c1.3-0.5,3-0.7,3.7-1.6C2599.2,325.9,2598.6,324.2,2598.5,321.4z M2676.6,391.6c-1.6-2.3-2.4-4.2-2.9-4.1c-1.7,0.3-3.3,1.1-4.8,2.1
		c-0.2,0.1,0.7,3,1.3,3.1C2671.9,392.9,2673.6,392.2,2676.6,391.6z M2162.5,245.6c6.1-5.7,6.2-7.3,1.5-10.3
		C2163.4,238.9,2163,242.3,2162.5,245.6z M2596.6,595.5c-0.1,0.5-0.1,1.1-0.2,1.6c6.3,0.7,12.6,1.5,18.9,2.2
		c0.1-0.4,0.1-0.8,0.2-1.2C2609.2,597.2,2602.9,596.3,2596.6,595.5z M2724.3,418.8c0.7,0.7,1.4,1.4,2.2,2.1c2.2-2.3,4.5-4.5,6.7-6.8
		c-0.7-0.7-1.3-1.4-2-2C2728.9,414.3,2726.6,416.5,2724.3,418.8z M1941.9,62.8c-0.4-0.7-0.7-1.3-1.1-2c-2.2-0.9-4.8-2.7-5.7,1.4
		c-0.3,1.2,0.8,2.7,1.2,4C1938.1,65.1,1940,64,1941.9,62.8z M2598.5,377c-0.1-0.7-0.2-1.5-0.3-2.2c-4.3,0.6-8.6,1.2-12.8,1.8
		c0.1,0.7,0.2,1.4,0.2,2.1C2589.9,378.1,2594.2,377.6,2598.5,377z M2137.2,234.7c3,1.4,4.8,2.2,7.5,3.5c0.2-3,0.3-5,0.5-8.1
		C2142.2,231.8,2140.3,232.9,2137.2,234.7z M2591,400.4c-3.6-1.3-7.5-2.6-11-3.8C2581,402,2583.4,402.9,2591,400.4z M2089.2,165.3
		c2-3,3.7-5.6,5.6-8.6C2088.4,157,2087.2,158.9,2089.2,165.3z M2044.7,133.3c-2.1,1-3.4,1.6-4.6,2.1c0.7,1.3,1,3.2,2.1,3.8
		c0.9,0.5,2.6-0.6,4-1C2045.7,137,2045.3,135.6,2044.7,133.3z M2614.7,585.5c0.1,0.8,0.1,1.6,0.2,2.4c3.2-0.1,6.5-0.3,9.7-0.4
		c-0.1-0.9-0.1-1.8-0.2-2.7C2621.2,585.1,2617.9,585.3,2614.7,585.5z M2370,540.8c0,0.7,0,1.4,0.1,2.1c5.3-0.3,10.5-0.6,15.8-1
		c0-0.5,0-1,0-1.5C2380.5,540.6,2375.2,540.7,2370,540.8z M2454.1,558.9c0-0.5-0.1-1.1-0.1-1.6c-5.5,0.3-11,0.6-16.5,0.9
		c0,0.5,0.1,1.1,0.1,1.6C2443,559.5,2448.5,559.2,2454.1,558.9z M1900.6,301.9c0.6-0.6,1.1-1.2,1.7-1.7c-2.5-2.5-5.1-5.1-7.6-7.6
		c-0.6,0.6-1.2,1.2-1.8,1.8C1895.5,296.9,1898.1,299.4,1900.6,301.9z M2139.4,200.7c-0.6-0.5-1.1-1-1.7-1.4c-1.8,1.7-3.6,3.4-5.3,5
		c0.9,0.7,1.8,1.4,2.7,2.1C2136.5,204.5,2138,202.6,2139.4,200.7z M2589.4,388.7c0,0.9,0.1,1.8,0.1,2.7c3.5-0.3,7-0.5,10.5-0.8
		c0-0.7-0.1-1.5-0.1-2.2C2596.3,388.4,2592.9,388.5,2589.4,388.7z M2104.9,127.3c-0.3-0.9-0.6-1.9-0.9-2.8c-1.7,0.4-3.6,0.6-5.1,1.4
		c-0.4,0.2,0.1,2.3,0.2,3.6C2101.1,128.8,2103,128,2104.9,127.3z M2177.2,252.6c1,0.1,2,0.2,3,0.3c0.2-2.7,0.5-5.4,0.7-8.1
		c-0.8-0.1-1.7-0.2-2.5-0.3C2178,247.3,2177.6,250,2177.2,252.6z"/>
	<path class="st0" d="M2242.2,239.6c4.2,0.5,8.8,0.1,12.4,1.8c26.3,11.8,52.2,24.7,78.8,36c24.6,10.4,49.9,19,74.8,28.6
		c4.2,1.6,6.8,1.3,9.1-2.7c1.3-2.3,3.4-4.1,5.1-6.1c0.6,0.4,1.1,0.7,1.7,1.1c-2,3.3-4,6.6-6.1,10.2c3.3,2,5.9,3.1,8.9-0.1
		c2.1-2.3,4-1.4,4.3,1.8c0.4,4.9,3.2,3.8,6,2.4c2.5-1.3,4.9-2.8,8.2-3.3c-0.9,1.8-1.9,3.7-2.5,4.9c2.9,2.8,5.5,5.3,8.3,7.9
		c-9.5,8.5-14.9,19.6-25.1,25.7c-0.6-0.6-1.2-1.1-1.8-1.7c6.3-7.4,12.7-14.8,19.3-22.5c-3.7-2.7-6.8-3.2-10,0.7
		c-4,5-8.3,9.9-12.6,14.6c-1.8,2-4.2,3.5-6.3,5.3c-0.6-0.6-1.3-1.2-1.9-1.9c5.9-7.1,11.9-14.2,18-21.5c-4.1-3-6.9-2.3-9.7,1.3
		c-3.8,4.9-8,9.6-12.3,14.2c-1.4,1.6-3.3,2.7-5,4c-0.5-0.5-1.1-0.9-1.6-1.4c5.5-6.9,11-13.8,16.5-20.9c-5-4.5-8.6-2.7-12.5,1.2
		c0.5-1.5,1.1-3.1,1.9-5.4c-57.3-20.1-112.7-43.8-166.2-72C2241.9,241,2242,240.3,2242.2,239.6z"/>
	<path class="st0" d="M2400.7,238.4c-11.7-3.5-23.8-6.2-35.2-10.5c-37.3-14.2-74.4-29.1-108.8-49.7c-6-3.6-11.7-7.6-17.5-11.6
		c-1-0.7-1.3-2.2-2-3.3c1.4,0.1,3.2-0.4,4.2,0.2c28.4,17.2,57.9,32.1,88.8,44.2c23.8,9.3,47.5,19,71.2,28.5
		C2401.2,236.9,2401,237.7,2400.7,238.4z"/>
	<path class="st0" d="M2324.7,71.7c38.9,17.2,78.2,34.5,117.4,51.8C2423.7,123.6,2329.9,81.1,2324.7,71.7z"/>
	<path class="st0" d="M2267.7,217.4c-16.1-8.1-31.3-15.7-46.3-23.4c-1.1-0.6-1.7-2.4-2.5-3.6c1.4,0,3.1-0.5,4.3,0.1
		c15.9,7.6,31.8,15.4,47.6,23.2c1.8,0.9,2.9,2.9,4.4,4.4c-2.1-0.1-4.3-0.1-6.4-0.3C2268,217.7,2267.3,217.2,2267.7,217.4z"/>
	<path class="st0" d="M2362.9,260.5c1.8-4.9,4.1-6.6,8.6-4.2c2.9,1.5,6.3,2.2,9.1,3.8c1.3,0.8,1.9,2.8,2.9,4.2
		c-1.8,0.7-3.9,2.5-5.3,2.1C2373,264.9,2368.2,262.7,2362.9,260.5z"/>
	<path class="st0" d="M2260.5,145.8c9.7,4.7,19.5,9.3,29.2,14.1c0.4,0.2,0.4,2.6,0.1,2.7c-1,0.4-2.6,0.7-3.4,0.2
		c-6-3.5-12-7.1-17.9-10.8c-2.8-1.8-5.6-3.8-8.3-5.7C2260.2,146.2,2260.3,146,2260.5,145.8z"/>
	<path class="st0" d="M2457.1,251.8c-6.6,3.3-19.2-0.8-21.8-7.1C2441,242.3,2451.6,245.8,2457.1,251.8z"/>
	<path class="st0" d="M2410.5,271.7c-5.2,4.9-13.9,5-17.3,0.8c-0.8-0.9-0.6-3.1,0-4.4c0.4-1,2.4-2.2,3.2-1.9
		C2400.9,267.7,2405.4,269.7,2410.5,271.7z"/>
	<path class="st0" d="M2304.5,231.5c-2.3,0-4.8,0.5-6.9-0.1c-3.7-1.1-7.2-2.8-10.6-4.6c-1.1-0.6-1.6-2.3-2.4-3.5
		c1.4-0.6,3.1-2.2,4-1.8c5.5,2.3,10.8,5.1,16.2,7.7C2304.7,230,2304.6,230.8,2304.5,231.5z"/>
	<path class="st0" d="M2331,240c-2.5,2-4.1,4.2-5,3.9c-4.5-1.4-8.8-3.3-13.1-5.2c-0.5-0.2-0.7-2.4-0.2-3.2c0.5-0.8,2.2-1.7,3-1.4
		C2320.4,235.7,2325,237.6,2331,240z"/>
	<path class="st0" d="M2353.9,250.4c-1.2,5.9-3,6-14.7-0.2C2341.1,244,2347.9,245.4,2353.9,250.4z"/>
	<path class="st0" d="M2239.2,139.2c3.1-8.3,9.4-12.1,15.7-16.7C2255.2,127.8,2246.2,137.4,2239.2,139.2z"/>
	<path class="st0" d="M2312.6,144.1c3.9,1.3,7.9,2.4,11.7,4c0.9,0.4,1.3,2.3,1.9,3.4c-1.3,0.4-2.9,1.4-3.8,1
		c-3.8-1.7-7.4-3.8-11.1-5.7C2311.7,146,2312.1,145.1,2312.6,144.1z"/>
	<path class="st0" d="M2427.5,278.7c-0.7,7.3-2.7,7.1-15.4,1C2417.4,274.5,2422.4,280.2,2427.5,278.7z"/>
	<path class="st0" d="M2080.7,335c4.8-7.6,48.2-27.2,71.1-31.2C2128.1,314.2,2104.5,324.6,2080.7,335z"/>
	<path class="st0" d="M2236.6,454.5c-12.2-4.9-24.5-9.5-36.6-14.7c-20.1-8.7-40-17.8-60.1-26.6c-16.2-7.1-32.4-14.1-48.7-20.9
		c-6.2-2.6-10-6.9-12.9-14.2c3.1,1.2,5,1.9,7,2.8c28.7,12.8,57.4,25.8,86.2,38.4c15.8,6.9,32,13.2,48,19.8c7.2,3,13.3,7.3,17.9,13.7
		C2237.2,453.4,2236.9,454,2236.6,454.5z"/>
	<path class="st0" d="M2279.1,469.5c-10.6-2.2-19.7-6.1-26.5-15.2C2265.5,455.1,2277.3,461.8,2279.1,469.5z"/>
	<path class="st0" d="M2316.5,482c-9.1-1.6-19.1-1.3-23.9-11.7C2301.3,472.8,2309.9,475.3,2316.5,482z"/>
	<path class="st0" d="M2267.3,476.5c-5.4-2.1-10.7-4.3-16.1-6.4c0.2-0.5,0.4-0.9,0.6-1.4C2256.9,471.4,2263.5,470.7,2267.3,476.5
		C2267.3,476.6,2267.3,476.5,2267.3,476.5z"/>
	<path class="st0" d="M2443.2,49.9c-37.8-10.7-76.1-20.7-103.3-52.6c16.7,9.6,33,20.1,50.3,28.4c17.4,8.4,35.8,14.7,53.8,21.9
		C2443.8,48.4,2443.5,49.1,2443.2,49.9z"/>
	<path class="st0" d="M2462.6,10c2.2,2.5,5,4.7,6.5,7.6c8.9,17.9,15.9,36.4,18.8,56.2c0.4,2.4,0.3,5-0.3,7.6
		C2480.3,57.4,2474.9,32.9,2462.6,10z"/>
	<path class="st0" d="M2473.1,7.5c11,13.8,15.9,30.1,16.8,47.9C2484.3,39.5,2478.7,23.5,2473.1,7.5z"/>
	<path class="st0" d="M2375.1-17.7c6.5-6.9,24.1-9.5,31.8-4.6C2395.3-20.6,2385.2-19.1,2375.1-17.7z"/>
</g>
<path class="st0" d="M1294.2,877.6v-39.2c-15.4,11.2-30.1,19.6-44.8,25.2c-10.5,4.2-25.9,8.4-42.7,8.4c-16.8,0-35-4.2-51.8-17.5
	c-22.4-17.5-35.7-46.9-36.4-81.9c-0.7-31.5,7.7-63,24.5-88.9c28-42.7,80.5-74.9,152.6-56.7l0.7-14l75.6,0.7l-2.1,264.6L1294.2,877.6
	z M1295.6,706.1c-30.8-12.6-66.5-15.4-88.9,18.2c-18.2,28.7-14,63.7-4.9,70.7c7,5.6,39.9-2.1,93.1-57.4L1295.6,706.1z"/>
<path class="st0" d="M1624.6,758.6c4.2,45.5-2.8,114.1-2.8,119l-75.6-3.5c0-6.3,7-69.3,3.5-108.5c-4.9-53.2-18.9-60.2-19.6-60.9
	c-6.3-2.8-18.2-8.4-37.8,10.5c-9.8,9.1-16.8,20.3-20.3,26.6c9.8,48.3,14,74.9,11.2,133.7l-75.6-3.5c7.7-161.7-42-203-42.7-203.7
	l60.2-46.2c0.7,2.1,9.1,12.6,18.9,34.3c11.2-9.8,24.5-18.9,39.2-23.8c25.9-9.8,53.2-8.4,79.1,3.5c21,9.8,37.1,28.7,47.6,55.3
	C1617.6,709.6,1622.5,732,1624.6,758.6z"/>
<path class="st0" d="M1992.5,681.2l67.9,33.6c-0.7,1.4-16.1,31.5-42,65.8c-37.1,47.6-77.7,79.1-119.7,92.4
	c-16.1,5.6-32.2,8.4-48.3,8.4c-25.2,0-50.4-7-74.9-19.6c-27.3-14.7-49.7-35-64.4-61.6c-14-23.1-21.7-50.4-23.8-81.2
	c-4.2-51.1,9.1-110.6,36.4-167.3c24.5-51.1,58.1-95.2,95.2-123.9c46.2-35.7,94.5-45.5,136.5-27.3c19.6,9.1,34.3,23.8,41.3,42.7
	c6.3,15.4,6.3,33.6,2.1,52.5c-15.4,58.8-81.9,119.7-154,114.1l6.3-75.6c19.6,1.4,43.4-10.5,60.2-31.5c12.6-16.1,15.4-28,14.7-32.2
	l-0.7-0.7c-35-15.4-95.9,37.1-133.7,114.8c-21,44.1-32.2,91.7-29.4,129.5c1.4,18.9,6.3,35,14,48.3c8.4,14,19.6,24.5,34.3,32.2
	c22.4,11.9,43.4,14,65.1,7c26.6-9.1,55.3-32.2,82.6-67.2C1979.9,706.4,1992.5,681.2,1992.5,681.2z"/>
<path class="st0" d="M2320.8,791.1c2.1,43.4-0.7,81.9-0.7,83.3l-75.6-4.9c0-0.7,2.1-34.3,0.7-72.1c-2.1-62.3-12.6-78.4-14-80.5
	c-4.2-3.5-9.1-5.6-14.7-4.9c-18.2,1.4-42,17.5-58.1,32.2l4.2,135.1l-75.6,2.1l-12.6-362.6l75.6-1.4l6.3,135.8
	c16.8-8.4,35.7-15.4,55.3-16.8c25.9-1.4,50.4,7,70.7,24.5c14,12.6,24.5,32.9,30.8,62.3C2317.3,741.4,2319.4,764.5,2320.8,791.1z"/>
<path class="st0" d="M2440.1,877.6c-32.2-1.4-60.2-15.4-81.2-39.9c-16.1-18.9-27.3-42.7-30.1-66.5c-6.3-42,7-88.2,33.6-120.4
	c21-24.5,48.3-39.2,77.7-39.9c32.2-1.4,61.6,10.5,84,33.6c20.3,21,32.9,49.7,37.1,83.3c5.6,44.8-6.3,86.1-32.2,114.1
	c-21.7,23.1-51.1,35.7-83.3,35.7L2440.1,877.6L2440.1,877.6z M2442.9,802c13.3,0.7,23.1-3.5,30.1-11.2
	c11.2-11.9,15.4-31.5,13.3-53.9c-3.5-25.2-16.1-51.8-43.4-50.4c-9.8,0-17.5,7-22.4,13.3c-13.3,15.4-20.3,39.9-16.8,60.9
	c0.7,7,4.9,18.9,12.6,28C2423.3,797.1,2432.4,801.3,2442.9,802z"/>
<path class="st0" d="M876.4,529.1c-8.2,18.4-5.8,31.8,10.5,45.8c14,11.7,35.3,25.9,62.1,35.3c35,14,83.1,33,112.3,58.7
	c31.5,27.6,50.5,57.1,40,113.1c-10.5,54.8-42.7,84.8-97.5,99.9c-18.7,5.8-37.3,8.2-57.1,8.2c-72.3,0-140.4-32.5-191.7-87.3l69.4-65
	c75.7,51.2,96.1,54.5,144,50.8c23.9-3.5,29.5-23.7,30.7-28.4c2.3-14-7.8-23.3-13.6-28c-12.8-10.5-42.4-20.6-68-31.1
	c-37.3-14-65.7-25.3-96-52.1c-30.3-26.8-63.4-66-45.8-139.1c9.3-38.9,38.1-69.9,87-86.3c76.9-24.5,145.5,11.7,221.2,78.2l-55.7,65.3
	c-47.8-40.8-100.8-64.7-130-55.4C887.8,515.1,882.7,518.2,876.4,529.1z"/>
</svg>
