<?xml version="1.0" encoding="utf-8"?>
<!-- Generator: Adobe Illustrator 19.0.0, SVG Export Plug-In . SVG Version: 6.00 Build 0)  -->
<svg version="1.1" id="Calque_1" xmlns="http://www.w3.org/2000/svg" xmlns:xlink="http://www.w3.org/1999/xlink" x="0px" y="0px"
	 viewBox="0 0 2346.9 198.1" style="enable-background:new 0 0 2346.9 198.1;" xml:space="preserve">
<style type="text/css">
	.st0{fill:#D4FF00;}
</style>
<polygon id="XMLID_1_" class="st0" points="880.1,0 977.9,198.1 782.3,198.1 "/>
<polygon id="XMLID_24_" class="st0" points="1075.7,0 1173.4,198.1 977.9,198.1 "/>
<polygon id="XMLID_25_" class="st0" points="684.5,0 782.3,198.1 586.7,198.1 "/>
<polygon id="XMLID_28_" class="st0" points="293.4,0 391.1,198.1 195.6,198.1 "/>
<polygon id="XMLID_27_" class="st0" points="488.9,0 586.7,198.1 391.1,198.1 "/>
<polygon id="XMLID_26_" class="st0" points="97.8,0 195.6,198.1 0,198.1 "/>
<polygon id="XMLID_34_" class="st0" points="2053.5,0 2151.3,198.1 1955.7,198.1 "/>
<polygon id="XMLID_33_" class="st0" points="2249.1,0 2346.9,198.1 2151.3,198.1 "/>
<polygon id="XMLID_32_" class="st0" points="1857.9,0 1955.7,198.1 1760.2,198.1 "/>
<polygon id="XMLID_31_" class="st0" points="1466.8,0 1564.6,198.1 1369,198.1 "/>
<polygon id="XMLID_30_" class="st0" points="1662.4,0 1760.2,198.1 1564.6,198.1 "/>
<polygon id="XMLID_29_" class="st0" points="1271.2,0 1369,198.1 1173.4,198.1 "/>
</svg>
